<svg width="204" height="58" viewBox="0 0 204 58" fill="none" xmlns="http://www.w3.org/2000/svg">
<g clip-path="url(#clip0_5515_6882)">
<rect x="18" y="14" width="28" height="28" rx="14" fill="#474857" fill-opacity="0.2"/>
<rect x="50" y="27" width="33" height="4" rx="2" fill="#474857" fill-opacity="0.2"/>
<rect x="121" y="27" width="33" height="4" rx="2" fill="#474857" fill-opacity="0.2"/>
<rect x="88" y="14" width="28" height="28" rx="14" fill="#18181B"/>
<rect x="158" y="14" width="28" height="28" rx="14" fill="#474857" fill-opacity="0.2"/>
<path d="M18 58L18 -2.23517e-07" stroke="url(#paint0_linear_5515_6882)" stroke-opacity="0.4"/>
<path d="M186 58L186 -2.23517e-07" stroke="url(#paint1_linear_5515_6882)" stroke-opacity="0.4"/>
<path d="M204 14L7.51019e-06 14" stroke="url(#paint2_linear_5515_6882)" stroke-opacity="0.4"/>
<path d="M204 42L7.51019e-06 42" stroke="url(#paint3_linear_5515_6882)" stroke-opacity="0.4"/>
</g>
<defs>
<linearGradient id="paint0_linear_5515_6882" x1="18.5" y1="3.12238e-06" x2="18.496" y2="58" gradientUnits="userSpaceOnUse">
<stop stop-color="#76717F" stop-opacity="0"/>
<stop offset="0.245" stop-color="#71717A"/>
<stop offset="0.75" stop-color="#71717A"/>
<stop offset="1" stop-color="#76717F" stop-opacity="0"/>
</linearGradient>
<linearGradient id="paint1_linear_5515_6882" x1="186.5" y1="3.12238e-06" x2="186.496" y2="58" gradientUnits="userSpaceOnUse">
<stop stop-color="#76717F" stop-opacity="0"/>
<stop offset="0.245" stop-color="#71717A"/>
<stop offset="0.75" stop-color="#71717A"/>
<stop offset="1" stop-color="#76717F" stop-opacity="0"/>
</linearGradient>
<linearGradient id="paint2_linear_5515_6882" x1="1.09053e-05" y1="13.5" x2="204" y2="13.5491" gradientUnits="userSpaceOnUse">
<stop stop-color="#76717F" stop-opacity="0"/>
<stop offset="0.245" stop-color="#71717A"/>
<stop offset="0.75" stop-color="#71717A"/>
<stop offset="1" stop-color="#76717F" stop-opacity="0"/>
</linearGradient>
<linearGradient id="paint3_linear_5515_6882" x1="1.09053e-05" y1="41.5" x2="204" y2="41.5491" gradientUnits="userSpaceOnUse">
<stop stop-color="#76717F" stop-opacity="0"/>
<stop offset="0.245" stop-color="#71717A"/>
<stop offset="0.75" stop-color="#71717A"/>
<stop offset="1" stop-color="#76717F" stop-opacity="0"/>
</linearGradient>
<clipPath id="clip0_5515_6882">
<rect width="204" height="58" fill="white"/>
</clipPath>
</defs>
</svg>
