<svg width="223" height="82" viewBox="0 0 223 82" fill="none" xmlns="http://www.w3.org/2000/svg">
<g clip-path="url(#clip0_5515_6683)">
<rect x="21" y="17" width="180" height="48" rx="8" fill="#F4F4F5"/>
<line x1="38" y1="28" x2="38" y2="54" stroke="#18181B" stroke-width="2"/>
<path d="M55.868 44.625C55.868 45.399 55.781 46.05 55.607 46.578C55.439 47.1 55.133 47.499 54.689 47.775C54.245 48.045 53.612 48.18 52.79 48.18C52.358 48.18 51.929 48.135 51.503 48.045C51.083 47.961 50.786 47.892 50.612 47.838L50.693 45.804C50.873 45.858 51.08 45.924 51.314 46.002C51.548 46.074 51.821 46.11 52.133 46.11C52.733 46.11 53.138 45.948 53.348 45.624C53.564 45.3 53.672 44.769 53.672 44.031V34.986H55.868V44.625ZM62.2221 48.18C61.3341 48.18 60.5601 47.991 59.9001 47.613C59.2401 47.229 58.7271 46.68 58.3611 45.966C58.0011 45.252 57.8211 44.394 57.8211 43.392C57.8211 42.42 57.9951 41.568 58.3431 40.836C58.6971 40.104 59.2041 39.534 59.8641 39.126C60.5241 38.718 61.3131 38.514 62.2311 38.514C63.1191 38.514 63.8901 38.709 64.5441 39.099C65.1981 39.489 65.7021 40.047 66.0561 40.773C66.4161 41.499 66.5961 42.372 66.5961 43.392C66.5961 44.334 66.4251 45.165 66.0831 45.885C65.7471 46.599 65.2521 47.16 64.5981 47.568C63.9501 47.976 63.1581 48.18 62.2221 48.18ZM62.2311 46.515C62.7351 46.515 63.1491 46.377 63.4731 46.101C63.8031 45.825 64.0461 45.447 64.2021 44.967C64.3641 44.487 64.4451 43.941 64.4451 43.329C64.4451 42.759 64.3731 42.234 64.2291 41.754C64.0911 41.274 63.8571 40.89 63.5271 40.602C63.2031 40.308 62.7711 40.161 62.2311 40.161C61.7211 40.161 61.2981 40.296 60.9621 40.566C60.6321 40.83 60.3831 41.202 60.2151 41.682C60.0531 42.156 59.9721 42.705 59.9721 43.329C59.9721 43.893 60.0441 44.418 60.1881 44.904C60.3381 45.384 60.5781 45.774 60.9081 46.074C61.2381 46.368 61.6791 46.515 62.2311 46.515ZM68.5389 48V34.626H70.6989V40.044C70.8489 39.81 71.0469 39.585 71.2929 39.369C71.5389 39.147 71.8389 38.967 72.1929 38.829C72.5529 38.685 72.9819 38.613 73.4799 38.613C74.0739 38.613 74.6169 38.727 75.1089 38.955C75.6009 39.183 75.9939 39.513 76.2879 39.945C76.5819 40.371 76.7289 40.881 76.7289 41.475V48H74.5329V41.844C74.5329 41.364 74.3619 40.992 74.0199 40.728C73.6839 40.464 73.2579 40.332 72.7419 40.332C72.3999 40.332 72.0729 40.392 71.7609 40.512C71.4489 40.632 71.1969 40.812 71.0049 41.052C70.8189 41.286 70.7259 41.58 70.7259 41.934V48H68.5389ZM79.0682 48V38.694H81.2102V40.026C81.3542 39.786 81.5492 39.555 81.7952 39.333C82.0472 39.111 82.3562 38.931 82.7222 38.793C83.0882 38.655 83.5172 38.586 84.0092 38.586C84.5852 38.586 85.1192 38.7 85.6112 38.928C86.1092 39.156 86.5082 39.513 86.8082 39.999C87.1142 40.485 87.2672 41.112 87.2672 41.88V48H85.0712V42.141C85.0712 41.529 84.9032 41.076 84.5672 40.782C84.2312 40.482 83.8082 40.332 83.2982 40.332C82.9502 40.332 82.6202 40.392 82.3082 40.512C81.9962 40.626 81.7412 40.803 81.5432 41.043C81.3512 41.277 81.2552 41.571 81.2552 41.925V48H79.0682ZM93.9207 34.986C93.9747 34.986 94.1337 34.986 94.3977 34.986C94.6617 34.986 94.9737 34.986 95.3337 34.986C95.6997 34.986 96.0687 34.989 96.4407 34.995C96.8187 34.995 97.1457 34.998 97.4217 35.004C99.0057 35.034 100.293 35.307 101.283 35.823C102.279 36.333 103.008 37.062 103.47 38.01C103.938 38.952 104.172 40.089 104.172 41.421C104.172 42.813 103.923 43.998 103.425 44.976C102.933 45.954 102.177 46.704 101.157 47.226C100.143 47.742 98.8527 48 97.2867 48H93.9207V34.986ZM96.1437 36.795V46.191H97.3227C98.2167 46.191 99.0057 46.038 99.6897 45.732C100.374 45.42 100.908 44.916 101.292 44.22C101.682 43.524 101.877 42.594 101.877 41.43C101.877 40.302 101.697 39.399 101.337 38.721C100.977 38.043 100.461 37.554 99.7887 37.254C99.1167 36.948 98.3127 36.795 97.3767 36.795H96.1437ZM110.193 48.18C109.305 48.18 108.531 47.991 107.871 47.613C107.211 47.229 106.698 46.68 106.332 45.966C105.972 45.252 105.792 44.394 105.792 43.392C105.792 42.42 105.966 41.568 106.314 40.836C106.668 40.104 107.175 39.534 107.835 39.126C108.495 38.718 109.284 38.514 110.202 38.514C111.09 38.514 111.861 38.709 112.515 39.099C113.169 39.489 113.673 40.047 114.027 40.773C114.387 41.499 114.567 42.372 114.567 43.392C114.567 44.334 114.396 45.165 114.054 45.885C113.718 46.599 113.223 47.16 112.569 47.568C111.921 47.976 111.129 48.18 110.193 48.18ZM110.202 46.515C110.706 46.515 111.12 46.377 111.444 46.101C111.774 45.825 112.017 45.447 112.173 44.967C112.335 44.487 112.416 43.941 112.416 43.329C112.416 42.759 112.344 42.234 112.2 41.754C112.062 41.274 111.828 40.89 111.498 40.602C111.174 40.308 110.742 40.161 110.202 40.161C109.692 40.161 109.269 40.296 108.933 40.566C108.603 40.83 108.354 41.202 108.186 41.682C108.024 42.156 107.943 42.705 107.943 43.329C107.943 43.893 108.015 44.418 108.159 44.904C108.309 45.384 108.549 45.774 108.879 46.074C109.209 46.368 109.65 46.515 110.202 46.515ZM118.229 43.851C118.223 44.379 118.307 44.847 118.481 45.255C118.655 45.663 118.913 45.984 119.255 46.218C119.597 46.446 120.02 46.56 120.524 46.56C121.04 46.56 121.487 46.446 121.865 46.218C122.249 45.984 122.504 45.63 122.63 45.156H124.637C124.529 45.804 124.271 46.353 123.863 46.803C123.455 47.253 122.96 47.595 122.378 47.829C121.802 48.063 121.202 48.18 120.578 48.18C119.678 48.18 118.886 47.991 118.202 47.613C117.524 47.229 116.993 46.683 116.609 45.975C116.231 45.267 116.042 44.424 116.042 43.446C116.042 42.492 116.216 41.646 116.564 40.908C116.912 40.164 117.413 39.579 118.067 39.153C118.727 38.727 119.519 38.514 120.443 38.514C121.361 38.514 122.132 38.709 122.756 39.099C123.386 39.489 123.86 40.035 124.178 40.737C124.502 41.433 124.664 42.249 124.664 43.185V43.851H118.229ZM118.229 42.492H122.594C122.594 42.042 122.516 41.637 122.36 41.277C122.204 40.911 121.964 40.623 121.64 40.413C121.322 40.197 120.92 40.089 120.434 40.089C119.954 40.089 119.549 40.206 119.219 40.44C118.889 40.674 118.64 40.977 118.472 41.349C118.304 41.715 118.223 42.096 118.229 42.492Z" fill="#474857" fill-opacity="0.3"/>
<path d="M223 17L2.44379e-06 17" stroke="url(#paint0_linear_5515_6683)" stroke-opacity="0.4"/>
<path d="M223 65L2.44379e-06 65" stroke="url(#paint1_linear_5515_6683)" stroke-opacity="0.4"/>
<path d="M20 82L20 -1.69873e-06" stroke="url(#paint2_linear_5515_6683)" stroke-opacity="0.4"/>
<path d="M201 82L201 -1.69873e-06" stroke="url(#paint3_linear_5515_6683)" stroke-opacity="0.4"/>
</g>
<defs>
<linearGradient id="paint0_linear_5515_6683" x1="1.1921e-05" y1="16.5" x2="223" y2="16.5587" gradientUnits="userSpaceOnUse">
<stop stop-color="#76717F" stop-opacity="0"/>
<stop offset="0.245" stop-color="#71717A"/>
<stop offset="0.75" stop-color="#71717A"/>
<stop offset="1" stop-color="#76717F" stop-opacity="0"/>
</linearGradient>
<linearGradient id="paint1_linear_5515_6683" x1="1.1921e-05" y1="64.5" x2="223" y2="64.5587" gradientUnits="userSpaceOnUse">
<stop stop-color="#76717F" stop-opacity="0"/>
<stop offset="0.245" stop-color="#71717A"/>
<stop offset="0.75" stop-color="#71717A"/>
<stop offset="1" stop-color="#76717F" stop-opacity="0"/>
</linearGradient>
<linearGradient id="paint2_linear_5515_6683" x1="20.5" y1="4.35075e-06" x2="20.4921" y2="82" gradientUnits="userSpaceOnUse">
<stop stop-color="#76717F" stop-opacity="0"/>
<stop offset="0.245" stop-color="#71717A"/>
<stop offset="0.75" stop-color="#71717A"/>
<stop offset="1" stop-color="#76717F" stop-opacity="0"/>
</linearGradient>
<linearGradient id="paint3_linear_5515_6683" x1="201.5" y1="4.35075e-06" x2="201.492" y2="82" gradientUnits="userSpaceOnUse">
<stop stop-color="#76717F" stop-opacity="0"/>
<stop offset="0.245" stop-color="#71717A"/>
<stop offset="0.75" stop-color="#71717A"/>
<stop offset="1" stop-color="#76717F" stop-opacity="0"/>
</linearGradient>
<clipPath id="clip0_5515_6683">
<rect width="223" height="82" fill="white"/>
</clipPath>
</defs>
</svg>
