<svg width="237" height="82" viewBox="0 0 237 82" fill="none" xmlns="http://www.w3.org/2000/svg">
<g clip-path="url(#clip0_5515_6956)">
<rect x="21" y="17" width="42" height="48" rx="8" fill="#F4F4F5"/>
<rect x="72" y="17" width="42" height="48" rx="8" fill="#F4F4F5"/>
<rect x="123" y="17" width="42" height="48" rx="8" fill="#18181B" fill-opacity="0.1"/>
<rect x="174" y="17" width="42" height="48" rx="8" fill="#F4F4F5"/>
<path d="M42.213 48V37.974H39.801V36.669C40.563 36.669 41.166 36.606 41.61 36.48C42.06 36.348 42.387 36.156 42.591 35.904C42.801 35.652 42.921 35.346 42.951 34.986H44.445V48H42.213Z" fill="#474857" fill-opacity="0.3"/>
<path d="M138.945 38.892C138.945 38.004 139.158 37.257 139.584 36.651C140.01 36.039 140.58 35.58 141.294 35.274C142.014 34.962 142.812 34.806 143.688 34.806C144.63 34.806 145.464 34.935 146.19 35.193C146.922 35.445 147.495 35.826 147.909 36.336C148.329 36.846 148.539 37.479 148.539 38.235C148.539 38.877 148.344 39.45 147.954 39.954C147.564 40.458 146.949 40.854 146.109 41.142C146.631 41.286 147.099 41.502 147.513 41.79C147.927 42.072 148.254 42.426 148.494 42.852C148.74 43.278 148.863 43.779 148.863 44.355C148.863 44.973 148.728 45.522 148.458 46.002C148.194 46.482 147.822 46.887 147.342 47.217C146.868 47.541 146.313 47.787 145.677 47.955C145.041 48.117 144.357 48.198 143.625 48.198C142.647 48.192 141.804 48.024 141.096 47.694C140.388 47.364 139.836 46.893 139.44 46.281C139.05 45.669 138.846 44.943 138.828 44.103H140.961C141.087 44.877 141.393 45.453 141.879 45.831C142.371 46.203 142.968 46.389 143.67 46.389C144.252 46.389 144.756 46.302 145.182 46.128C145.608 45.948 145.935 45.702 146.163 45.39C146.397 45.078 146.514 44.715 146.514 44.301C146.514 43.863 146.388 43.488 146.136 43.176C145.89 42.864 145.551 42.624 145.119 42.456C144.687 42.288 144.201 42.198 143.661 42.186L142.455 42.15V40.368L143.571 40.323C144.087 40.305 144.54 40.206 144.93 40.026C145.326 39.846 145.635 39.609 145.857 39.315C146.079 39.021 146.19 38.691 146.19 38.325C146.19 37.989 146.085 37.686 145.875 37.416C145.671 37.146 145.38 36.936 145.002 36.786C144.624 36.63 144.177 36.552 143.661 36.552C143.223 36.552 142.812 36.63 142.428 36.786C142.044 36.942 141.726 37.194 141.474 37.542C141.228 37.884 141.093 38.334 141.069 38.892H138.945Z" fill="#18181B"/>
<path d="M89.062 48V46.83V46.227C89.062 45.561 89.185 44.988 89.431 44.508C89.677 44.022 90.004 43.599 90.412 43.239C90.82 42.879 91.267 42.561 91.753 42.285C92.245 42.003 92.731 41.739 93.211 41.493C93.697 41.241 94.144 40.983 94.552 40.719C94.96 40.449 95.287 40.149 95.533 39.819C95.785 39.489 95.911 39.096 95.911 38.64C95.911 38.058 95.704 37.584 95.29 37.218C94.882 36.846 94.327 36.66 93.625 36.66C92.881 36.66 92.266 36.873 91.78 37.299C91.3 37.725 91.015 38.325 90.925 39.099H88.801C88.813 38.307 89.002 37.587 89.368 36.939C89.734 36.291 90.277 35.775 90.997 35.391C91.717 35.001 92.614 34.806 93.688 34.806C94.618 34.806 95.419 34.968 96.091 35.292C96.769 35.61 97.291 36.057 97.657 36.633C98.029 37.203 98.215 37.869 98.215 38.631C98.215 39.297 98.092 39.867 97.846 40.341C97.606 40.815 97.285 41.226 96.883 41.574C96.487 41.916 96.049 42.219 95.569 42.483C95.095 42.747 94.618 42.996 94.138 43.23C93.664 43.458 93.226 43.698 92.824 43.95C92.428 44.196 92.107 44.478 91.861 44.796C91.621 45.114 91.501 45.495 91.501 45.939V46.128H98.242V48H89.062Z" fill="#474857" fill-opacity="0.3"/>
<path d="M237 17L7.15256e-06 17" stroke="url(#paint0_linear_5515_6956)" stroke-opacity="0.4"/>
<path d="M237 65L7.15256e-06 65" stroke="url(#paint1_linear_5515_6956)" stroke-opacity="0.4"/>
<path d="M20 82L20 -1.69873e-06" stroke="url(#paint2_linear_5515_6956)" stroke-opacity="0.4"/>
<path d="M216 82L216 -1.69873e-06" stroke="url(#paint3_linear_5515_6956)" stroke-opacity="0.4"/>
</g>
<defs>
<linearGradient id="paint0_linear_5515_6956" x1="1.26694e-05" y1="16.5" x2="237" y2="16.5663" gradientUnits="userSpaceOnUse">
<stop stop-color="#76717F" stop-opacity="0"/>
<stop offset="0.245" stop-color="#71717A"/>
<stop offset="0.75" stop-color="#71717A"/>
<stop offset="1" stop-color="#76717F" stop-opacity="0"/>
</linearGradient>
<linearGradient id="paint1_linear_5515_6956" x1="1.26694e-05" y1="64.5" x2="237" y2="64.5663" gradientUnits="userSpaceOnUse">
<stop stop-color="#76717F" stop-opacity="0"/>
<stop offset="0.245" stop-color="#71717A"/>
<stop offset="0.75" stop-color="#71717A"/>
<stop offset="1" stop-color="#76717F" stop-opacity="0"/>
</linearGradient>
<linearGradient id="paint2_linear_5515_6956" x1="20.5" y1="4.35075e-06" x2="20.4921" y2="82" gradientUnits="userSpaceOnUse">
<stop stop-color="#76717F" stop-opacity="0"/>
<stop offset="0.245" stop-color="#71717A"/>
<stop offset="0.75" stop-color="#71717A"/>
<stop offset="1" stop-color="#76717F" stop-opacity="0"/>
</linearGradient>
<linearGradient id="paint3_linear_5515_6956" x1="216.5" y1="4.35075e-06" x2="216.492" y2="82" gradientUnits="userSpaceOnUse">
<stop stop-color="#76717F" stop-opacity="0"/>
<stop offset="0.245" stop-color="#71717A"/>
<stop offset="0.75" stop-color="#71717A"/>
<stop offset="1" stop-color="#76717F" stop-opacity="0"/>
</linearGradient>
<clipPath id="clip0_5515_6956">
<rect width="237" height="82" fill="white"/>
</clipPath>
</defs>
</svg>
