<svg width="160" height="57" viewBox="0 0 160 57" fill="none" xmlns="http://www.w3.org/2000/svg">
<g clip-path="url(#clip0_5515_7007)">
<rect x="22" y="14" width="56" height="28" rx="6" fill="#F4F4F5"/>
<rect x="82" y="14" width="56" height="28" rx="6" fill="#18181B"/>
<rect x="91" y="25" width="38" height="6" rx="3" fill="white"/>
<rect x="31" y="25" width="38" height="6" rx="3" fill="#474857" fill-opacity="0.5"/>
<path d="M22 57L22 -1.83284e-06" stroke="url(#paint0_linear_5515_7007)" stroke-opacity="0.4"/>
<path d="M138 57L138 -1.83284e-06" stroke="url(#paint1_linear_5515_7007)" stroke-opacity="0.4"/>
<path d="M160 14L7.98702e-06 14" stroke="url(#paint2_linear_5515_7007)" stroke-opacity="0.4"/>
<path d="M160 42L7.98702e-06 42" stroke="url(#paint3_linear_5515_7007)" stroke-opacity="0.4"/>
</g>
<defs>
<linearGradient id="paint0_linear_5515_7007" x1="22.5" y1="3.08924e-06" x2="22.4962" y2="57" gradientUnits="userSpaceOnUse">
<stop stop-color="#76717F" stop-opacity="0"/>
<stop offset="0.245" stop-color="#71717A"/>
<stop offset="0.75" stop-color="#71717A"/>
<stop offset="1" stop-color="#76717F" stop-opacity="0"/>
</linearGradient>
<linearGradient id="paint1_linear_5515_7007" x1="138.5" y1="3.08924e-06" x2="138.496" y2="57" gradientUnits="userSpaceOnUse">
<stop stop-color="#76717F" stop-opacity="0"/>
<stop offset="0.245" stop-color="#71717A"/>
<stop offset="0.75" stop-color="#71717A"/>
<stop offset="1" stop-color="#76717F" stop-opacity="0"/>
</linearGradient>
<linearGradient id="paint2_linear_5515_7007" x1="8.52802e-06" y1="13.5" x2="160" y2="13.5302" gradientUnits="userSpaceOnUse">
<stop stop-color="#76717F" stop-opacity="0"/>
<stop offset="0.245" stop-color="#71717A"/>
<stop offset="0.75" stop-color="#71717A"/>
<stop offset="1" stop-color="#76717F" stop-opacity="0"/>
</linearGradient>
<linearGradient id="paint3_linear_5515_7007" x1="8.52802e-06" y1="41.5" x2="160" y2="41.5302" gradientUnits="userSpaceOnUse">
<stop stop-color="#76717F" stop-opacity="0"/>
<stop offset="0.245" stop-color="#71717A"/>
<stop offset="0.75" stop-color="#71717A"/>
<stop offset="1" stop-color="#76717F" stop-opacity="0"/>
</linearGradient>
<clipPath id="clip0_5515_7007">
<rect width="160" height="57" fill="white"/>
</clipPath>
</defs>
</svg>
