<svg width="223" height="82" viewBox="0 0 223 82" fill="none" xmlns="http://www.w3.org/2000/svg">
<g clip-path="url(#clip0_5515_7036)">
<rect x="21" y="17" width="180" height="48" rx="8" fill="#F4F4F5"/>
<path d="M37.992 46.278L36.507 45.244L38.685 42.593L35.605 41.735L36.188 40.129L39.114 41.361L38.883 38.094H40.709L40.456 41.372L43.426 40.074L43.943 41.68L40.94 42.582L43.074 45.167L41.567 46.223L39.796 43.319L37.992 46.278ZM47.5955 46.278L46.1105 45.244L48.2885 42.593L45.2085 41.735L45.7915 40.129L48.7175 41.361L48.4865 38.094H50.3125L50.0595 41.372L53.0295 40.074L53.5465 41.68L50.5435 42.582L52.6775 45.167L51.1705 46.223L49.3995 43.319L47.5955 46.278ZM57.199 46.278L55.714 45.244L57.892 42.593L54.812 41.735L55.395 40.129L58.321 41.361L58.09 38.094H59.916L59.663 41.372L62.633 40.074L63.15 41.68L60.147 42.582L62.281 45.167L60.774 46.223L59.003 43.319L57.199 46.278ZM66.8025 46.278L65.3175 45.244L67.4955 42.593L64.4155 41.735L64.9985 40.129L67.9245 41.361L67.6935 38.094H69.5195L69.2665 41.372L72.2365 40.074L72.7535 41.68L69.7505 42.582L71.8845 45.167L70.3775 46.223L68.6065 43.319L66.8025 46.278ZM76.4061 46.278L74.9211 45.244L77.0991 42.593L74.0191 41.735L74.6021 40.129L77.5281 41.361L77.2971 38.094H79.1231L78.8701 41.372L81.8401 40.074L82.3571 41.68L79.3541 42.582L81.4881 45.167L79.9811 46.223L78.2101 43.319L76.4061 46.278ZM86.0096 46.278L84.5246 45.244L86.7026 42.593L83.6226 41.735L84.2056 40.129L87.1316 41.361L86.9006 38.094H88.7266L88.4736 41.372L91.4436 40.074L91.9606 41.68L88.9576 42.582L91.0916 45.167L89.5846 46.223L87.8136 43.319L86.0096 46.278ZM95.6131 46.278L94.1281 45.244L96.3061 42.593L93.2261 41.735L93.8091 40.129L96.7351 41.361L96.5041 38.094H98.3301L98.0771 41.372L101.047 40.074L101.564 41.68L98.5611 42.582L100.695 45.167L99.1881 46.223L97.4171 43.319L95.6131 46.278ZM105.217 46.278L103.732 45.244L105.91 42.593L102.83 41.735L103.413 40.129L106.339 41.361L106.108 38.094H107.934L107.681 41.372L110.651 40.074L111.168 41.68L108.165 42.582L110.299 45.167L108.792 46.223L107.021 43.319L105.217 46.278Z" fill="#71717A"/>
<path d="M170.5 33.5L185.5 48.5" stroke="#18181B" stroke-width="1.5" stroke-linecap="round" stroke-linejoin="round"/>
<path d="M176.82 39.8225C176.169 40.4733 176.168 41.5288 176.819 42.18C177.47 42.8312 178.525 42.8316 179.177 42.1808" stroke="#18181B" stroke-width="1.5" stroke-linecap="round" stroke-linejoin="round"/>
<path d="M175.596 34.7498C175.198 34.8637 174.967 35.2789 175.081 35.6771C175.195 36.0754 175.611 36.3058 176.009 36.1919L175.596 34.7498ZM178 35.1667L177.997 35.9167H178V35.1667ZM186.333 41L186.984 41.3722C187.116 41.1416 187.116 40.8585 186.984 40.6279L186.333 41ZM183.697 43.3976C183.416 43.7018 183.434 44.1763 183.738 44.4574C184.043 44.7386 184.517 44.7199 184.798 44.4157L183.697 43.3976ZM182.883 46.0793C183.227 45.8477 183.318 45.3816 183.086 45.0381C182.854 44.6947 182.388 44.6041 182.045 44.8357L182.883 46.0793ZM169.667 41L169.015 40.6278C168.884 40.8584 168.884 41.1415 169.015 41.3721L169.667 41ZM173.948 37.1699C174.29 36.9373 174.38 36.471 174.147 36.1282C173.915 35.7854 173.448 35.696 173.106 35.9285L173.948 37.1699ZM176.009 36.1919C176.655 36.007 177.325 35.9143 177.997 35.9167L178.003 34.4167C177.189 34.4138 176.379 34.5259 175.596 34.7498L176.009 36.1919ZM178 35.9167C180.973 35.9167 183.541 37.6253 185.682 41.3721L186.984 40.6279C184.681 36.5964 181.693 34.4167 178 34.4167V35.9167ZM185.682 40.6278C185.057 41.7221 184.394 42.6432 183.697 43.3976L184.798 44.4157C185.586 43.5634 186.313 42.5462 186.984 41.3722L185.682 40.6278ZM182.045 44.8357C180.807 45.6702 179.466 46.0833 178 46.0833V47.5833C179.77 47.5833 181.403 47.0781 182.883 46.0793L182.045 44.8357ZM178 46.0833C175.027 46.0833 172.459 44.3747 170.318 40.6279L169.015 41.3721C171.319 45.4036 174.307 47.5833 178 47.5833V46.0833ZM170.318 41.3722C171.42 39.4446 172.636 38.0599 173.948 37.1699L173.106 35.9285C171.553 36.9818 170.195 38.5638 169.015 40.6278L170.318 41.3722Z" fill="#18181B"/>
<path d="M223 17L2.44379e-06 17" stroke="url(#paint0_linear_5515_7036)" stroke-opacity="0.4"/>
<path d="M223 65L2.44379e-06 65" stroke="url(#paint1_linear_5515_7036)" stroke-opacity="0.4"/>
<path d="M20 82L20 -1.69873e-06" stroke="url(#paint2_linear_5515_7036)" stroke-opacity="0.4"/>
<path d="M201 82L201 -1.69873e-06" stroke="url(#paint3_linear_5515_7036)" stroke-opacity="0.4"/>
</g>
<defs>
<linearGradient id="paint0_linear_5515_7036" x1="1.1921e-05" y1="16.5" x2="223" y2="16.5587" gradientUnits="userSpaceOnUse">
<stop stop-color="#76717F" stop-opacity="0"/>
<stop offset="0.245" stop-color="#71717A"/>
<stop offset="0.75" stop-color="#71717A"/>
<stop offset="1" stop-color="#76717F" stop-opacity="0"/>
</linearGradient>
<linearGradient id="paint1_linear_5515_7036" x1="1.1921e-05" y1="64.5" x2="223" y2="64.5587" gradientUnits="userSpaceOnUse">
<stop stop-color="#76717F" stop-opacity="0"/>
<stop offset="0.245" stop-color="#71717A"/>
<stop offset="0.75" stop-color="#71717A"/>
<stop offset="1" stop-color="#76717F" stop-opacity="0"/>
</linearGradient>
<linearGradient id="paint2_linear_5515_7036" x1="20.5" y1="4.35075e-06" x2="20.4921" y2="82" gradientUnits="userSpaceOnUse">
<stop stop-color="#76717F" stop-opacity="0"/>
<stop offset="0.245" stop-color="#71717A"/>
<stop offset="0.75" stop-color="#71717A"/>
<stop offset="1" stop-color="#76717F" stop-opacity="0"/>
</linearGradient>
<linearGradient id="paint3_linear_5515_7036" x1="201.5" y1="4.35075e-06" x2="201.492" y2="82" gradientUnits="userSpaceOnUse">
<stop stop-color="#76717F" stop-opacity="0"/>
<stop offset="0.245" stop-color="#71717A"/>
<stop offset="0.75" stop-color="#71717A"/>
<stop offset="1" stop-color="#76717F" stop-opacity="0"/>
</linearGradient>
<clipPath id="clip0_5515_7036">
<rect width="223" height="82" fill="white"/>
</clipPath>
</defs>
</svg>
