<svg width="244" height="182" viewBox="0 0 244 182" fill="none" xmlns="http://www.w3.org/2000/svg">
<g clip-path="url(#clip0_5593_346)">
<path d="M24.8318 182L24.8318 7.7486e-06" stroke="url(#paint0_linear_5593_346)" stroke-opacity="0.4"/>
<path d="M219.168 182L219.168 7.7486e-06" stroke="url(#paint1_linear_5593_346)" stroke-opacity="0.4"/>
<path d="M244 21L5.96046e-07 21" stroke="url(#paint2_linear_5593_346)" stroke-opacity="0.4"/>
<path d="M244 161L5.96046e-07 161" stroke="url(#paint3_linear_5593_346)" stroke-opacity="0.4"/>
<rect x="24.8318" y="21" width="194.336" height="140" rx="8" fill="#F4F4F5"/>
<path d="M51 123.354C55.0131 119.027 67.7659 112.968 86.6721 123.354C105.578 133.74 115.21 110.853 120.561 101.236C126.981 89.6962 137.505 80.0796 153.557 101.236C169.61 122.392 182.541 80.5605 187 57" stroke="#18181B" stroke-width="5" stroke-linecap="round"/>
<path d="M51 37L51 151" stroke="#E4E4E7" stroke-linecap="round"/>
<path d="M202 136H37" stroke="#E4E4E7" stroke-linecap="round"/>
<circle cx="189" cy="49" r="6.5" fill="#F4F4F5" stroke="#18181B" stroke-width="3"/>
</g>
<defs>
<linearGradient id="paint0_linear_5593_346" x1="25.3318" y1="9.75319e-06" x2="25.2927" y2="182" gradientUnits="userSpaceOnUse">
<stop stop-color="#76717F" stop-opacity="0"/>
<stop offset="0.245" stop-color="#71717A"/>
<stop offset="0.75" stop-color="#71717A"/>
<stop offset="1" stop-color="#76717F" stop-opacity="0"/>
</linearGradient>
<linearGradient id="paint1_linear_5593_346" x1="219.668" y1="9.75319e-06" x2="219.629" y2="182" gradientUnits="userSpaceOnUse">
<stop stop-color="#76717F" stop-opacity="0"/>
<stop offset="0.245" stop-color="#71717A"/>
<stop offset="0.75" stop-color="#71717A"/>
<stop offset="1" stop-color="#76717F" stop-opacity="0"/>
</linearGradient>
<linearGradient id="paint2_linear_5593_346" x1="1.30436e-05" y1="20.5" x2="244" y2="20.5702" gradientUnits="userSpaceOnUse">
<stop stop-color="#76717F" stop-opacity="0"/>
<stop offset="0.245" stop-color="#71717A"/>
<stop offset="0.75" stop-color="#71717A"/>
<stop offset="1" stop-color="#76717F" stop-opacity="0"/>
</linearGradient>
<linearGradient id="paint3_linear_5593_346" x1="1.30436e-05" y1="160.5" x2="244" y2="160.57" gradientUnits="userSpaceOnUse">
<stop stop-color="#76717F" stop-opacity="0"/>
<stop offset="0.245" stop-color="#71717A"/>
<stop offset="0.75" stop-color="#71717A"/>
<stop offset="1" stop-color="#76717F" stop-opacity="0"/>
</linearGradient>
<clipPath id="clip0_5593_346">
<rect width="244" height="182" fill="white"/>
</clipPath>
</defs>
</svg>
