<svg width="282" height="82" viewBox="0 0 282 82" fill="none" xmlns="http://www.w3.org/2000/svg">
<g clip-path="url(#clip0_5593_375)">
<rect x="18.5337" y="17" width="244.574" height="48" rx="8" fill="#F4F4F5"/>
<path d="M38.242 48V38.694H40.384V40.026C40.528 39.786 40.723 39.555 40.969 39.333C41.221 39.111 41.53 38.931 41.896 38.793C42.262 38.655 42.691 38.586 43.183 38.586C43.759 38.586 44.293 38.7 44.785 38.928C45.283 39.156 45.682 39.513 45.982 39.999C46.288 40.485 46.441 41.112 46.441 41.88V48H44.245V42.141C44.245 41.529 44.077 41.076 43.741 40.782C43.405 40.482 42.982 40.332 42.472 40.332C42.124 40.332 41.794 40.392 41.482 40.512C41.17 40.626 40.915 40.803 40.717 41.043C40.525 41.277 40.429 41.571 40.429 41.925V48H38.242ZM48.7889 50.898V38.694H50.9759L50.9939 40.161C51.1139 39.957 51.2669 39.756 51.4529 39.558C51.6449 39.36 51.8639 39.183 52.1099 39.027C52.3619 38.871 52.6409 38.748 52.9469 38.658C53.2529 38.562 53.5889 38.514 53.9549 38.514C54.6689 38.514 55.3019 38.685 55.8539 39.027C56.4059 39.363 56.8379 39.882 57.1499 40.584C57.4679 41.286 57.6269 42.174 57.6269 43.248C57.6269 44.346 57.4649 45.261 57.1409 45.993C56.8169 46.725 56.3639 47.274 55.7819 47.64C55.1999 48 54.5249 48.18 53.7569 48.18C53.4029 48.18 53.0789 48.132 52.7849 48.036C52.4969 47.94 52.2389 47.808 52.0109 47.64C51.7829 47.472 51.5819 47.289 51.4079 47.091C51.2399 46.893 51.0989 46.686 50.9849 46.47V50.898H48.7889ZM53.2709 46.542C53.9309 46.542 54.4769 46.281 54.9089 45.759C55.3409 45.231 55.5569 44.406 55.5569 43.284C55.5569 42.312 55.3529 41.547 54.9449 40.989C54.5429 40.425 53.9849 40.143 53.2709 40.143C52.5029 40.143 51.9269 40.44 51.5429 41.034C51.1589 41.622 50.9669 42.372 50.9669 43.284C50.9669 43.872 51.0509 44.415 51.2189 44.913C51.3929 45.405 51.6479 45.801 51.9839 46.101C52.3259 46.395 52.7549 46.542 53.2709 46.542ZM59.5643 48V38.694H61.6973V40.026C61.9673 39.618 62.3333 39.264 62.7953 38.964C63.2633 38.664 63.8573 38.514 64.5773 38.514C64.9073 38.514 65.2403 38.571 65.5763 38.685C65.9183 38.799 66.2333 38.967 66.5213 39.189C66.8153 39.411 67.0493 39.687 67.2233 40.017C67.5173 39.579 67.9073 39.219 68.3933 38.937C68.8853 38.655 69.4373 38.514 70.0493 38.514C70.3853 38.514 70.7303 38.568 71.0843 38.676C71.4443 38.784 71.7743 38.964 72.0743 39.216C72.3743 39.468 72.6173 39.813 72.8033 40.251C72.9893 40.683 73.0823 41.226 73.0823 41.88V48H70.8953V42.141C70.8953 41.679 70.8143 41.316 70.6523 41.052C70.4903 40.788 70.2803 40.602 70.0223 40.494C69.7703 40.38 69.5003 40.323 69.2123 40.323C68.9543 40.323 68.6843 40.374 68.4023 40.476C68.1263 40.578 67.8893 40.746 67.6913 40.98C67.4993 41.214 67.4033 41.529 67.4033 41.925V48H65.2163V41.79C65.2163 41.466 65.1323 41.196 64.9643 40.98C64.7963 40.764 64.5833 40.602 64.3253 40.494C64.0733 40.38 63.8153 40.323 63.5513 40.323C63.2813 40.323 63.0053 40.38 62.7233 40.494C62.4473 40.608 62.2163 40.782 62.0303 41.016C61.8443 41.25 61.7513 41.553 61.7513 41.925V48H59.5643ZM81.669 38.694V48H79.563V38.694H81.669ZM81.696 34.995V37.065H79.527V34.995H81.696ZM84.4022 48V38.694H86.5442V40.026C86.6882 39.786 86.8832 39.555 87.1292 39.333C87.3812 39.111 87.6902 38.931 88.0562 38.793C88.4222 38.655 88.8512 38.586 89.3432 38.586C89.9192 38.586 90.4532 38.7 90.9452 38.928C91.4432 39.156 91.8422 39.513 92.1422 39.999C92.4482 40.485 92.6012 41.112 92.6012 41.88V48H90.4052V42.141C90.4052 41.529 90.2372 41.076 89.9012 40.782C89.5652 40.482 89.1422 40.332 88.6322 40.332C88.2842 40.332 87.9542 40.392 87.6422 40.512C87.3302 40.626 87.0752 40.803 86.8772 41.043C86.6852 41.277 86.5892 41.571 86.5892 41.925V48H84.4022ZM98.3094 48.18C97.6614 48.18 97.0464 48.078 96.4644 47.874C95.8884 47.664 95.4024 47.337 95.0064 46.893C94.6164 46.449 94.3704 45.876 94.2684 45.174H96.1944C96.2784 45.516 96.4254 45.795 96.6354 46.011C96.8514 46.227 97.1064 46.386 97.4004 46.488C97.6944 46.584 97.9944 46.632 98.3004 46.632C98.8584 46.632 99.3084 46.536 99.6504 46.344C99.9984 46.152 100.172 45.855 100.172 45.453C100.172 45.159 100.076 44.925 99.8844 44.751C99.6924 44.577 99.3864 44.445 98.9664 44.355L97.1934 43.95C96.4074 43.776 95.7744 43.488 95.2944 43.086C94.8204 42.684 94.5804 42.117 94.5744 41.385C94.5684 40.833 94.7064 40.341 94.9884 39.909C95.2704 39.477 95.6904 39.138 96.2484 38.892C96.8064 38.64 97.4964 38.514 98.3184 38.514C99.4044 38.514 100.274 38.757 100.928 39.243C101.582 39.723 101.918 40.41 101.936 41.304H100.073C100.007 40.902 99.8184 40.59 99.5064 40.368C99.1944 40.14 98.7894 40.026 98.2914 40.026C97.7754 40.026 97.3524 40.125 97.0224 40.323C96.6924 40.521 96.5274 40.824 96.5274 41.232C96.5274 41.514 96.6534 41.736 96.9054 41.898C97.1574 42.06 97.5354 42.198 98.0394 42.312L99.7134 42.717C100.193 42.837 100.586 42.999 100.892 43.203C101.198 43.407 101.438 43.632 101.612 43.878C101.786 44.118 101.906 44.367 101.972 44.625C102.044 44.877 102.08 45.111 102.08 45.327C102.08 45.927 101.924 46.44 101.612 46.866C101.306 47.286 100.871 47.61 100.307 47.838C99.7434 48.066 99.0774 48.18 98.3094 48.18ZM109.223 40.242H107.144L107.153 45.579C107.153 45.855 107.183 46.059 107.243 46.191C107.309 46.317 107.411 46.401 107.549 46.443C107.693 46.479 107.885 46.497 108.125 46.497H109.268V47.883C109.148 47.931 108.965 47.973 108.719 48.009C108.479 48.051 108.155 48.072 107.747 48.072C107.009 48.072 106.436 47.976 106.028 47.784C105.626 47.586 105.347 47.307 105.191 46.947C105.035 46.587 104.957 46.158 104.957 45.66V40.242H103.445V38.694H105.02L105.569 35.931H107.144V38.685H109.223V40.242ZM113.951 48.18C113.357 48.18 112.823 48.072 112.349 47.856C111.881 47.634 111.512 47.319 111.242 46.911C110.978 46.497 110.846 45.996 110.846 45.408C110.846 44.382 111.215 43.608 111.953 43.086C112.697 42.564 113.882 42.291 115.508 42.267L116.894 42.231V41.601C116.894 41.109 116.747 40.725 116.453 40.449C116.165 40.167 115.715 40.029 115.103 40.035C114.653 40.041 114.239 40.149 113.861 40.359C113.489 40.563 113.243 40.908 113.123 41.394H111.26C111.296 40.758 111.479 40.227 111.809 39.801C112.145 39.369 112.604 39.048 113.186 38.838C113.768 38.622 114.44 38.514 115.202 38.514C116.09 38.514 116.813 38.631 117.371 38.865C117.929 39.099 118.34 39.438 118.604 39.882C118.868 40.32 119 40.851 119 41.475V48H117.155L116.984 46.326C116.648 47.028 116.222 47.514 115.706 47.784C115.196 48.048 114.611 48.18 113.951 48.18ZM114.662 46.695C114.932 46.695 115.199 46.647 115.463 46.551C115.727 46.449 115.967 46.314 116.183 46.146C116.399 45.972 116.57 45.78 116.696 45.57C116.828 45.36 116.894 45.141 116.894 44.913V43.446L115.751 43.464C115.187 43.47 114.695 43.53 114.275 43.644C113.855 43.758 113.525 43.941 113.285 44.193C113.051 44.439 112.934 44.769 112.934 45.183C112.934 45.657 113.099 46.029 113.429 46.299C113.759 46.563 114.17 46.695 114.662 46.695ZM124.244 48.135C123.644 48.135 123.164 48.06 122.804 47.91C122.444 47.76 122.174 47.559 121.994 47.307C121.814 47.055 121.697 46.773 121.643 46.461C121.589 46.143 121.562 45.819 121.562 45.489V34.626H123.704V45.237C123.704 45.639 123.785 45.951 123.947 46.173C124.115 46.395 124.385 46.524 124.757 46.56L125.225 46.578V47.955C125.063 48.003 124.898 48.045 124.73 48.081C124.562 48.117 124.4 48.135 124.244 48.135ZM129.606 48.135C129.006 48.135 128.526 48.06 128.166 47.91C127.806 47.76 127.536 47.559 127.356 47.307C127.176 47.055 127.059 46.773 127.005 46.461C126.951 46.143 126.924 45.819 126.924 45.489V34.626H129.066V45.237C129.066 45.639 129.147 45.951 129.309 46.173C129.477 46.395 129.747 46.524 130.119 46.56L130.587 46.578V47.955C130.425 48.003 130.26 48.045 130.092 48.081C129.924 48.117 129.762 48.135 129.606 48.135ZM142.002 38.694V40.242H139.905V48H137.718V40.242H135.882V38.694H137.718V37.308C137.718 36.564 137.922 35.991 138.33 35.589C138.744 35.187 139.341 34.986 140.121 34.986H142.083L142.092 36.48H140.796C140.442 36.48 140.199 36.573 140.067 36.759C139.935 36.939 139.869 37.224 139.869 37.614V38.694H142.002ZM146.463 48.135C145.863 48.135 145.383 48.06 145.023 47.91C144.663 47.76 144.393 47.559 144.213 47.307C144.033 47.055 143.916 46.773 143.862 46.461C143.808 46.143 143.781 45.819 143.781 45.489V34.626H145.923V45.237C145.923 45.639 146.004 45.951 146.166 46.173C146.334 46.395 146.604 46.524 146.976 46.56L147.444 46.578V47.955C147.282 48.003 147.117 48.045 146.949 48.081C146.781 48.117 146.619 48.135 146.463 48.135ZM150.19 50.97C149.596 50.97 149.179 50.922 148.939 50.826C148.705 50.736 148.588 50.691 148.588 50.691V49.287L149.524 49.314C149.902 49.332 150.208 49.311 150.442 49.251C150.682 49.191 150.868 49.107 151 48.999C151.132 48.897 151.228 48.786 151.288 48.666C151.354 48.552 151.405 48.453 151.441 48.369L151.684 47.685L148.057 38.694H150.244L152.71 45.273L155.176 38.694H157.318L153.484 48.342C153.196 49.044 152.884 49.584 152.548 49.962C152.218 50.346 151.855 50.61 151.459 50.754C151.069 50.898 150.646 50.97 150.19 50.97ZM162.373 48.18C161.485 48.18 160.711 47.991 160.051 47.613C159.391 47.229 158.878 46.68 158.512 45.966C158.152 45.252 157.972 44.394 157.972 43.392C157.972 42.42 158.146 41.568 158.494 40.836C158.848 40.104 159.355 39.534 160.015 39.126C160.675 38.718 161.464 38.514 162.382 38.514C163.27 38.514 164.041 38.709 164.695 39.099C165.349 39.489 165.853 40.047 166.207 40.773C166.567 41.499 166.747 42.372 166.747 43.392C166.747 44.334 166.576 45.165 166.234 45.885C165.898 46.599 165.403 47.16 164.749 47.568C164.101 47.976 163.309 48.18 162.373 48.18ZM162.382 46.515C162.886 46.515 163.3 46.377 163.624 46.101C163.954 45.825 164.197 45.447 164.353 44.967C164.515 44.487 164.596 43.941 164.596 43.329C164.596 42.759 164.524 42.234 164.38 41.754C164.242 41.274 164.008 40.89 163.678 40.602C163.354 40.308 162.922 40.161 162.382 40.161C161.872 40.161 161.449 40.296 161.113 40.566C160.783 40.83 160.534 41.202 160.366 41.682C160.204 42.156 160.123 42.705 160.123 43.329C160.123 43.893 160.195 44.418 160.339 44.904C160.489 45.384 160.729 45.774 161.059 46.074C161.389 46.368 161.83 46.515 162.382 46.515ZM168.689 48V38.694H170.831V40.026C170.975 39.786 171.17 39.555 171.416 39.333C171.668 39.111 171.977 38.931 172.343 38.793C172.709 38.655 173.138 38.586 173.63 38.586C174.206 38.586 174.74 38.7 175.232 38.928C175.73 39.156 176.129 39.513 176.429 39.999C176.735 40.485 176.888 41.112 176.888 41.88V48H174.692V42.141C174.692 41.529 174.524 41.076 174.188 40.782C173.852 40.482 173.429 40.332 172.919 40.332C172.571 40.332 172.241 40.392 171.929 40.512C171.617 40.626 171.362 40.803 171.164 41.043C170.972 41.277 170.876 41.571 170.876 41.925V48H168.689ZM182.516 48.18C182.06 48.18 181.619 48.114 181.193 47.982C180.773 47.844 180.395 47.646 180.059 47.388C179.723 47.124 179.456 46.8 179.258 46.416C179.06 46.032 178.961 45.585 178.961 45.075V38.694H181.157V44.823C181.157 45.327 181.316 45.741 181.634 46.065C181.958 46.389 182.444 46.551 183.092 46.551C183.68 46.551 184.151 46.398 184.505 46.092C184.859 45.78 185.036 45.333 185.036 44.751V38.694H187.214V48H185.531L185.288 46.182C185.174 46.692 184.973 47.094 184.685 47.388C184.403 47.676 184.07 47.88 183.686 48C183.308 48.12 182.918 48.18 182.516 48.18ZM191.901 38.694V48H189.795V38.694H191.901ZM191.928 34.995V37.065H189.759V34.995H191.928Z" fill="#474857" fill-opacity="0.3"/>
<path d="M231.5 35.1667H229.833C228.913 35.1667 228.167 35.9129 228.167 36.8334V46.8334C228.167 47.7539 228.913 48.5001 229.833 48.5001H238.167C239.087 48.5001 239.833 47.7539 239.833 46.8334V36.8334C239.833 35.9129 239.087 35.1667 238.167 35.1667H236.5" stroke="#18181B" stroke-width="1.5" stroke-linecap="round" stroke-linejoin="round"/>
<rect x="231.5" y="33.5" width="5" height="3.33333" rx="1.66667" stroke="#18181B" stroke-width="1.5" stroke-linecap="round" stroke-linejoin="round"/>
<path d="M282 17L-1.00001 17" stroke="url(#paint0_linear_5593_375)" stroke-opacity="0.4"/>
<path d="M282 65L-1.00001 65" stroke="url(#paint1_linear_5593_375)" stroke-opacity="0.4"/>
<path d="M18.1748 82L18.1748 -1.69873e-06" stroke="url(#paint2_linear_5593_375)" stroke-opacity="0.4"/>
<path d="M263.108 82L263.108 -1.69873e-06" stroke="url(#paint3_linear_5593_375)" stroke-opacity="0.4"/>
</g>
<defs>
<linearGradient id="paint0_linear_5593_375" x1="-0.999985" y1="16.5" x2="282" y2="16.5945" gradientUnits="userSpaceOnUse">
<stop stop-color="#76717F" stop-opacity="0"/>
<stop offset="0.245" stop-color="#71717A"/>
<stop offset="0.75" stop-color="#71717A"/>
<stop offset="1" stop-color="#76717F" stop-opacity="0"/>
</linearGradient>
<linearGradient id="paint1_linear_5593_375" x1="-0.999985" y1="64.5" x2="282" y2="64.5945" gradientUnits="userSpaceOnUse">
<stop stop-color="#76717F" stop-opacity="0"/>
<stop offset="0.245" stop-color="#71717A"/>
<stop offset="0.75" stop-color="#71717A"/>
<stop offset="1" stop-color="#76717F" stop-opacity="0"/>
</linearGradient>
<linearGradient id="paint2_linear_5593_375" x1="18.6748" y1="4.35075e-06" x2="18.6669" y2="82" gradientUnits="userSpaceOnUse">
<stop stop-color="#76717F" stop-opacity="0"/>
<stop offset="0.245" stop-color="#71717A"/>
<stop offset="0.75" stop-color="#71717A"/>
<stop offset="1" stop-color="#76717F" stop-opacity="0"/>
</linearGradient>
<linearGradient id="paint3_linear_5593_375" x1="263.608" y1="4.35075e-06" x2="263.6" y2="82" gradientUnits="userSpaceOnUse">
<stop stop-color="#76717F" stop-opacity="0"/>
<stop offset="0.245" stop-color="#71717A"/>
<stop offset="0.75" stop-color="#71717A"/>
<stop offset="1" stop-color="#76717F" stop-opacity="0"/>
</linearGradient>
<clipPath id="clip0_5593_375">
<rect width="282" height="82" fill="white"/>
</clipPath>
</defs>
</svg>
