<svg width="218" height="166" viewBox="0 0 218 166" fill="none" xmlns="http://www.w3.org/2000/svg">
<g clip-path="url(#clip0_5593_414)">
<rect x="19" y="23" width="180" height="120" rx="8" fill="#F4F4F5"/>
<path d="M141.116 91.8209C141.027 91.3473 140.938 90.8737 140.85 90.3705C140.731 89.8081 140.642 89.2457 140.524 88.6833C140.376 87.7657 139.754 87.4401 139.281 87.3217C138.6 87.1441 137.89 86.9665 137.061 86.7297C137.002 86.5225 136.942 86.3153 136.883 86.0785C136.824 85.8713 136.794 85.6641 136.735 85.4569C137.002 85.0721 137.268 84.7169 137.505 84.3321L137.86 83.8289C138.186 83.3553 138.245 82.7929 137.978 82.2897C137.712 81.7865 137.238 81.5201 136.676 81.5201C136.587 81.5201 136.498 81.5201 136.41 81.5201L128.388 81.6681C128.329 81.0465 128.299 80.4545 128.24 79.8329V79.8033C128.21 79.1521 128.151 78.4417 127.737 77.7609C127.944 77.6425 128.181 77.4649 128.299 77.1985C128.506 76.7249 128.832 75.9257 128.506 75.0377C128.122 74.0313 127.707 72.9953 127.293 71.9593C127.174 71.6633 127.145 71.5449 127.174 71.4265C127.234 71.1897 127.263 70.9529 127.263 70.7457C127.263 70.6865 127.263 70.6273 127.263 70.5977C127.322 70.0353 127.056 69.5025 126.582 69.2065L125.339 68.4369C124.57 67.9633 123.8 67.4897 123.06 67.0161C122.764 66.8385 122.409 66.7497 122.083 66.8089C121.077 66.9569 120.07 67.0753 119.153 67.2529C119.064 67.2529 119.034 67.2529 118.975 67.2233C116.459 65.6841 113.943 64.1745 111.575 62.7537C111.368 62.6353 111.072 62.4577 110.717 62.4281C110.036 62.3393 109.355 62.2505 108.674 62.1617C108.201 62.1025 107.727 62.0433 107.254 61.9841C105.862 60.5337 104.412 58.9353 102.932 57.3665C102.932 55.0873 102.932 52.8377 102.932 50.5585V48.7825C102.932 47.7761 102.34 47.1841 101.334 47.1841H100.978C100.416 47.1841 99.8536 47.1841 99.2912 47.1841C99.0248 47.1841 98.7584 47.2137 98.5216 47.3025C97.308 47.6577 96.3608 47.9537 95.5024 48.2201C95.236 48.3089 94.9696 48.4569 94.7032 48.6345C94.4664 48.8121 94.2592 48.9897 94.052 49.1969C93.9336 49.2857 93.8448 49.3745 93.7264 49.4633C93.6376 49.5521 93.5488 49.6113 93.46 49.7001C93.0456 50.0849 92.6608 50.3809 92.2168 50.5289C91.536 50.7361 90.944 51.1209 90.4112 51.7425C90.3224 51.8313 90.2632 51.9201 90.1744 52.0089C90.0264 52.1569 89.8488 52.4233 89.7304 52.4529C89.612 52.5121 89.2568 52.4825 89.02 52.4529C88.9312 52.4529 88.8424 52.4233 88.7536 52.4233C88.0432 52.3641 87.4216 52.6009 86.948 53.1041C86.504 53.6073 85.9416 53.9329 85.2608 54.1105C85.1128 54.0217 84.9648 53.9921 84.876 53.9625C83.6032 53.6369 82.3304 53.2817 81.028 52.9561C80.6136 52.8377 80.1696 52.9265 79.8144 53.1633C79.4888 53.4001 79.252 53.7553 79.2224 54.1697C79.1928 54.4657 79.252 54.7617 79.4 55.1169C80.6136 57.7217 81.8568 60.2969 83.0704 62.9017C82.8632 63.2273 82.6856 63.5233 82.5376 63.8193C82.3896 64.1153 82.2712 64.4409 82.2416 64.7665C82.1824 65.2697 82.1232 65.7433 82.064 66.2465C82.0048 66.8385 81.9456 67.4009 81.8568 67.9929C81.768 68.7625 81.7088 69.5617 82.1232 70.4201C82.2712 70.7161 82.3896 71.0713 82.5376 71.4265C82.5968 71.5745 82.656 71.7225 82.6856 71.8705C82.3304 72.2553 81.9456 72.6401 81.5904 73.0249C81.2352 73.4097 80.88 73.7945 80.4952 74.1793C80.0216 74.6825 79.9032 75.3041 80.1696 75.9257C80.1696 75.9553 80.1992 75.9553 80.1992 75.9849C80.1104 75.9849 79.992 75.9553 79.9032 75.9553H78.3344C77.5056 75.9553 76.8248 76.6361 76.8248 77.4649V77.7609C76.8248 78.1457 76.9432 78.5009 77.1504 78.7969L77.2392 78.9153L77.1208 79.0337C76.9432 79.2113 76.8544 79.4185 76.8544 79.6553C76.8544 80.1881 77.0912 80.7209 77.476 81.0761C77.8312 81.4017 78.3048 81.6089 78.7784 81.6089L79.3704 81.7569L79.4296 82.1713C79.4592 83.1185 80.6432 83.8585 80.6432 83.8585L81.2352 84.2137C81.2648 84.2433 81.324 84.2433 81.3536 84.2729L81.6496 84.3913C81.028 85.1905 80.4064 85.9601 79.7848 86.7593C79.4888 87.1441 79.2224 87.7361 79.6072 88.5353C80.0512 89.4529 80.4952 90.4001 80.9392 91.3177L81.1168 91.6729C81.176 91.7617 81.2056 91.8505 81.2056 91.9393C81.324 92.5313 81.472 93.1233 81.5904 93.7153C81.8272 94.7513 82.064 95.7873 82.3008 96.8233C82.3896 97.2377 82.6264 97.5337 82.7744 97.6817C83.0704 97.9777 83.3664 98.2737 83.6624 98.5697L84.4912 99.3689L84.2544 99.6353C83.6032 100.375 83.7808 101.056 84.136 101.5L84.1656 101.53C84.136 101.559 84.136 101.589 84.0768 101.648C83.988 101.766 83.9288 101.885 83.8992 101.944V101.974C83.5144 102.506 83.4552 103.098 83.692 103.779L83.8104 104.075C84.0176 104.608 84.1952 105.111 84.2544 105.614C84.3728 106.414 84.6688 107.154 85.172 107.923C85.7936 108.841 86.356 109.758 86.5632 110.824C86.6224 111.12 86.7112 111.416 86.8 111.682C86.8296 111.801 86.8888 111.949 86.9184 112.067C86.9776 112.274 87.0368 112.482 87.096 112.718C87.244 113.222 87.392 113.695 87.4808 114.169C87.5992 114.879 87.7176 115.649 87.8064 116.359C87.8656 116.744 87.8952 117.129 87.9544 117.514C88.0136 118.017 88.28 118.431 88.6648 118.638C88.872 118.757 89.1384 118.846 89.3752 118.846C89.5824 118.846 89.7896 118.816 89.9968 118.727C90.9736 118.372 92.0096 117.987 93.016 117.602C93.2824 117.514 93.5488 117.336 93.756 117.129C94.0816 116.803 94.4072 116.478 94.7328 116.182C95.0288 115.886 95.3248 115.59 95.6208 115.323C96.124 115.175 96.5976 114.998 97.1008 114.85L97.6928 114.672C98.2552 114.494 98.6104 114.258 98.8176 113.902C98.9656 114.021 99.1136 114.11 99.2616 114.228C99.4688 114.376 99.7648 114.583 100.12 114.613C100.505 114.672 100.919 114.702 101.304 114.702L101.63 114.731C102.518 114.79 103.406 114.85 104.264 114.909C104.619 115.382 104.974 115.856 105.33 116.33C105.537 116.596 105.744 116.862 105.951 117.129C106.099 117.336 106.573 117.958 107.431 117.81C108.26 117.662 108.526 116.981 108.615 116.774L108.97 115.886C109.178 115.382 109.355 114.879 109.533 114.376C110.036 114.435 110.51 114.465 111.013 114.524C111.546 114.583 112.108 114.613 112.641 114.672L112.878 114.702C113.351 114.731 113.766 114.79 114.121 114.938C114.565 115.146 114.979 115.175 115.364 115.057C115.749 114.909 116.045 114.583 116.252 114.11C116.992 112.304 117.732 110.498 118.472 108.663C118.561 108.426 118.62 108.16 118.65 107.923C118.679 107.598 118.679 107.302 118.709 106.976C118.709 106.739 118.738 106.502 118.768 106.236C118.768 106.088 118.768 105.97 118.768 105.822C118.768 105.674 118.768 105.407 118.798 105.348C119.33 104.223 119.922 103.069 120.514 101.974C120.633 101.737 120.751 101.53 120.87 101.293C121.402 101.234 121.935 101.145 122.468 101.086L123.8 100.908C124.629 100.819 125.458 100.701 126.286 100.612L126.494 100.582C127.293 100.494 128.151 100.405 128.95 100.346C129.572 100.316 130.223 100.316 130.874 100.346H131.437C131.496 100.346 131.585 100.346 131.614 100.375C132.71 100.79 133.805 101.204 134.87 101.618L134.959 101.648C135.048 101.678 135.166 101.707 135.255 101.737C135.255 101.855 135.255 101.974 135.255 102.062C135.255 102.714 135.61 103.246 136.232 103.483L136.439 103.572C136.794 103.72 137.179 103.868 137.564 103.986C138.038 104.134 138.511 104.075 138.896 103.779C139.281 103.483 139.488 103.039 139.458 102.566C139.458 102.418 139.429 102.27 139.429 102.122C139.429 102.003 139.399 101.885 139.399 101.796C139.399 101.648 139.37 101.5 139.37 101.352C139.34 101.086 139.31 100.849 139.34 100.701C139.725 99.0433 140.139 97.3561 140.524 95.7281C140.761 94.7513 140.998 93.8041 141.234 92.8273C141.175 92.5313 141.175 92.1761 141.116 91.8209ZM137.475 100.286C137.386 100.73 137.416 101.145 137.446 101.53C137.446 101.648 137.475 101.766 137.475 101.885C137.475 101.974 137.475 102.062 137.505 102.181C137.298 102.122 137.12 102.033 136.913 101.944H136.883C136.883 101.914 136.883 101.885 136.883 101.855C136.913 101.559 136.942 101.086 136.646 100.701C136.35 100.316 135.906 100.168 135.61 100.079C135.551 100.05 135.492 100.05 135.433 100.02L135.344 99.9905C134.249 99.5761 133.154 99.1617 132.058 98.7473C131.822 98.6585 131.526 98.5993 131.259 98.5993H130.697C130.046 98.5993 129.335 98.5697 128.654 98.5993C127.796 98.6289 126.908 98.7473 126.079 98.8361L125.872 98.8657C125.043 98.9545 124.214 99.0729 123.386 99.1617L122.054 99.3393C121.402 99.4281 120.751 99.4873 120.13 99.5761C119.774 99.6353 119.449 99.8721 119.271 100.198C119.123 100.523 118.946 100.819 118.768 101.145C118.235 102.151 117.702 103.187 117.199 104.253L110.421 104.046L109.474 98.8953C109.474 98.8361 109.444 98.8065 109.414 98.7769L108.26 97.3561L106.425 95.4025C106.425 95.3729 106.425 95.3729 106.454 95.3433C106.454 95.3137 106.484 95.2545 106.484 95.2249C106.514 95.1657 106.514 95.1361 106.514 95.0769C106.514 95.0473 106.543 94.9881 106.543 94.9585C106.543 94.8993 106.573 94.8697 106.573 94.8105C106.573 94.7809 106.573 94.7217 106.602 94.6921C106.602 94.6329 106.602 94.6033 106.632 94.5737C106.632 94.5441 106.632 94.5145 106.632 94.4553C106.632 94.4257 106.632 94.3665 106.632 94.3369C106.632 94.3073 106.632 94.2777 106.632 94.2481C106.632 94.2185 106.632 94.1593 106.602 94.1297C106.602 94.1001 106.602 94.0705 106.602 94.0409C106.602 93.9817 106.573 93.9521 106.573 93.9225C106.573 93.8929 106.573 93.8929 106.543 93.8633C106.514 93.8041 106.484 93.7449 106.454 93.6857C106.336 93.4489 106.099 93.2121 105.833 92.9457C105.389 92.5017 104.856 91.9985 104.856 91.3769C104.856 90.9625 105.093 90.5185 105.596 90.0153C106.099 89.5417 106.425 88.9793 106.543 88.3577C106.691 87.6177 106.395 86.8777 105.774 86.4337C104.767 85.7233 104.234 85.0721 104.412 84.6873C104.442 84.6281 104.442 84.5985 104.471 84.5393C104.471 84.5097 104.471 84.5097 104.501 84.4801C104.501 84.4505 104.53 84.3913 104.53 84.3617C104.53 84.3321 104.53 84.3025 104.56 84.2729C104.56 84.2433 104.59 84.1841 104.59 84.1545C104.59 84.1249 104.59 84.0953 104.59 84.0657C104.59 84.0065 104.619 83.9769 104.619 83.9177C104.619 83.8881 104.619 83.8585 104.619 83.8289C104.619 83.7697 104.619 83.7401 104.649 83.6809C104.649 83.6513 104.649 83.6217 104.649 83.5625C104.649 83.5033 104.649 83.4441 104.649 83.4145C104.649 83.3849 104.649 83.3257 104.649 83.2961C104.649 83.2369 104.649 83.1777 104.649 83.1185C104.649 83.0889 104.649 83.0297 104.649 83.0001C104.649 82.9409 104.649 82.8817 104.649 82.8225C104.649 82.7929 104.649 82.7337 104.649 82.7041C104.649 82.6449 104.649 82.5857 104.649 82.5265C104.649 82.4969 104.649 82.4377 104.649 82.4081C104.649 82.3489 104.649 82.2601 104.649 82.2009C104.649 82.1713 104.649 82.1417 104.649 82.0825C104.649 82.0233 104.649 81.9345 104.649 81.8753C104.649 81.8457 104.649 81.8161 104.649 81.7569C104.649 81.6977 104.649 81.6089 104.649 81.5497C104.649 81.5201 104.649 81.4905 104.649 81.4609C104.649 81.3721 104.649 81.2833 104.649 81.2241C104.649 81.1945 104.649 81.1649 104.649 81.1649C104.649 81.0761 104.649 80.9873 104.649 80.8985V80.8689C104.649 80.7505 104.649 80.6617 104.649 80.5433L111.309 80.6617C111.427 80.6617 111.516 80.6025 111.575 80.4841C111.634 80.3657 111.605 80.2473 111.546 80.1585C110.184 78.5009 108.704 76.4881 108.704 76.1033C108.734 75.6001 108.586 74.8305 108.497 74.4161L109.77 74.1201C109.799 74.1201 109.829 74.1201 109.829 74.0905L113.292 72.2553L118.65 68.9993C118.886 69.0585 119.153 69.0585 119.419 69.0289C120.307 68.8809 121.254 68.7625 122.202 68.6145C122.942 69.0585 123.682 69.5321 124.392 69.9761L125.458 70.6273C125.458 70.7753 125.428 70.8937 125.428 70.9825C125.25 71.6929 125.487 72.3145 125.606 72.6401C126.02 73.6465 126.405 74.6825 126.79 75.6889C126.849 75.8073 126.819 75.9849 126.73 76.2513C126.671 76.2513 126.612 76.2513 126.523 76.2513C126.434 76.2513 126.346 76.2513 126.257 76.2513C125.931 76.2513 125.635 76.4289 125.487 76.6953C125.339 76.9617 125.339 77.3169 125.487 77.5833C125.546 77.6721 125.606 77.7905 125.635 77.8793C125.754 78.1161 125.902 78.3529 126.079 78.5897C126.316 78.9153 126.375 79.3297 126.405 79.9809V80.0105C126.434 80.6321 126.494 81.2537 126.553 81.8753L126.612 82.7041C126.642 83.1777 127.026 83.5329 127.5 83.5329H127.618C127.707 83.5329 127.766 83.5329 127.855 83.5329L136.025 83.3849V83.4145C135.758 83.8289 135.462 84.2137 135.196 84.6281C134.93 85.0129 134.841 85.4273 134.959 85.8713C135.018 86.1081 135.078 86.3449 135.137 86.5817C135.226 86.9073 135.314 87.2329 135.403 87.5585C135.522 87.9433 135.877 88.2985 136.262 88.4169C137.209 88.6833 138.008 88.8905 138.778 89.0977C138.866 89.6601 138.985 90.2225 139.103 90.7553C139.192 91.2289 139.281 91.7025 139.37 92.1761C139.399 92.3241 139.399 92.4129 139.37 92.4721C139.133 93.4489 138.896 94.3961 138.659 95.3729C138.274 96.9417 137.86 98.6289 137.475 100.286ZM114.506 113.222C113.943 112.985 113.381 112.955 112.878 112.896L112.67 112.866C112.138 112.807 111.575 112.778 111.042 112.718C110.421 112.659 109.77 112.6 109.148 112.541C108.556 112.482 108.112 112.778 107.905 113.31C107.668 113.932 107.431 114.583 107.194 115.205L107.017 115.678C106.898 115.53 106.78 115.353 106.662 115.205C106.277 114.702 105.892 114.198 105.537 113.695C105.27 113.31 104.886 113.103 104.442 113.074C103.731 113.044 103.05 112.985 102.34 112.926C102.34 112.896 102.31 112.837 102.31 112.807V112.778C102.281 112.718 102.281 112.659 102.251 112.63C102.251 112.6 102.251 112.6 102.222 112.57C102.192 112.511 102.162 112.452 102.133 112.363V112.334C102.103 112.274 102.074 112.215 102.074 112.156C102.074 112.126 102.044 112.126 102.044 112.097C102.014 112.038 101.985 111.978 101.955 111.919C101.985 111.83 101.985 111.742 102.014 111.653C102.014 111.623 102.014 111.594 102.044 111.564C102.074 111.475 102.074 111.386 102.103 111.327C102.103 111.298 102.103 111.268 102.103 111.268C102.31 110.054 102.488 108.486 102.577 107.775L103.879 108.278C103.998 108.338 104.116 108.278 104.205 108.19L104.767 107.509L106.898 108.545C106.987 108.574 107.076 108.574 107.165 108.545C107.254 108.515 107.313 108.426 107.342 108.367L107.638 107.272L113.588 107.834H113.618L116.785 107.805C116.785 107.834 116.755 107.894 116.755 107.923C115.926 109.729 115.216 111.475 114.506 113.222ZM101.63 112.896C101.63 112.926 101.63 112.926 101.63 112.896C101.63 112.926 101.6 112.926 101.6 112.926L101.245 112.896C100.89 112.866 100.564 112.866 100.238 112.807C100.209 112.807 100.209 112.778 100.15 112.748C99.7352 112.452 99.3504 112.156 98.936 111.83L98.4328 111.446C98.1664 111.238 97.7816 111.209 97.456 111.386C97.16 111.564 96.9824 111.89 97.012 112.245L97.0416 112.482C97.0416 112.63 97.0712 112.778 97.0712 112.896C97.0712 112.926 97.0712 112.926 97.0712 112.926H97.0416L96.4496 113.103C95.9464 113.251 95.4432 113.429 94.94 113.577C94.6736 113.666 94.4368 113.814 94.2296 113.991C93.9336 114.287 93.6376 114.583 93.3416 114.879C93.016 115.205 92.72 115.501 92.3944 115.826C92.3352 115.886 92.276 115.915 92.2464 115.915C91.3584 116.27 90.4408 116.596 89.5528 116.922C89.5232 116.655 89.4936 116.389 89.4344 116.093C89.3456 115.353 89.2568 114.583 89.1088 113.814C89.02 113.251 88.8424 112.689 88.6944 112.186C88.6352 111.978 88.576 111.771 88.5168 111.564C88.4872 111.416 88.428 111.268 88.3688 111.12C88.3096 110.883 88.2208 110.676 88.1912 110.469C87.9248 109.078 87.2144 107.953 86.5336 106.917C86.1784 106.384 85.9712 105.91 85.912 105.378C85.8232 104.697 85.5864 104.075 85.3792 103.483L85.2608 103.187C85.2312 103.069 85.2312 103.039 85.2312 103.039C85.2312 103.039 85.2312 103.039 85.2608 103.01C85.3496 102.891 85.3792 102.802 85.4088 102.743V102.714C86.06 101.855 85.912 101.145 85.6456 100.671L85.8824 100.405L88.4576 101.263C88.576 101.293 88.6944 101.322 88.8128 101.352C88.8424 101.352 88.872 101.352 88.9016 101.352C89.02 101.382 89.1384 101.382 89.2568 101.382C89.2568 101.382 89.2568 101.382 89.2864 101.382C89.316 101.382 89.3456 101.382 89.3752 101.382C89.4344 101.382 89.5232 101.382 89.5824 101.382C89.612 101.382 89.6712 101.382 89.7008 101.382C89.76 101.382 89.8192 101.352 89.8784 101.352C89.908 101.352 89.9376 101.322 89.9968 101.322C90.056 101.293 90.1152 101.293 90.204 101.263C90.2336 101.263 90.2632 101.234 90.2928 101.234C90.3816 101.204 90.4704 101.145 90.5592 101.115L95.976 98.4217L97.752 98.2737C97.8408 98.2737 97.9296 98.2145 97.9592 98.1553C97.9888 98.0961 98.0184 97.9777 97.9888 97.9185C97.8704 97.5041 97.2488 95.4321 96.3312 95.1953C96.3016 95.1953 96.2424 95.1657 96.1832 95.1657C95.4728 94.8993 94.4368 94.0409 94.4664 93.4489C94.4664 93.4193 94.4664 93.3601 94.496 93.3305V93.3009C94.496 93.2713 94.5256 93.2417 94.5256 93.1825C94.5256 93.1825 94.5256 93.1529 94.5552 93.1529C94.5848 93.0937 94.5848 93.0641 94.6144 93.0049C94.6144 92.9753 94.644 92.9753 94.644 92.9457C94.6736 92.9161 94.6736 92.8865 94.7032 92.8273C94.7328 92.7977 94.7328 92.7681 94.7624 92.7385C94.792 92.7089 94.792 92.6793 94.8216 92.6497C94.8512 92.6201 94.8808 92.5609 94.9104 92.5313C94.94 92.5017 94.9696 92.4425 94.9992 92.4129C95.0288 92.3833 95.0288 92.3833 95.0584 92.3537C95.1768 92.2057 95.2952 92.0577 95.4136 91.9097C95.5912 91.7321 95.7392 91.5841 95.7984 91.4953C95.8872 91.4657 95.976 91.4361 96.0648 91.4065C96.8344 91.1697 97.5744 91.0513 97.752 91.1401C97.9 91.3177 98.2256 91.5545 98.7288 91.9097C98.9064 92.0577 99.1136 92.2057 99.3208 92.3537L99.3504 92.3833C99.4096 92.4129 99.4392 92.4721 99.4984 92.5017C99.528 92.5313 99.5576 92.5313 99.5576 92.5609C99.5872 92.5905 99.6464 92.6201 99.676 92.6497C99.7056 92.6793 99.7352 92.7089 99.7648 92.7089C99.7944 92.7385 99.824 92.7681 99.8536 92.7977C99.8832 92.8273 99.9128 92.8569 99.9424 92.8865C99.972 92.9161 100.002 92.9457 100.031 92.9457C100.061 92.9753 100.09 93.0049 100.12 93.0345C100.15 93.0641 100.15 93.0641 100.179 93.0937C100.209 93.1233 100.209 93.1233 100.209 93.1529C100.179 93.1529 100.179 93.1529 100.15 93.1529C100.12 93.1529 100.09 93.1529 100.061 93.1529C100.002 93.1529 99.9424 93.1529 99.8832 93.1529C99.8536 93.1529 99.824 93.1529 99.824 93.1529C99.7648 93.1529 99.7352 93.1529 99.7056 93.1825C99.676 93.1825 99.6464 93.2121 99.5872 93.2121C99.5576 93.2121 99.5576 93.2121 99.528 93.2417C99.4688 93.2713 99.4392 93.2713 99.38 93.3009C99.2912 93.3601 99.2616 93.4489 99.2616 93.5673C99.3208 94.2481 99.5576 94.8697 99.7352 95.4321C99.9424 96.0241 100.12 96.5273 100.061 96.8825C100.002 97.2081 100.15 97.5633 100.534 97.9185C101.245 98.5993 102.695 99.2209 103.287 99.1321C103.465 99.2505 103.761 99.9905 103.968 100.819C103.406 101.145 101.837 102.062 101.363 102.299C100.682 102.654 101.008 104.164 101.215 104.963C101.008 105.259 100.653 105.97 100.623 107.538C100.623 107.686 100.623 107.834 100.623 107.982C100.623 108.042 100.623 108.101 100.653 108.16C100.653 108.249 100.682 108.338 100.682 108.426C100.682 108.486 100.712 108.545 100.712 108.634C100.742 108.722 100.742 108.811 100.771 108.87C100.801 108.93 100.801 108.989 100.83 109.078C100.86 109.166 100.86 109.226 100.89 109.314C100.919 109.374 100.919 109.433 100.949 109.492C100.978 109.551 101.008 109.64 101.038 109.699C101.067 109.758 101.097 109.818 101.097 109.877C101.126 109.936 101.156 110.025 101.186 110.084C101.215 110.143 101.245 110.202 101.274 110.262C101.304 110.321 101.334 110.38 101.363 110.439C101.393 110.498 101.422 110.528 101.452 110.587C101.482 110.617 101.482 110.676 101.511 110.706C101.511 110.735 101.511 110.735 101.511 110.765C101.482 110.883 101.482 110.972 101.452 111.09C101.452 111.12 101.452 111.15 101.452 111.15C101.422 111.268 101.422 111.386 101.393 111.505V111.534C101.363 111.653 101.363 111.742 101.334 111.83C101.334 111.83 101.334 111.83 101.334 111.86C101.304 111.949 101.304 112.038 101.274 112.126C101.245 112.215 101.274 112.274 101.304 112.363C101.334 112.422 101.363 112.482 101.393 112.541C101.393 112.57 101.422 112.57 101.422 112.6C101.452 112.659 101.482 112.689 101.482 112.748C101.482 112.778 101.511 112.778 101.511 112.807C101.541 112.866 101.57 112.955 101.6 113.014C101.6 112.866 101.6 112.896 101.63 112.896ZM83.988 96.3793C83.7512 95.3433 83.5144 94.3369 83.2776 93.3009C83.1592 92.7977 83.0704 92.3241 82.952 91.8209C82.9816 91.8209 82.9816 91.8209 83.0112 91.7913C83.0704 91.7617 83.1 91.7617 83.1592 91.7321C83.1888 91.7321 83.2184 91.7025 83.248 91.7025C83.3072 91.6729 83.3368 91.6729 83.3664 91.6433C83.396 91.6433 83.4256 91.6137 83.4552 91.6137C83.4848 91.5841 83.544 91.5841 83.5736 91.5545C83.6032 91.5545 83.6328 91.5249 83.6624 91.5249C83.692 91.4953 83.7216 91.4953 83.7512 91.4657C83.7808 91.4657 83.8104 91.4361 83.8104 91.4361C83.84 91.4361 83.8696 91.4065 83.8992 91.4065C83.9288 91.4065 83.9288 91.3769 83.9584 91.3769C83.988 91.3769 84.0176 91.3473 84.0176 91.3473C84.0472 91.3473 84.0472 91.3177 84.0768 91.3177C84.1064 91.3177 84.1064 91.2881 84.136 91.2881C84.1656 91.2881 84.1656 91.2585 84.1656 91.2585C84.1952 91.2585 84.1952 91.2289 84.1952 91.2289L84.2248 91.1993L84.2544 91.1697C84.2544 91.1697 84.284 91.1697 84.284 91.1401C84.284 91.1401 84.3136 91.1401 84.3136 91.1105C84.3136 91.1105 84.3432 91.1105 84.3432 91.0809C84.3432 91.0809 84.3432 91.0809 84.3728 91.0513C84.3728 91.0513 84.3728 91.0513 84.4024 91.0217C84.4024 91.0217 84.4024 91.0217 84.432 91.0217C84.432 91.0217 84.432 90.9921 84.4616 90.9921C84.9056 90.4889 86.1784 89.4529 88.5464 90.4889C88.576 90.5185 88.6352 90.5185 88.6648 90.5185C88.6944 90.5185 88.6944 90.5185 88.724 90.5481C88.7536 90.5481 88.8128 90.5481 88.8424 90.5481H88.872C88.9312 90.5481 88.9608 90.5185 89.02 90.5185C89.02 90.5185 89.02 90.5185 89.0496 90.5185C89.316 90.4001 89.612 90.1337 89.908 89.8377C90.352 89.3937 90.944 88.8609 91.5952 88.7425C92.276 88.6241 92.7792 89.2161 92.7792 89.2457C92.868 89.3641 93.016 89.3937 93.1344 89.3345L93.164 89.3049C93.1936 89.3345 93.2232 89.3641 93.2528 89.3937C93.2824 89.4233 93.3416 89.4825 93.3712 89.5121C93.4008 89.5417 93.4304 89.5713 93.46 89.6305C93.4896 89.6897 93.5488 89.7193 93.608 89.7785C93.6376 89.8081 93.6672 89.8673 93.7264 89.8969C93.7856 89.9561 93.8152 90.0153 93.8744 90.0745C93.904 90.1041 93.9336 90.1633 93.9928 90.1929C94.052 90.2817 94.1112 90.3409 94.1704 90.4297C94.2 90.4593 94.2296 90.4889 94.2296 90.5185C94.3184 90.6369 94.3776 90.7553 94.4664 90.8737C94.496 90.9033 94.496 90.9329 94.5256 90.9625C94.5848 91.0513 94.644 91.1401 94.6736 91.2289C94.7032 91.2881 94.7328 91.3177 94.7328 91.3769C94.7624 91.4361 94.792 91.4953 94.792 91.5249C94.6736 91.6729 94.5256 91.8209 94.4072 91.9985C94.4072 92.0281 94.3776 92.0281 94.3776 92.0577C94.348 92.1169 94.3184 92.1465 94.2888 92.2057C94.2592 92.2353 94.2296 92.2649 94.2296 92.3241C94.2296 92.3537 94.2 92.3537 94.2 92.3833C93.9928 92.7089 93.8744 93.0049 93.8744 93.2713C93.7856 94.3073 95.3248 95.4321 96.1536 95.6689C96.4792 95.7577 96.9528 96.7049 97.2784 97.6225L95.8576 97.7409C95.7688 97.7409 95.7096 97.7705 95.6208 97.8001L90.204 100.494C89.7008 100.76 89.1088 100.79 88.5464 100.642L86.208 99.8721L86.2376 99.8425C86.5336 99.4873 86.5336 98.9545 86.208 98.6289L84.7872 97.2377C84.4912 96.9417 84.2248 96.6753 83.9584 96.4089C83.988 96.4089 83.988 96.3793 83.988 96.3793ZM83.544 84.7761L83.7216 84.5689C83.8992 84.3617 83.9584 84.0657 83.8696 83.7993C83.8104 83.5329 83.6032 83.3257 83.3664 83.2073L82.064 82.6745L81.5312 82.3489C81.4128 82.2897 81.2352 82.1121 81.176 81.9937L81.0576 81.1353C81.0576 81.0465 81.028 80.9577 80.9984 80.8985C80.8208 80.5137 80.4656 80.2177 80.0512 80.0993L79.0744 79.8625C78.9856 79.8329 78.8968 79.8329 78.808 79.8329C78.7784 79.8329 78.7784 79.8329 78.7488 79.8329C79.1632 79.3297 79.1928 78.6489 78.8376 78.1161L78.6008 77.7905C78.6008 77.7905 78.5712 77.7609 78.5712 77.7313V77.7017H79.8736C79.992 77.7017 80.0808 77.7313 80.1992 77.7609L81.2648 78.2641C81.5016 78.3825 81.7976 78.3825 82.064 78.2641C82.3008 78.1457 82.4784 77.9089 82.5376 77.6425C82.5968 77.3761 82.5672 77.1097 82.4784 76.9025C82.3008 76.4289 82.0936 75.8665 81.8568 75.2745C82.212 74.9193 82.5376 74.5641 82.8928 74.1793C83.3072 73.7353 83.7512 73.2617 84.1952 72.8177C84.6984 72.3145 84.6096 71.7817 84.4616 71.4265C84.3728 71.2193 84.284 70.9825 84.1952 70.7753C84.0472 70.3905 83.8992 70.0057 83.7216 69.6209C83.5144 69.2065 83.544 68.7921 83.6032 68.2001C83.692 67.6081 83.7512 67.0161 83.8104 66.4241C83.8696 65.9505 83.9288 65.4473 83.988 64.9737C83.988 64.8553 84.0472 64.7369 84.1064 64.6481C84.2544 64.3521 84.4616 64.0561 84.6984 63.6713C84.9056 63.3457 84.9648 63.0201 84.876 62.6649L85.32 62.3689C85.3496 62.3393 85.3792 62.3393 85.4088 62.3097C85.4384 62.2801 85.468 62.2209 85.5272 62.1617C85.9416 61.5993 86.8296 60.5337 87.1552 60.2673C87.4808 60.0305 87.9248 59.8825 88.1024 59.8529L92.9568 62.2505C92.9568 62.2505 92.9568 62.2505 92.9568 62.2801C92.9864 62.3689 92.9864 62.4873 92.9864 62.5761V62.6057C92.9864 62.6945 92.9864 62.8129 92.9864 62.9017V62.9313C92.9864 63.0201 92.9864 63.1089 92.9568 63.1977V63.2273C92.9568 63.3161 92.9272 63.4049 92.9272 63.4641V63.4937C92.9272 63.5825 92.8976 63.6417 92.868 63.7305V63.7601C92.8384 63.8193 92.8384 63.8785 92.8088 63.9377C92.8088 63.9377 92.8088 63.9377 92.8088 63.9673C92.7792 64.0265 92.7792 64.0857 92.7496 64.1153C92.7496 64.1449 92.72 64.2041 92.72 64.2041C92.6608 64.2633 92.572 64.3817 92.424 64.5297C92.0096 64.9737 91.3288 65.7137 91.0032 66.1577C90.648 66.6313 90.648 67.2233 90.7368 67.6673C90.7664 67.8153 90.796 67.9337 90.8256 68.0225L90.2336 69.0289C90.2336 69.0585 90.204 69.0585 90.204 69.0881C90.1744 69.1769 89.5232 71.3081 90.056 73.4393C90.5592 75.5409 92.1872 77.8201 92.2464 77.9385C92.276 77.9681 92.276 77.9977 92.3056 77.9977C92.3056 77.9977 92.3352 78.0273 92.3648 78.0569C92.3944 78.0569 92.3944 78.0865 92.424 78.1161L92.4536 78.1457C92.4832 78.1753 92.5128 78.1753 92.5424 78.2049C92.5424 78.2049 92.572 78.2345 92.6016 78.2345C92.6608 78.2937 92.7496 78.3529 92.8088 78.4121C92.8384 78.4417 92.8384 78.4417 92.868 78.4713C92.8976 78.5009 92.9568 78.5305 92.9864 78.5897C93.016 78.6193 93.0456 78.6193 93.0456 78.6489C93.1048 78.6785 93.1344 78.7377 93.1936 78.7673C93.2232 78.7969 93.2528 78.7969 93.2528 78.8265C93.4008 78.9449 93.5192 79.0633 93.6672 79.2113C93.5784 79.3297 93.4896 79.4481 93.4304 79.5665L93.4008 79.5961C93.3712 79.6553 93.3416 79.7145 93.312 79.7737C93.312 79.8033 93.2824 79.8033 93.2824 79.8329C93.2528 79.8921 93.2232 79.9217 93.1936 79.9809C93.1936 80.0105 93.164 80.0401 93.164 80.0697C93.1344 80.1289 93.1048 80.1585 93.1048 80.2177C93.1048 80.2473 93.0752 80.2769 93.0752 80.3065C93.0456 80.3657 93.0456 80.3953 93.016 80.4545C93.016 80.4841 92.9864 80.5137 92.9864 80.5137C92.9568 80.5729 92.9568 80.6617 92.9272 80.7209C92.7792 81.4017 93.2232 82.8817 93.6376 84.0065C93.7264 84.2433 93.6968 84.5097 93.5192 84.7465L93.0752 85.3681C92.8384 85.6937 92.7792 86.1081 92.9272 86.4633L93.6968 88.3873L93.016 88.7129C92.7496 88.4761 92.1872 88.0617 91.4176 88.1801C90.5592 88.3281 89.908 88.9497 89.4048 89.4233C89.2272 89.6009 88.9312 89.8673 88.7832 89.9561C88.7536 89.9857 88.724 89.9857 88.6944 89.9857C85.9712 88.7721 84.432 90.0449 83.9288 90.6369C83.9288 90.6369 83.9288 90.6369 83.8992 90.6665C83.8992 90.6665 83.8992 90.6665 83.8696 90.6961C83.8696 90.6961 83.84 90.6961 83.84 90.7257L83.8104 90.7553L83.7808 90.7849C83.7808 90.7849 83.7808 90.7849 83.7512 90.7849C83.7512 90.7849 83.7216 90.8145 83.692 90.8145H83.6624C83.6328 90.8145 83.6328 90.8441 83.6032 90.8441C83.6032 90.8441 83.5736 90.8441 83.5736 90.8737C83.544 90.8737 83.544 90.9033 83.5144 90.9033C83.5144 90.9033 83.4848 90.9033 83.4848 90.9329C83.4552 90.9329 83.4256 90.9625 83.396 90.9625C83.396 90.9625 83.3664 90.9625 83.3664 90.9921C83.3368 90.9921 83.3072 91.0217 83.2776 91.0513C83.2776 91.0513 83.248 91.0513 83.248 91.0809C83.2184 91.1105 83.1592 91.1105 83.1296 91.1401C83.1296 91.1401 83.1 91.1401 83.1 91.1697C83.0704 91.1993 83.0112 91.1993 82.952 91.2289C82.952 91.2289 82.9224 91.2289 82.9224 91.2585C82.8928 91.2881 82.8336 91.2881 82.7744 91.3177C82.7448 91.1993 82.6856 91.0809 82.6264 90.9625L82.4488 90.6073C82.0344 89.6897 81.5904 88.7721 81.1464 87.8545C81.9752 86.7889 82.7744 85.7825 83.544 84.7761ZM91.536 53.1337C91.5952 53.0745 91.6544 52.9857 91.7136 52.9265C92.0392 52.5713 92.3648 52.3345 92.72 52.2457C93.5192 52.0089 94.0816 51.5057 94.5848 51.0617C94.6736 50.9729 94.7624 50.9137 94.8512 50.8249C94.9696 50.7361 95.088 50.6177 95.1768 50.5289C95.384 50.3513 95.5616 50.2033 95.7688 50.0257C95.8576 49.9665 95.9168 49.9073 96.0056 49.9073C96.864 49.6409 97.7816 49.3745 98.9952 49.0193C99.084 48.9897 99.1728 48.9897 99.2912 48.9897C99.8536 48.9897 100.416 48.9897 100.949 48.9897H101.126V50.5881C101.126 50.8545 101.126 51.1505 101.126 51.4169C101.097 51.4465 101.067 51.4465 101.038 51.4761C101.008 51.4761 100.978 51.5057 100.949 51.5057C100.89 51.5353 100.86 51.5649 100.801 51.5945C100.771 51.6241 100.742 51.6241 100.712 51.6537C100.653 51.6833 100.623 51.7129 100.564 51.7425C100.534 51.7721 100.505 51.7721 100.475 51.8017C100.416 51.8313 100.386 51.8609 100.327 51.8905C100.298 51.9201 100.268 51.9201 100.238 51.9497C100.209 51.9793 100.15 52.0089 100.12 52.0385C100.09 52.0681 100.061 52.0681 100.031 52.0977C100.002 52.1273 99.9424 52.1569 99.9128 52.1865C99.8832 52.2161 99.8536 52.2161 99.824 52.2457C99.7944 52.2753 99.7352 52.3049 99.7056 52.3345C99.676 52.3641 99.676 52.3641 99.6464 52.3937C99.6168 52.4233 99.5872 52.4529 99.528 52.4825C99.4984 52.4825 99.4984 52.5121 99.4688 52.5121C99.4392 52.5417 99.4096 52.5713 99.38 52.5713L99.3504 52.6009C99.3208 52.6305 99.2912 52.6601 99.2616 52.6601C99.2616 52.6601 99.232 52.6601 99.232 52.6897C99.2024 52.7193 99.1728 52.7193 99.1432 52.7489C99.1432 52.7489 99.1432 52.7489 99.1136 52.7489C99.084 52.7785 99.0544 52.7785 99.0544 52.8081C99.0248 52.8081 99.0248 52.8377 99.0248 52.8377C98.9656 52.8969 97.3968 54.3769 96.9528 55.2945C96.6272 56.0049 96.1536 56.6265 96.0056 56.8041C95.976 56.8041 95.976 56.8337 95.9464 56.8337C95.6208 57.0113 94.6736 57.5145 93.9336 58.0769C93.8744 58.1065 93.8448 58.1657 93.7856 58.1953C93.756 58.2249 93.756 58.2249 93.7264 58.2545C93.6968 58.2841 93.6672 58.3137 93.6376 58.3729C93.608 58.4025 93.608 58.4321 93.5784 58.4617C93.5488 58.4913 93.5192 58.5505 93.5192 58.5801C93.608 58.4321 93.608 58.4617 93.5784 58.4913C93.5488 58.5209 93.5488 58.5801 93.5192 58.6097C93.5192 58.6393 93.4896 58.6689 93.4896 58.7281C93.46 58.7873 93.46 58.8169 93.4304 58.8761C93.4304 58.9057 93.4008 58.9649 93.4008 58.9945C93.4008 59.0537 93.3712 59.0833 93.3712 59.1425C93.3712 59.1721 93.3416 59.2313 93.3416 59.2609C93.3416 59.3201 93.312 59.3497 93.312 59.4089C93.312 59.4385 93.2824 59.4977 93.2824 59.5569C93.2824 59.6161 93.2528 59.6457 93.2528 59.7049C93.2528 59.7641 93.2232 59.7937 93.2232 59.8529C93.2232 59.9121 93.1936 59.9417 93.1936 60.0009C93.1936 60.0601 93.164 60.0897 93.164 60.1489C93.164 60.2081 93.164 60.2377 93.1344 60.2969C93.1344 60.3561 93.1344 60.3857 93.1048 60.4449C93.1048 60.5041 93.1048 60.5337 93.0752 60.5929C93.0752 60.6225 93.0752 60.6817 93.0752 60.7113C93.0752 60.7705 93.0752 60.8297 93.0456 60.8593C93.0456 60.9185 93.0456 60.9777 93.016 61.0369C93.016 61.0961 93.016 61.1553 93.016 61.2145C93.016 61.2441 93.016 61.3033 93.016 61.3329C93.016 61.3625 93.016 61.4217 93.016 61.4513C93.016 61.4809 93.016 61.5105 93.016 61.5697C93.016 61.5993 93.016 61.6289 93.016 61.6585L88.28 59.3201C88.2208 59.2905 88.1616 59.2905 88.1024 59.2905C88.0728 59.2905 87.3624 59.4385 86.8296 59.8529C86.356 60.2081 85.2312 61.6585 84.9944 61.9545L84.6688 62.1617C83.5144 59.7049 82.36 57.3073 81.2352 54.8801C82.2712 55.1465 83.2776 55.4129 84.3136 55.6793C84.5504 55.9161 84.9648 56.0937 85.5568 55.8865C85.5864 55.8865 85.5864 55.8865 85.616 55.8569C86.652 55.5905 87.54 55.0577 88.2504 54.3177C88.3392 54.2289 88.3984 54.1697 88.6352 54.1993C88.724 54.1993 88.7832 54.1993 88.872 54.2289C89.316 54.2585 89.908 54.3177 90.4408 54.1105C90.9144 53.8737 91.24 53.4593 91.536 53.1337ZM113.026 71.7521L109.592 73.5577L108.082 73.9129C107.994 73.9425 107.934 73.9721 107.905 74.0609C107.875 74.1201 107.846 74.2089 107.875 74.2977C107.875 74.2977 108.171 75.5113 108.142 76.1033C108.112 76.7249 109.71 78.7969 110.717 80.0697L104.59 79.9809H104.56C103.998 80.0105 103.258 80.0697 102.636 80.2177C102.606 80.2177 102.606 80.2177 102.577 80.2473C102.577 80.2473 102.577 80.2473 102.547 80.2473C101.718 80.4841 101.63 80.7505 101.6 80.8689C101.363 81.6977 100.83 82.7337 99.7648 82.8521C99.676 82.8521 99.5872 82.8817 99.4984 82.8817C98.2256 82.9409 96.9232 82.1417 95.7392 80.6025C95.6504 80.4841 95.532 80.3657 95.4432 80.2473C95.4136 80.2177 95.384 80.1881 95.3544 80.1585C95.2656 80.0697 95.1768 79.9513 95.088 79.8625C95.0584 79.8329 95.0584 79.8329 95.0288 79.8033C93.9336 78.5897 92.8976 77.7905 92.6904 77.6425C92.6312 77.5537 92.4536 77.3169 92.2464 76.9617C92.1576 76.7841 92.0392 76.6065 91.9208 76.3993C91.4472 75.5705 90.8848 74.4457 90.648 73.4097C90.204 71.5745 90.7072 69.6801 90.7664 69.4137L91.4176 68.3185C91.4768 68.2297 91.4768 68.1409 91.4472 68.0817C91.3584 67.8153 91.1808 67.0753 91.5064 66.6609C91.98 66.0393 93.2232 64.7369 93.2232 64.7369C93.2528 64.7073 93.2528 64.6777 93.2824 64.6481C93.2824 64.6481 93.2824 64.6481 93.2824 64.6185C93.2824 64.6185 93.2824 64.6185 93.2824 64.5889V64.5593V64.5297V64.5001C93.2824 64.5001 93.2824 64.4705 93.312 64.4409C93.312 64.4409 93.312 64.4113 93.3416 64.4113C93.3416 64.3817 93.3416 64.3817 93.3712 64.3521C93.3712 64.3225 93.3712 64.3225 93.4008 64.2929C93.4008 64.2633 93.4008 64.2633 93.4304 64.2337C93.4304 64.2041 93.4304 64.2041 93.46 64.1745C93.46 64.1449 93.46 64.1153 93.4896 64.0857C93.4896 64.0561 93.4896 64.0265 93.5192 64.0265C93.5192 63.9969 93.5192 63.9673 93.5488 63.9377C93.5488 63.9081 93.5488 63.8785 93.5784 63.8489C93.5784 63.8193 93.5784 63.7897 93.608 63.7601C93.608 63.7305 93.608 63.7009 93.6376 63.6713C93.6376 63.6417 93.6376 63.6121 93.6672 63.5825C93.6672 63.5529 93.6672 63.5233 93.6672 63.4937C93.6672 63.4641 93.6672 63.4345 93.6672 63.4049C93.6672 63.3753 93.6672 63.3457 93.6672 63.3161C93.6672 63.2865 93.6672 63.2569 93.6672 63.1977C93.6672 63.1681 93.6672 63.1385 93.6672 63.0793C93.6672 63.0497 93.6672 63.0201 93.6672 62.9609C93.6672 62.9313 93.6672 62.8721 93.6672 62.8425C93.6672 62.8129 93.6672 62.7833 93.6672 62.7241C93.6672 62.6945 93.6672 62.6353 93.6672 62.6057C93.6672 62.5761 93.6672 62.5465 93.6672 62.5169C93.6672 62.4577 93.6376 62.3985 93.6376 62.3097V62.2801C93.6672 62.2505 93.6672 62.1913 93.6672 62.1617C93.6672 61.0073 93.8744 59.1129 94.348 58.5505C94.3776 58.5209 94.4072 58.4913 94.4368 58.4617C95.2656 57.8401 96.4496 57.2185 96.4792 57.2185C96.5088 57.1889 96.5384 57.1889 96.568 57.1297C96.5976 57.1001 97.1896 56.3601 97.6336 55.4425C98.0184 54.6137 99.5576 53.1929 99.5576 53.1929C99.5576 53.1929 99.5576 53.1929 99.5872 53.1929C99.5872 53.1929 99.6168 53.1929 99.6168 53.1633C99.6168 53.1633 99.6168 53.1633 99.6464 53.1337C99.6464 53.1337 99.676 53.1041 99.7056 53.1041C99.7056 53.1041 99.7352 53.1041 99.7352 53.0745C99.7648 53.0449 99.7648 53.0449 99.7944 53.0153C99.7944 53.0153 99.824 53.0153 99.824 52.9857C99.8536 52.9561 99.8832 52.9561 99.9128 52.9265C99.9128 52.9265 99.9424 52.9265 99.9424 52.8969C99.972 52.8673 100.002 52.8377 100.031 52.8377C100.031 52.8377 100.061 52.8377 100.061 52.8081C100.09 52.7785 100.15 52.7489 100.179 52.7193C100.179 52.7193 100.209 52.7193 100.209 52.6897C100.386 52.5713 100.594 52.4233 100.83 52.3049C100.86 52.3049 100.86 52.2753 100.89 52.2753C100.919 52.2457 100.978 52.2161 101.008 52.2161C101.038 52.1865 101.067 52.1865 101.097 52.1569C101.126 52.1273 101.186 52.1273 101.215 52.0977C101.245 52.0977 101.245 52.0681 101.274 52.0681C101.274 53.8737 101.274 55.6497 101.274 57.4553C101.274 57.8401 101.422 58.2545 101.689 58.5209C103.228 60.1785 104.767 61.8065 106.188 63.3161C106.395 63.5529 106.691 63.7009 106.987 63.7305C107.52 63.7897 108.053 63.8785 108.586 63.9377C109.266 64.0265 109.947 64.1153 110.598 64.2041C110.598 64.2041 110.658 64.2337 110.776 64.2929C113.114 65.7137 115.601 67.1937 118.117 68.7329L113.026 71.7521ZM105.922 93.9521C105.951 94.0113 105.951 94.0705 105.981 94.1297C105.981 94.1297 105.981 94.1593 105.981 94.1889C105.981 94.2481 106.01 94.3073 106.01 94.3665C106.01 94.4257 106.01 94.5145 105.981 94.6033C105.981 94.6329 105.981 94.6329 105.981 94.6625C105.981 94.7513 105.951 94.8105 105.922 94.8993C105.922 94.8993 105.922 94.8993 105.922 94.9289L105.833 94.8401C105.803 94.8105 105.803 94.8105 105.774 94.7809C105.744 94.7513 104.945 94.2777 104.442 94.0409C104.382 94.0113 104.353 94.0113 104.294 93.9817H104.264C104.205 93.9817 104.175 93.9817 104.116 93.9817C104.057 93.9817 103.998 93.9817 103.968 93.9817H103.938C103.879 93.9817 103.82 94.0113 103.761 94.0113H103.731C103.672 94.0409 103.613 94.0409 103.554 94.0705C103.554 94.0705 103.554 94.0705 103.524 94.0705C103.465 94.1001 103.406 94.1297 103.346 94.1593C103.346 94.1593 103.317 94.1593 103.317 94.1889C103.258 94.2185 103.198 94.2481 103.139 94.2777C103.139 94.2777 103.11 94.2777 103.11 94.3073C103.05 94.3369 103.021 94.3665 102.962 94.3961C102.962 94.3961 102.932 94.3961 102.932 94.4257C102.873 94.4553 102.843 94.4849 102.784 94.5145C102.784 94.5145 102.754 94.5145 102.754 94.5441C102.695 94.5737 102.666 94.6033 102.636 94.6329L101.274 93.3897C101.245 93.3601 101.215 93.3601 101.186 93.3305C101.156 93.3305 101.126 93.3009 101.097 93.3009C101.097 93.2713 101.067 93.2713 101.067 93.2417C101.038 93.2121 101.038 93.1825 101.008 93.1529C100.978 93.1233 100.978 93.0937 100.949 93.0641C100.949 93.0345 100.919 93.0345 100.919 93.0049C100.89 92.9753 100.89 92.9457 100.86 92.9161C100.86 92.8865 100.83 92.8865 100.83 92.8569C100.801 92.8273 100.771 92.7681 100.742 92.7385C100.386 92.3241 99.7056 91.8209 99.084 91.3769C98.9952 91.3177 98.8768 91.2289 98.788 91.1697C98.5216 90.9625 98.2552 90.7849 98.196 90.6961C97.8408 90.2817 96.568 90.5777 95.5616 90.9033C95.532 90.9033 95.4728 90.9329 95.4432 90.9625C95.4432 90.9625 95.4432 90.9625 95.4136 90.9921C95.384 91.0217 95.3544 91.0513 95.2952 91.1105C95.2952 91.1105 95.2952 91.1105 95.2952 91.0809C95.2952 91.0513 95.2656 91.0513 95.2656 91.0217C95.2064 90.9033 95.1472 90.7849 95.0584 90.6665C95.0288 90.6369 95.0288 90.6073 94.9992 90.5777C94.94 90.4593 94.8512 90.3409 94.7624 90.2521C94.7624 90.2521 94.7624 90.2225 94.7328 90.2225C94.644 90.1041 94.5552 89.9857 94.4664 89.8673C94.4368 89.8377 94.4072 89.8081 94.4072 89.7785C94.348 89.6897 94.2592 89.6009 94.2 89.5121C94.1704 89.4825 94.1704 89.4825 94.1408 89.4529C94.052 89.3641 93.9632 89.2753 93.904 89.1865C93.8744 89.1569 93.8744 89.1569 93.8448 89.1273C93.8152 89.0977 93.7856 89.0681 93.756 89.0385L94.2592 88.7721C94.4072 88.7129 94.4664 88.5353 94.4072 88.3873L93.5192 86.2265C93.46 86.0489 93.46 85.8417 93.5784 85.6937L94.0224 85.0721C94.2888 84.7169 94.348 84.2433 94.2 83.7993C93.6968 82.3489 93.4304 81.2537 93.5192 80.8393C93.5192 80.7801 93.5488 80.6913 93.5784 80.6025C93.5784 80.5729 93.5784 80.5729 93.608 80.5433C93.6376 80.4545 93.6672 80.3953 93.7264 80.3065C93.7264 80.2769 93.756 80.2769 93.756 80.2473C93.8152 80.1585 93.8448 80.0697 93.904 79.9809C93.9632 79.8921 94.0224 79.7737 94.1112 79.6849C94.1112 79.6849 94.1112 79.6553 94.1408 79.6553C94.1408 79.6553 94.1408 79.6553 94.1704 79.6849C94.348 79.8921 94.5256 80.0697 94.7032 80.2769C94.8808 80.4841 95.0584 80.6913 95.2064 80.8985C95.2952 81.0169 95.384 81.1057 95.4728 81.2241C95.5024 81.2537 95.532 81.2833 95.5616 81.3129C95.6208 81.3721 95.68 81.4313 95.7392 81.5201C95.7688 81.5497 95.7984 81.6089 95.8576 81.6385C95.9168 81.6977 95.976 81.7569 96.0056 81.7865C96.0352 81.8161 96.0944 81.8753 96.124 81.9049C96.1832 81.9641 96.2128 81.9937 96.272 82.0529C96.3016 82.0825 96.3608 82.1121 96.3904 82.1713C96.4496 82.2009 96.4792 82.2601 96.5384 82.2897C96.568 82.3193 96.6272 82.3489 96.6568 82.3785C96.716 82.4081 96.7456 82.4673 96.8048 82.4969C96.8344 82.5265 96.8936 82.5561 96.9232 82.5857C96.9824 82.6153 97.012 82.6449 97.0712 82.6745C97.1008 82.7041 97.16 82.7337 97.1896 82.7633C97.2488 82.7929 97.308 82.8225 97.3376 82.8521C97.3672 82.8817 97.4264 82.9113 97.456 82.9113C97.5152 82.9409 97.5744 82.9705 97.6336 83.0001C97.6632 83.0297 97.6928 83.0297 97.7224 83.0593C97.8112 83.0889 97.9 83.1481 97.9888 83.1777C98.0184 83.1777 98.0184 83.1777 98.048 83.2073C98.1072 83.2369 98.196 83.2665 98.2552 83.2665C98.2848 83.2665 98.3144 83.2961 98.344 83.2961C98.4032 83.3257 98.4624 83.3257 98.5216 83.3553C98.5512 83.3553 98.5808 83.3553 98.64 83.3849C98.6992 83.3849 98.7584 83.4145 98.8176 83.4145C98.8472 83.4145 98.9064 83.4145 98.936 83.4145C98.9952 83.4145 99.0544 83.4145 99.1136 83.4145C99.1432 83.4145 99.2024 83.4145 99.232 83.4145C99.2616 83.4145 99.2912 83.4145 99.3208 83.4145C99.3504 83.4145 99.3504 83.4145 99.38 83.4145C99.4984 83.4145 99.6464 83.4145 99.7648 83.3849C100.86 83.2369 101.659 82.4081 102.103 80.9873C102.192 80.8689 102.754 80.6321 104.027 80.5433V80.5729C104.027 80.6321 104.027 80.6913 104.027 80.7505C104.027 80.8097 104.027 80.8985 104.027 80.9577C104.027 81.0169 104.027 81.0465 104.027 81.1057C104.027 81.1649 104.027 81.2537 104.027 81.3129C104.027 81.3721 104.027 81.4017 104.027 81.4609C104.027 81.5201 104.027 81.5793 104.027 81.6385C104.027 81.6977 104.027 81.7273 104.027 81.7865C104.027 81.8457 104.027 81.9049 104.027 81.9641C104.027 82.0233 104.027 82.0529 104.027 82.1121C104.027 82.1713 104.027 82.2305 104.027 82.2897C104.027 82.3193 104.027 82.3785 104.027 82.4081C104.027 82.4673 104.027 82.5265 104.027 82.5857C104.027 82.6153 104.027 82.6745 104.027 82.7041C104.027 82.7633 104.027 82.7929 104.027 82.8521C104.027 82.8817 104.027 82.9409 104.027 82.9705C104.027 83.0297 104.027 83.0593 104.027 83.1185C104.027 83.1481 104.027 83.2073 104.027 83.2369C104.027 83.2665 104.027 83.3257 104.027 83.3553C104.027 83.3849 104.027 83.4145 104.027 83.4737C104.027 83.5033 104.027 83.5625 104.027 83.5921C104.027 83.6217 104.027 83.6513 104.027 83.6809C104.027 83.7105 104.027 83.7401 104.027 83.7993C104.027 83.8289 104.027 83.8585 104.027 83.8881C104.027 83.9177 104.027 83.9473 103.998 83.9769C103.998 84.0065 103.998 84.0361 103.998 84.0657C103.998 84.0953 103.998 84.1249 103.968 84.1545C103.968 84.1841 103.968 84.1841 103.968 84.2137C103.968 84.2433 103.938 84.2729 103.938 84.3025V84.3321C103.938 84.3617 103.909 84.4209 103.909 84.4505C103.613 85.1313 104.146 85.9601 105.478 86.9073C105.922 87.2033 106.129 87.7361 106.01 88.2393C105.892 88.7425 105.626 89.2161 105.211 89.6009C104.59 90.1929 104.294 90.7849 104.294 91.3769C104.294 92.2353 104.915 92.8569 105.418 93.3601C105.478 93.4193 105.537 93.4785 105.566 93.5081C105.744 93.6857 105.862 93.8337 105.922 93.9521ZM116.814 105.792C116.814 105.881 116.814 105.999 116.814 106.088C116.785 106.354 116.785 106.591 116.755 106.858C116.755 106.976 116.726 107.124 116.726 107.242L113.499 107.272L107.313 106.71C107.165 106.68 107.046 106.798 106.987 106.917L106.721 107.923L104.708 106.917C104.59 106.858 104.442 106.887 104.353 107.006L103.761 107.716L102.281 107.154C102.192 107.124 102.103 107.124 102.014 107.183C101.926 107.242 101.896 107.302 101.866 107.42C101.866 107.45 101.778 108.426 101.63 109.522C101.63 109.492 101.6 109.462 101.6 109.462C101.6 109.433 101.57 109.403 101.57 109.374C101.541 109.255 101.482 109.166 101.452 109.048C101.422 108.93 101.393 108.811 101.363 108.693C101.363 108.663 101.334 108.634 101.334 108.604C101.304 108.486 101.274 108.367 101.245 108.249C101.215 108.13 101.215 108.012 101.186 107.894C101.186 107.864 101.186 107.834 101.186 107.805C101.186 107.686 101.186 107.568 101.186 107.45C101.245 105.674 101.718 105.141 101.718 105.141C101.807 105.052 101.837 104.963 101.807 104.845C101.511 103.809 101.452 102.832 101.63 102.714C102.222 102.418 104.382 101.174 104.471 101.115C104.59 101.056 104.649 100.908 104.619 100.79C104.53 100.346 104.146 98.8361 103.613 98.5105C103.435 98.4217 103.317 98.4217 103.198 98.4513C102.962 98.5105 101.6 98.0369 100.949 97.3857C100.771 97.2081 100.653 97.0305 100.682 96.9121C100.682 96.8529 100.712 96.7641 100.712 96.7049C100.742 96.2313 100.534 95.6985 100.327 95.1361C100.15 94.6625 99.972 94.1593 99.9128 93.6561C99.9424 93.6561 100.002 93.6561 100.061 93.6561H100.09C100.15 93.6561 100.209 93.6561 100.268 93.6857C100.298 93.6857 100.298 93.6857 100.327 93.6857C100.475 93.7153 100.653 93.7449 100.83 93.8041C100.89 93.8337 100.919 93.8337 100.949 93.8337L102.429 95.1953C102.547 95.2841 102.695 95.3137 102.814 95.2249C103.317 94.8401 104.057 94.5145 104.234 94.6033C104.353 94.6625 104.471 94.7217 104.59 94.7809C104.974 94.9881 105.359 95.2249 105.478 95.2841L105.862 95.6985L107.816 97.7705L108.911 99.1025L109.888 104.401C109.918 104.549 110.036 104.638 110.184 104.638L116.962 104.845C116.814 105.17 116.814 105.496 116.814 105.792Z" fill="#18181B"/>
<path d="M218 23L-5.60284e-06 23" stroke="url(#paint0_linear_5593_414)" stroke-opacity="0.4"/>
<path d="M218 143L-5.60284e-06 143" stroke="url(#paint1_linear_5593_414)" stroke-opacity="0.4"/>
<path d="M19 166L19 -1.78814e-07" stroke="url(#paint2_linear_5593_414)" stroke-opacity="0.4"/>
<path d="M199 166L199 -1.78814e-07" stroke="url(#paint3_linear_5593_414)" stroke-opacity="0.4"/>
</g>
<defs>
<linearGradient id="paint0_linear_5593_414" x1="1.16537e-05" y1="22.5" x2="218" y2="22.5561" gradientUnits="userSpaceOnUse">
<stop stop-color="#76717F" stop-opacity="0"/>
<stop offset="0.245" stop-color="#71717A"/>
<stop offset="0.75" stop-color="#71717A"/>
<stop offset="1" stop-color="#76717F" stop-opacity="0"/>
</linearGradient>
<linearGradient id="paint1_linear_5593_414" x1="1.16537e-05" y1="142.5" x2="218" y2="142.556" gradientUnits="userSpaceOnUse">
<stop stop-color="#76717F" stop-opacity="0"/>
<stop offset="0.245" stop-color="#71717A"/>
<stop offset="0.75" stop-color="#71717A"/>
<stop offset="1" stop-color="#76717F" stop-opacity="0"/>
</linearGradient>
<linearGradient id="paint2_linear_5593_414" x1="19.5" y1="8.89576e-06" x2="19.4675" y2="166" gradientUnits="userSpaceOnUse">
<stop stop-color="#76717F" stop-opacity="0"/>
<stop offset="0.245" stop-color="#71717A"/>
<stop offset="0.75" stop-color="#71717A"/>
<stop offset="1" stop-color="#76717F" stop-opacity="0"/>
</linearGradient>
<linearGradient id="paint3_linear_5593_414" x1="199.5" y1="8.89576e-06" x2="199.467" y2="166" gradientUnits="userSpaceOnUse">
<stop stop-color="#76717F" stop-opacity="0"/>
<stop offset="0.245" stop-color="#71717A"/>
<stop offset="0.75" stop-color="#71717A"/>
<stop offset="1" stop-color="#76717F" stop-opacity="0"/>
</linearGradient>
<clipPath id="clip0_5593_414">
<rect width="218" height="166" fill="white"/>
</clipPath>
</defs>
</svg>
