<svg width="218" height="166" viewBox="0 0 218 166" fill="none" xmlns="http://www.w3.org/2000/svg">
<g clip-path="url(#clip0_8940_13775)">
<rect x="19" y="23" width="180" height="120" rx="8" fill="#F4F4F5"/>
<rect x="83.6957" y="50.1626" width="49.2753" height="66.1748" rx="5.75" fill="#18181B" fill-opacity="0.1" stroke="#18181B" stroke-width="0.5" stroke-dasharray="2 2"/>
<rect x="0.216491" y="0.277159" width="49.2445" height="63.3817" rx="5.75" transform="matrix(0.99316 0.116758 -0.127198 0.991877 104.017 48.9936)" fill="#F4F4F5" stroke="#E4E4E7" stroke-width="0.5" stroke-dasharray="2 2"/>
<rect x="0.28009" y="0.21878" width="49.2445" height="63.3817" rx="5.75" transform="matrix(0.99316 -0.116758 0.127198 0.991877 63.8286 54.8592)" fill="#F4F4F5" stroke="#E4E4E7" stroke-width="0.5" stroke-dasharray="2 2"/>
<rect x="83.4458" y="49.9126" width="49.7753" height="66.6748" rx="6" fill="#18181B"/>
<path d="M96.5834 83C96.5834 76.3726 101.956 71 108.583 71C115.211 71 120.583 76.3726 120.583 83C120.583 89.6274 115.211 95 108.583 95C101.956 95 96.5834 89.6274 96.5834 83Z" fill="white"/>
<path d="M108.583 79.5V86.5" stroke="#18181B" stroke-linecap="round" stroke-linejoin="round"/>
<path d="M105.083 83H112.083" stroke="#18181B" stroke-linecap="round" stroke-linejoin="round"/>
<path d="M218 23L-5.60284e-06 23" stroke="url(#paint0_linear_8940_13775)" stroke-opacity="0.4"/>
<path d="M218 143L-5.60284e-06 143" stroke="url(#paint1_linear_8940_13775)" stroke-opacity="0.4"/>
<path d="M19 166L19 -1.78814e-07" stroke="url(#paint2_linear_8940_13775)" stroke-opacity="0.4"/>
<path d="M199 166L199 -1.78814e-07" stroke="url(#paint3_linear_8940_13775)" stroke-opacity="0.4"/>
</g>
<defs>
<linearGradient id="paint0_linear_8940_13775" x1="1.16537e-05" y1="22.5" x2="218" y2="22.5561" gradientUnits="userSpaceOnUse">
<stop stop-color="#76717F" stop-opacity="0"/>
<stop offset="0.245" stop-color="#71717A"/>
<stop offset="0.75" stop-color="#71717A"/>
<stop offset="1" stop-color="#76717F" stop-opacity="0"/>
</linearGradient>
<linearGradient id="paint1_linear_8940_13775" x1="1.16537e-05" y1="142.5" x2="218" y2="142.556" gradientUnits="userSpaceOnUse">
<stop stop-color="#76717F" stop-opacity="0"/>
<stop offset="0.245" stop-color="#71717A"/>
<stop offset="0.75" stop-color="#71717A"/>
<stop offset="1" stop-color="#76717F" stop-opacity="0"/>
</linearGradient>
<linearGradient id="paint2_linear_8940_13775" x1="19.5" y1="8.89576e-06" x2="19.4675" y2="166" gradientUnits="userSpaceOnUse">
<stop stop-color="#76717F" stop-opacity="0"/>
<stop offset="0.245" stop-color="#71717A"/>
<stop offset="0.75" stop-color="#71717A"/>
<stop offset="1" stop-color="#76717F" stop-opacity="0"/>
</linearGradient>
<linearGradient id="paint3_linear_8940_13775" x1="199.5" y1="8.89576e-06" x2="199.467" y2="166" gradientUnits="userSpaceOnUse">
<stop stop-color="#76717F" stop-opacity="0"/>
<stop offset="0.245" stop-color="#71717A"/>
<stop offset="0.75" stop-color="#71717A"/>
<stop offset="1" stop-color="#76717F" stop-opacity="0"/>
</linearGradient>
<clipPath id="clip0_8940_13775">
<rect width="218" height="166" fill="white"/>
</clipPath>
</defs>
</svg>
