<svg width="218" height="166" viewBox="0 0 218 166" fill="none" xmlns="http://www.w3.org/2000/svg">
<g clip-path="url(#clip0_5593_446)">
<rect x="19" y="23" width="180" height="120" rx="8" fill="#F4F4F5"/>
<path d="M89 83C89 71.9543 97.9543 63 109 63C120.046 63 129 71.9543 129 83C129 94.0457 120.046 103 109 103C97.9543 103 89 94.0457 89 83Z" fill="#F4F4F5"/>
<path d="M102.333 87.1667V88.8334C102.333 89.7539 103.08 90.5001 104 90.5001H114C114.921 90.5001 115.667 89.7539 115.667 88.8334V87.1667" stroke="#18181B" stroke-width="1.5" stroke-linecap="round" stroke-linejoin="round"/>
<path d="M104.833 80.4999L109 76.3333L113.167 80.4999" stroke="#18181B" stroke-width="1.5" stroke-linecap="round" stroke-linejoin="round"/>
<path d="M109 76.3333V86.3333" stroke="#18181B" stroke-width="1.5" stroke-linecap="round" stroke-linejoin="round"/>
<path d="M218 23L-5.60284e-06 23" stroke="url(#paint0_linear_5593_446)" stroke-opacity="0.4"/>
<path d="M218 143L-5.60284e-06 143" stroke="url(#paint1_linear_5593_446)" stroke-opacity="0.4"/>
<path d="M19 166L19 -1.78814e-07" stroke="url(#paint2_linear_5593_446)" stroke-opacity="0.4"/>
<path d="M199 166L199 -1.78814e-07" stroke="url(#paint3_linear_5593_446)" stroke-opacity="0.4"/>
</g>
<defs>
<linearGradient id="paint0_linear_5593_446" x1="1.16537e-05" y1="22.5" x2="218" y2="22.5561" gradientUnits="userSpaceOnUse">
<stop stop-color="#76717F" stop-opacity="0"/>
<stop offset="0.245" stop-color="#71717A"/>
<stop offset="0.75" stop-color="#71717A"/>
<stop offset="1" stop-color="#76717F" stop-opacity="0"/>
</linearGradient>
<linearGradient id="paint1_linear_5593_446" x1="1.16537e-05" y1="142.5" x2="218" y2="142.556" gradientUnits="userSpaceOnUse">
<stop stop-color="#76717F" stop-opacity="0"/>
<stop offset="0.245" stop-color="#71717A"/>
<stop offset="0.75" stop-color="#71717A"/>
<stop offset="1" stop-color="#76717F" stop-opacity="0"/>
</linearGradient>
<linearGradient id="paint2_linear_5593_446" x1="19.5" y1="8.89576e-06" x2="19.4675" y2="166" gradientUnits="userSpaceOnUse">
<stop stop-color="#76717F" stop-opacity="0"/>
<stop offset="0.245" stop-color="#71717A"/>
<stop offset="0.75" stop-color="#71717A"/>
<stop offset="1" stop-color="#76717F" stop-opacity="0"/>
</linearGradient>
<linearGradient id="paint3_linear_5593_446" x1="199.5" y1="8.89576e-06" x2="199.467" y2="166" gradientUnits="userSpaceOnUse">
<stop stop-color="#76717F" stop-opacity="0"/>
<stop offset="0.245" stop-color="#71717A"/>
<stop offset="0.75" stop-color="#71717A"/>
<stop offset="1" stop-color="#76717F" stop-opacity="0"/>
</linearGradient>
<clipPath id="clip0_5593_446">
<rect width="218" height="166" fill="white"/>
</clipPath>
</defs>
</svg>
