<svg width="218" height="178" viewBox="0 0 218 178" fill="none" xmlns="http://www.w3.org/2000/svg">
<g clip-path="url(#clip0_5593_464)">
<rect x="19" y="19" width="180" height="139" rx="8" fill="#F4F4F5"/>
<rect x="43" y="47" width="26" height="26" rx="13" fill="#474857" fill-opacity="0.2"/>
<rect x="43" y="80" width="26" height="26" rx="13" fill="#474857" fill-opacity="0.2"/>
<rect x="43" y="113" width="26" height="26" rx="13" fill="#474857" fill-opacity="0.2"/>
<rect x="78" y="47" width="26" height="26" rx="13" fill="#18181B"/>
<rect x="78" y="80" width="26" height="26" rx="13" fill="#474857" fill-opacity="0.2"/>
<rect x="78" y="113" width="26" height="26" rx="13" fill="#474857" fill-opacity="0.2"/>
<rect x="114" y="47" width="26" height="26" rx="13" fill="#474857" fill-opacity="0.2"/>
<rect x="149" y="47" width="26" height="26" rx="13" fill="#474857" fill-opacity="0.2"/>
<rect x="159" y="8" width="4" height="22" rx="2" fill="#18181B"/>
<rect x="55" y="8" width="4" height="22" rx="2" fill="#18181B"/>
<rect x="114" y="80" width="26" height="26" rx="13" fill="#474857" fill-opacity="0.2"/>
<rect x="149" y="80" width="26" height="26" rx="13" fill="#474857" fill-opacity="0.2"/>
<path d="M218 19L-5.60284e-06 19" stroke="url(#paint0_linear_5593_464)" stroke-opacity="0.4"/>
<path d="M19 178L19 1.3113e-06" stroke="url(#paint1_linear_5593_464)" stroke-opacity="0.4"/>
<path d="M199 178L199 1.3113e-06" stroke="url(#paint2_linear_5593_464)" stroke-opacity="0.4"/>
<path d="M218 158L-5.60284e-06 158" stroke="url(#paint3_linear_5593_464)" stroke-opacity="0.4"/>
</g>
<defs>
<linearGradient id="paint0_linear_5593_464" x1="1.16537e-05" y1="18.5" x2="218" y2="18.5561" gradientUnits="userSpaceOnUse">
<stop stop-color="#76717F" stop-opacity="0"/>
<stop offset="0.245" stop-color="#71717A"/>
<stop offset="0.75" stop-color="#71717A"/>
<stop offset="1" stop-color="#76717F" stop-opacity="0"/>
</linearGradient>
<linearGradient id="paint1_linear_5593_464" x1="19.5" y1="9.53883e-06" x2="19.4626" y2="178" gradientUnits="userSpaceOnUse">
<stop stop-color="#76717F" stop-opacity="0"/>
<stop offset="0.245" stop-color="#71717A"/>
<stop offset="0.75" stop-color="#71717A"/>
<stop offset="1" stop-color="#76717F" stop-opacity="0"/>
</linearGradient>
<linearGradient id="paint2_linear_5593_464" x1="199.5" y1="9.53883e-06" x2="199.463" y2="178" gradientUnits="userSpaceOnUse">
<stop stop-color="#76717F" stop-opacity="0"/>
<stop offset="0.245" stop-color="#71717A"/>
<stop offset="0.75" stop-color="#71717A"/>
<stop offset="1" stop-color="#76717F" stop-opacity="0"/>
</linearGradient>
<linearGradient id="paint3_linear_5593_464" x1="1.16537e-05" y1="157.5" x2="218" y2="157.556" gradientUnits="userSpaceOnUse">
<stop stop-color="#76717F" stop-opacity="0"/>
<stop offset="0.245" stop-color="#71717A"/>
<stop offset="0.75" stop-color="#71717A"/>
<stop offset="1" stop-color="#76717F" stop-opacity="0"/>
</linearGradient>
<clipPath id="clip0_5593_464">
<rect width="218" height="178" fill="white"/>
</clipPath>
</defs>
</svg>
