<svg width="180" height="50" viewBox="0 0 180 50" fill="none" xmlns="http://www.w3.org/2000/svg">
<g clip-path="url(#clip0_5357_51895)">
<path d="M20 50L20 2.68221e-07" stroke="url(#paint0_linear_5357_51895)" stroke-opacity="0.4"/>
<path d="M160 50L160 2.68221e-07" stroke="url(#paint1_linear_5357_51895)" stroke-opacity="0.4"/>
<path d="M180 11L4.52995e-06 11" stroke="url(#paint2_linear_5357_51895)" stroke-opacity="0.4"/>
<path d="M180 39L4.52995e-06 39" stroke="url(#paint3_linear_5357_51895)" stroke-opacity="0.4"/>
<path fill-rule="evenodd" clip-rule="evenodd" d="M34.4751 33.6936C34.1836 33.54 33.8352 33.5398 33.5436 33.6932L27.4623 36.8904C26.7287 37.2761 25.8712 36.6532 26.0114 35.8362L27.1731 29.064C27.2288 28.7394 27.121 28.4081 26.885 28.1784L21.9591 23.3835C21.3648 22.805 21.6924 21.7962 22.5131 21.6773L29.3091 20.6923C29.635 20.6451 29.9167 20.4405 30.0624 20.1452L33.1033 13.9838C33.4701 13.2405 34.5299 13.2405 34.8967 13.9838L37.9376 20.1452C38.0833 20.4405 38.365 20.6451 38.6909 20.6923L45.4868 21.6773C46.3076 21.7962 46.6352 22.805 46.0409 23.3835L41.115 28.1784C40.879 28.4081 40.7712 28.7394 40.8269 29.064L41.9882 35.8339C42.1284 36.6512 41.2701 37.2742 40.5364 36.8876L34.4751 33.6936Z" fill="#18181B"/>
<path fill-rule="evenodd" clip-rule="evenodd" d="M62.4751 33.6936C62.1836 33.54 61.8352 33.5398 61.5436 33.6932L55.4623 36.8904C54.7287 37.2761 53.8712 36.6532 54.0114 35.8362L55.1731 29.064C55.2288 28.7394 55.121 28.4081 54.885 28.1784L49.9591 23.3835C49.3648 22.805 49.6924 21.7962 50.5131 21.6773L57.3091 20.6923C57.635 20.6451 57.9167 20.4405 58.0624 20.1452L61.1033 13.9838C61.4701 13.2405 62.5299 13.2405 62.8967 13.9838L65.9376 20.1452C66.0833 20.4405 66.365 20.6451 66.6909 20.6923L73.4868 21.6773C74.3076 21.7962 74.6352 22.805 74.0409 23.3835L69.115 28.1784C68.879 28.4081 68.7712 28.7394 68.8269 29.064L69.9882 35.8339C70.1284 36.6512 69.2701 37.2742 68.5364 36.8876L62.4751 33.6936Z" fill="#18181B"/>
<path fill-rule="evenodd" clip-rule="evenodd" d="M90.4751 33.6936C90.1836 33.54 89.8352 33.5398 89.5436 33.6932L83.4623 36.8904C82.7287 37.2761 81.8712 36.6532 82.0114 35.8362L83.1731 29.064C83.2288 28.7394 83.121 28.4081 82.885 28.1784L77.9591 23.3835C77.3648 22.805 77.6924 21.7962 78.5132 21.6773L85.3091 20.6923C85.635 20.6451 85.9167 20.4405 86.0624 20.1452L89.1033 13.9838C89.4701 13.2405 90.5299 13.2405 90.8967 13.9838L93.9376 20.1452C94.0833 20.4405 94.365 20.6451 94.6909 20.6923L101.487 21.6773C102.308 21.7962 102.635 22.805 102.041 23.3835L97.115 28.1784C96.879 28.4081 96.7712 28.7394 96.8269 29.064L97.9882 35.8339C98.1284 36.6512 97.2701 37.2742 96.5364 36.8876L90.4751 33.6936Z" fill="#18181B"/>
<path fill-rule="evenodd" clip-rule="evenodd" d="M118.475 33.6936C118.184 33.54 117.835 33.5398 117.544 33.6932L111.462 36.8904C110.729 37.2761 109.871 36.6532 110.011 35.8362L111.173 29.064C111.229 28.7394 111.121 28.4081 110.885 28.1784L105.959 23.3835C105.365 22.805 105.692 21.7962 106.513 21.6773L113.309 20.6923C113.635 20.6451 113.917 20.4405 114.062 20.1452L117.103 13.9838C117.47 13.2405 118.53 13.2405 118.897 13.9838L121.938 20.1452C122.083 20.4405 122.365 20.6451 122.691 20.6923L129.487 21.6773C130.308 21.7962 130.635 22.805 130.041 23.3835L125.115 28.1784C124.879 28.4081 124.771 28.7394 124.827 29.064L125.988 35.8339C126.128 36.6512 125.27 37.2742 124.536 36.8876L118.475 33.6936Z" fill="#474857" fill-opacity="0.3"/>
<path fill-rule="evenodd" clip-rule="evenodd" d="M146.475 33.6936C146.184 33.54 145.835 33.5398 145.544 33.6932L139.462 36.8904C138.729 37.2761 137.871 36.6532 138.011 35.8362L139.173 29.064C139.229 28.7394 139.121 28.4081 138.885 28.1784L133.959 23.3835C133.365 22.805 133.692 21.7962 134.513 21.6773L141.309 20.6923C141.635 20.6451 141.917 20.4405 142.062 20.1452L145.103 13.9838C145.47 13.2405 146.53 13.2405 146.897 13.9838L149.938 20.1452C150.083 20.4405 150.365 20.6451 150.691 20.6923L157.487 21.6773C158.308 21.7962 158.635 22.805 158.041 23.3835L153.115 28.1784C152.879 28.4081 152.771 28.7394 152.827 29.064L153.988 35.8339C154.128 36.6512 153.27 37.2742 152.536 36.8876L146.475 33.6936Z" fill="#474857" fill-opacity="0.3"/>
</g>
<defs>
<linearGradient id="paint0_linear_5357_51895" x1="20.5" y1="2.69472e-06" x2="20.4971" y2="50" gradientUnits="userSpaceOnUse">
<stop stop-color="#76717F" stop-opacity="0"/>
<stop offset="0.245" stop-color="#71717A"/>
<stop offset="0.75" stop-color="#71717A"/>
<stop offset="1" stop-color="#76717F" stop-opacity="0"/>
</linearGradient>
<linearGradient id="paint1_linear_5357_51895" x1="160.5" y1="2.69472e-06" x2="160.497" y2="50" gradientUnits="userSpaceOnUse">
<stop stop-color="#76717F" stop-opacity="0"/>
<stop offset="0.245" stop-color="#71717A"/>
<stop offset="0.75" stop-color="#71717A"/>
<stop offset="1" stop-color="#76717F" stop-opacity="0"/>
</linearGradient>
<linearGradient id="paint2_linear_5357_51895" x1="9.62231e-06" y1="10.5" x2="180" y2="10.5382" gradientUnits="userSpaceOnUse">
<stop stop-color="#76717F" stop-opacity="0"/>
<stop offset="0.245" stop-color="#71717A"/>
<stop offset="0.75" stop-color="#71717A"/>
<stop offset="1" stop-color="#76717F" stop-opacity="0"/>
</linearGradient>
<linearGradient id="paint3_linear_5357_51895" x1="9.62231e-06" y1="38.5" x2="180" y2="38.5382" gradientUnits="userSpaceOnUse">
<stop stop-color="#76717F" stop-opacity="0"/>
<stop offset="0.245" stop-color="#71717A"/>
<stop offset="0.75" stop-color="#71717A"/>
<stop offset="1" stop-color="#76717F" stop-opacity="0"/>
</linearGradient>
<clipPath id="clip0_5357_51895">
<rect width="180" height="50" fill="white"/>
</clipPath>
</defs>
</svg>
