<svg width="186" height="32" viewBox="0 0 186 32" fill="none" xmlns="http://www.w3.org/2000/svg">
<rect width="32" height="32" rx="16" fill="black"/>
<rect x="8.67886" y="14.3448" width="15.0392" height="3.62391" rx="1.81195" transform="rotate(-38.5799 8.67886 14.3448)" fill="white"/>
<rect x="8.40579" y="24.2266" width="15.0392" height="3.62391" rx="1.81195" transform="rotate(-38.5799 8.40579 24.2266)" fill="white"/>
<path d="M54.2841 15.2017L51.5142 15.3722C51.4669 15.1354 51.3651 14.9223 51.2088 14.733C51.0526 14.5388 50.8466 14.3849 50.5909 14.2713C50.34 14.1529 50.0393 14.0938 49.6889 14.0938C49.2202 14.0938 48.8248 14.1932 48.5028 14.392C48.1809 14.5862 48.0199 14.8466 48.0199 15.1733C48.0199 15.4337 48.1241 15.6539 48.3324 15.8338C48.5407 16.0137 48.8982 16.1581 49.4048 16.267L51.3793 16.6648C52.4399 16.8826 53.2306 17.233 53.7514 17.7159C54.2723 18.1989 54.5327 18.8333 54.5327 19.6193C54.5327 20.3343 54.322 20.9616 53.9006 21.5014C53.4839 22.0412 52.911 22.4626 52.1818 22.7656C51.4574 23.0639 50.6217 23.2131 49.6747 23.2131C48.2306 23.2131 47.08 22.9124 46.223 22.3111C45.3707 21.705 44.8712 20.8812 44.7244 19.8395L47.7003 19.6832C47.7902 20.1236 48.008 20.4598 48.3537 20.6918C48.6993 20.919 49.142 21.0327 49.6818 21.0327C50.2121 21.0327 50.6383 20.9309 50.9602 20.7273C51.2869 20.5189 51.4527 20.2514 51.4574 19.9247C51.4527 19.6501 51.3366 19.4252 51.1094 19.25C50.8821 19.0701 50.5317 18.9328 50.0582 18.8381L48.169 18.4616C47.1037 18.2486 46.3106 17.8793 45.7898 17.3537C45.2737 16.8281 45.0156 16.1581 45.0156 15.3438C45.0156 14.643 45.205 14.0393 45.5838 13.5327C45.9673 13.026 46.5047 12.6354 47.196 12.3608C47.892 12.0862 48.7064 11.9489 49.6392 11.9489C51.017 11.9489 52.1013 12.2401 52.892 12.8224C53.6875 13.4048 54.1515 14.1979 54.2841 15.2017ZM59.4634 16.6932V23H56.4379V8.45455H59.3782V14.0156H59.506C59.7522 13.3717 60.15 12.8674 60.6992 12.5028C61.2485 12.1335 61.9374 11.9489 62.766 11.9489C63.5236 11.9489 64.1841 12.1146 64.7475 12.446C65.3157 12.7727 65.756 13.2438 66.0685 13.8594C66.3858 14.4702 66.542 15.2017 66.5373 16.054V23H63.5117V16.5938C63.5165 15.9214 63.346 15.3982 63.0004 15.0241C62.6594 14.6501 62.1812 14.4631 61.5657 14.4631C61.1538 14.4631 60.7892 14.5507 60.4719 14.7259C60.1594 14.901 59.9132 15.1567 59.7333 15.4929C59.5581 15.8243 59.4682 16.2244 59.4634 16.6932ZM72.0291 23.206C71.3331 23.206 70.7128 23.0852 70.1683 22.8438C69.6238 22.5975 69.1929 22.2353 68.8757 21.7571C68.5632 21.2741 68.407 20.6728 68.407 19.9531C68.407 19.3471 68.5182 18.8381 68.7408 18.4261C68.9633 18.0142 69.2663 17.6828 69.6499 17.4318C70.0334 17.1809 70.469 16.9915 70.9567 16.8636C71.4491 16.7358 71.9652 16.6458 72.505 16.5938C73.1394 16.5275 73.6508 16.4659 74.0391 16.4091C74.4273 16.3475 74.709 16.2576 74.8842 16.1392C75.0594 16.0208 75.147 15.8456 75.147 15.6136V15.571C75.147 15.1212 75.005 14.7732 74.7209 14.527C74.4415 14.2808 74.0438 14.1577 73.5277 14.1577C72.9832 14.1577 72.55 14.2784 72.228 14.5199C71.906 14.7566 71.6929 15.0549 71.5888 15.4148L68.7905 15.1875C68.9325 14.5246 69.2119 13.9517 69.6286 13.4688C70.0452 12.9811 70.5826 12.607 71.2408 12.3466C71.9036 12.0814 72.6707 11.9489 73.5419 11.9489C74.148 11.9489 74.728 12.0199 75.282 12.1619C75.8407 12.304 76.3355 12.5241 76.7663 12.8224C77.2019 13.1207 77.5452 13.5043 77.7962 13.973C78.0471 14.437 78.1726 14.9934 78.1726 15.642V23H75.3033V21.4872H75.218C75.0429 21.8281 74.8085 22.1288 74.5149 22.3892C74.2214 22.6449 73.8686 22.8461 73.4567 22.9929C73.0447 23.1349 72.5689 23.206 72.0291 23.206ZM72.8956 21.1179C73.3407 21.1179 73.7337 21.0303 74.0746 20.8551C74.4155 20.6752 74.683 20.4337 74.8771 20.1307C75.0713 19.8277 75.1683 19.4844 75.1683 19.1009V17.9432C75.0736 18.0047 74.9434 18.0616 74.7777 18.1136C74.6167 18.161 74.4344 18.206 74.2308 18.2486C74.0272 18.2865 73.8236 18.322 73.62 18.3551C73.4164 18.3835 73.2318 18.4096 73.0661 18.4332C72.7109 18.4853 72.4008 18.5682 72.1357 18.6818C71.8705 18.7955 71.6645 18.9493 71.5178 19.1435C71.371 19.3329 71.2976 19.5696 71.2976 19.8537C71.2976 20.2656 71.4467 20.5805 71.745 20.7983C72.0481 21.0114 72.4316 21.1179 72.8956 21.1179ZM84.5398 23.1776C83.7112 23.1776 82.9607 22.9645 82.2884 22.5384C81.6207 22.1075 81.0904 21.4754 80.6974 20.642C80.3092 19.804 80.1151 18.7765 80.1151 17.5597C80.1151 16.3097 80.3163 15.2704 80.7188 14.4418C81.1212 13.6084 81.6563 12.9858 82.3239 12.5739C82.9962 12.1572 83.7325 11.9489 84.5327 11.9489C85.1435 11.9489 85.6525 12.053 86.0597 12.2614C86.4716 12.465 86.803 12.7206 87.054 13.0284C87.3097 13.3314 87.5038 13.6297 87.6364 13.9233H87.7287V8.45455H90.7472V23H87.7642V21.2528H87.6364C87.4943 21.5559 87.2931 21.8565 87.0327 22.1548C86.777 22.4484 86.4432 22.6922 86.0312 22.8864C85.6241 23.0805 85.1269 23.1776 84.5398 23.1776ZM85.4986 20.7699C85.9863 20.7699 86.3982 20.6373 86.7344 20.3722C87.0753 20.1023 87.3357 19.7259 87.5156 19.2429C87.7003 18.7599 87.7926 18.1941 87.7926 17.5455C87.7926 16.8968 87.7027 16.3333 87.5227 15.8551C87.3428 15.3769 87.0824 15.0076 86.7415 14.7472C86.4006 14.4867 85.9863 14.3565 85.4986 14.3565C85.0014 14.3565 84.5824 14.4915 84.2415 14.7614C83.9006 15.0312 83.6425 15.4053 83.4673 15.8835C83.2921 16.3617 83.2045 16.9157 83.2045 17.5455C83.2045 18.1799 83.2921 18.741 83.4673 19.2287C83.6473 19.7116 83.9053 20.0904 84.2415 20.3651C84.5824 20.6349 85.0014 20.7699 85.4986 20.7699ZM98.1637 23.2131C97.0463 23.2131 96.0851 22.9763 95.2802 22.5028C94.48 22.0246 93.8645 21.3617 93.4336 20.5142C93.0075 19.6667 92.7944 18.6913 92.7944 17.5881C92.7944 16.4706 93.0098 15.4905 93.4407 14.6477C93.8763 13.8002 94.4942 13.1397 95.2944 12.6662C96.0946 12.188 97.0463 11.9489 98.1495 11.9489C99.1012 11.9489 99.9345 12.1217 100.65 12.4673C101.364 12.813 101.93 13.2983 102.347 13.9233C102.764 14.5483 102.993 15.2822 103.036 16.125H100.181C100.1 15.5805 99.8872 15.1425 99.5415 14.8111C99.2006 14.4749 98.7532 14.3068 98.1992 14.3068C97.7305 14.3068 97.3209 14.4347 96.9705 14.6903C96.6249 14.9413 96.355 15.3082 96.1609 15.7912C95.9667 16.2741 95.8697 16.8589 95.8697 17.5455C95.8697 18.2415 95.9644 18.8333 96.1538 19.321C96.3479 19.8087 96.6201 20.1804 96.9705 20.4361C97.3209 20.6918 97.7305 20.8196 98.1992 20.8196C98.5449 20.8196 98.855 20.7486 99.1296 20.6065C99.409 20.4645 99.6386 20.2585 99.8185 19.9886C100.003 19.714 100.124 19.3849 100.181 19.0014H103.036C102.989 19.8348 102.761 20.5687 102.354 21.2031C101.952 21.8329 101.395 22.3253 100.685 22.6804C99.9748 23.0355 99.1344 23.2131 98.1637 23.2131ZM107.999 16.6932V23H104.973V12.0909H107.857V14.0156H107.984C108.226 13.3812 108.631 12.8793 109.199 12.5099C109.767 12.1359 110.456 11.9489 111.266 11.9489C112.023 11.9489 112.684 12.1146 113.247 12.446C113.811 12.7775 114.249 13.2509 114.561 13.8665C114.874 14.4773 115.03 15.2064 115.03 16.054V23H112.004V16.5938C112.009 15.9261 111.839 15.4053 111.493 15.0312C111.147 14.6525 110.671 14.4631 110.065 14.4631C109.658 14.4631 109.298 14.5507 108.986 14.7259C108.678 14.901 108.437 15.1567 108.261 15.4929C108.091 15.8243 108.003 16.2244 107.999 16.6932ZM123.75 7.77273L119.062 25.1875H116.456L121.143 7.77273H123.75ZM134.284 15.2017L131.514 15.3722C131.467 15.1354 131.365 14.9223 131.209 14.733C131.053 14.5388 130.847 14.3849 130.591 14.2713C130.34 14.1529 130.039 14.0938 129.689 14.0938C129.22 14.0938 128.825 14.1932 128.503 14.392C128.181 14.5862 128.02 14.8466 128.02 15.1733C128.02 15.4337 128.124 15.6539 128.332 15.8338C128.541 16.0137 128.898 16.1581 129.405 16.267L131.379 16.6648C132.44 16.8826 133.231 17.233 133.751 17.7159C134.272 18.1989 134.533 18.8333 134.533 19.6193C134.533 20.3343 134.322 20.9616 133.901 21.5014C133.484 22.0412 132.911 22.4626 132.182 22.7656C131.457 23.0639 130.622 23.2131 129.675 23.2131C128.231 23.2131 127.08 22.9124 126.223 22.3111C125.371 21.705 124.871 20.8812 124.724 19.8395L127.7 19.6832C127.79 20.1236 128.008 20.4598 128.354 20.6918C128.699 20.919 129.142 21.0327 129.682 21.0327C130.212 21.0327 130.638 20.9309 130.96 20.7273C131.287 20.5189 131.453 20.2514 131.457 19.9247C131.453 19.6501 131.337 19.4252 131.109 19.25C130.882 19.0701 130.532 18.9328 130.058 18.8381L128.169 18.4616C127.104 18.2486 126.311 17.8793 125.79 17.3537C125.274 16.8281 125.016 16.1581 125.016 15.3438C125.016 14.643 125.205 14.0393 125.584 13.5327C125.967 13.026 126.505 12.6354 127.196 12.3608C127.892 12.0862 128.706 11.9489 129.639 11.9489C131.017 11.9489 132.101 12.2401 132.892 12.8224C133.688 13.4048 134.152 14.1979 134.284 15.2017ZM142.24 12.0909V14.3636H135.671V12.0909H142.24ZM137.162 9.47727H140.188V19.6477C140.188 19.9271 140.23 20.1449 140.316 20.3011C140.401 20.4527 140.519 20.5592 140.671 20.6207C140.827 20.6823 141.007 20.7131 141.211 20.7131C141.353 20.7131 141.495 20.7012 141.637 20.6776C141.779 20.6491 141.888 20.6278 141.963 20.6136L142.439 22.8651C142.288 22.9124 142.075 22.9669 141.8 23.0284C141.525 23.0947 141.192 23.1349 140.799 23.1491C140.069 23.1776 139.43 23.0805 138.881 22.858C138.337 22.6354 137.913 22.2898 137.61 21.821C137.307 21.3523 137.158 20.7604 137.162 20.0455V9.47727ZM151.207 18.3551V12.0909H154.233V23H151.328V21.0185H151.214C150.968 21.6577 150.558 22.1714 149.985 22.5597C149.417 22.9479 148.724 23.142 147.904 23.142C147.175 23.142 146.534 22.9763 145.98 22.6449C145.426 22.3134 144.993 21.8423 144.68 21.2315C144.372 20.6207 144.216 19.8892 144.211 19.0369V12.0909H147.237V18.4972C147.242 19.1411 147.414 19.6501 147.755 20.0241C148.096 20.3982 148.553 20.5852 149.126 20.5852C149.491 20.5852 149.832 20.5024 150.149 20.3366C150.466 20.1662 150.722 19.9152 150.916 19.5838C151.115 19.2524 151.212 18.8428 151.207 18.3551ZM160.673 23.1776C159.844 23.1776 159.094 22.9645 158.421 22.5384C157.754 22.1075 157.223 21.4754 156.83 20.642C156.442 19.804 156.248 18.7765 156.248 17.5597C156.248 16.3097 156.449 15.2704 156.852 14.4418C157.254 13.6084 157.789 12.9858 158.457 12.5739C159.129 12.1572 159.865 11.9489 160.665 11.9489C161.276 11.9489 161.785 12.053 162.192 12.2614C162.604 12.465 162.936 12.7206 163.187 13.0284C163.442 13.3314 163.637 13.6297 163.769 13.9233H163.862V8.45455H166.88V23H163.897V21.2528H163.769C163.627 21.5559 163.426 21.8565 163.165 22.1548C162.91 22.4484 162.576 22.6922 162.164 22.8864C161.757 23.0805 161.26 23.1776 160.673 23.1776ZM161.631 20.7699C162.119 20.7699 162.531 20.6373 162.867 20.3722C163.208 20.1023 163.469 19.7259 163.648 19.2429C163.833 18.7599 163.925 18.1941 163.925 17.5455C163.925 16.8968 163.835 16.3333 163.656 15.8551C163.476 15.3769 163.215 15.0076 162.874 14.7472C162.533 14.4867 162.119 14.3565 161.631 14.3565C161.134 14.3565 160.715 14.4915 160.374 14.7614C160.033 15.0312 159.775 15.4053 159.6 15.8835C159.425 16.3617 159.337 16.9157 159.337 17.5455C159.337 18.1799 159.425 18.741 159.6 19.2287C159.78 19.7116 160.038 20.0904 160.374 20.3651C160.715 20.6349 161.134 20.7699 161.631 20.7699ZM169.368 23V12.0909H172.393V23H169.368ZM170.887 10.6847C170.438 10.6847 170.052 10.5355 169.73 10.2372C169.413 9.93419 169.254 9.57197 169.254 9.15057C169.254 8.7339 169.413 8.37642 169.73 8.07812C170.052 7.77509 170.438 7.62358 170.887 7.62358C171.337 7.62358 171.721 7.77509 172.038 8.07812C172.36 8.37642 172.521 8.7339 172.521 9.15057C172.521 9.57197 172.36 9.93419 172.038 10.2372C171.721 10.5355 171.337 10.6847 170.887 10.6847ZM179.746 23.2131C178.643 23.2131 177.688 22.9787 176.884 22.5099C176.083 22.0365 175.465 21.3783 175.03 20.5355C174.594 19.688 174.376 18.7055 174.376 17.5881C174.376 16.4612 174.594 15.4763 175.03 14.6335C175.465 13.786 176.083 13.1278 176.884 12.6591C177.688 12.1856 178.643 11.9489 179.746 11.9489C180.849 11.9489 181.801 12.1856 182.601 12.6591C183.406 13.1278 184.026 13.786 184.462 14.6335C184.897 15.4763 185.115 16.4612 185.115 17.5881C185.115 18.7055 184.897 19.688 184.462 20.5355C184.026 21.3783 183.406 22.0365 182.601 22.5099C181.801 22.9787 180.849 23.2131 179.746 23.2131ZM179.76 20.8693C180.262 20.8693 180.681 20.7273 181.017 20.4432C181.353 20.1544 181.607 19.7614 181.777 19.2642C181.952 18.767 182.04 18.2012 182.04 17.5668C182.04 16.9323 181.952 16.3665 181.777 15.8693C181.607 15.3722 181.353 14.9792 181.017 14.6903C180.681 14.4015 180.262 14.2571 179.76 14.2571C179.253 14.2571 178.827 14.4015 178.482 14.6903C178.141 14.9792 177.883 15.3722 177.707 15.8693C177.537 16.3665 177.452 16.9323 177.452 17.5668C177.452 18.2012 177.537 18.767 177.707 19.2642C177.883 19.7614 178.141 20.1544 178.482 20.4432C178.827 20.7273 179.253 20.8693 179.76 20.8693Z" fill="#09090B"/>
</svg>
