<svg width="166" height="32" viewBox="0 0 166 32" fill="none" xmlns="http://www.w3.org/2000/svg">
<rect width="32" height="32" rx="16" fill="black"/>
<path d="M16.0993 7.00488V12.9044C16.0993 14.8441 14.5268 16.4166 12.5871 16.4166H6.85156" stroke="white" stroke-width="1.95122"/>
<path d="M16.2562 25.8284L16.2562 19.9288C16.2562 17.9891 17.8286 16.4166 19.7684 16.4166L25.5039 16.4166" stroke="white" stroke-width="1.95122"/>
<line x1="23.2326" y1="9.59212" x2="19.196" y2="13.5813" stroke="white" stroke-width="1.95122"/>
<line x1="13.2375" y1="19.5567" x2="9.20089" y2="23.5459" stroke="white" stroke-width="1.95122"/>
<line x1="13.0426" y1="13.3681" x2="9.02961" y2="9.35513" stroke="white" stroke-width="1.95122"/>
<line x1="23.1881" y1="23.5419" x2="19.1751" y2="19.529" stroke="white" stroke-width="1.95122"/>
<path d="M47.7129 22.2685C46.6837 22.2685 45.8 22.0951 45.0616 21.7483C44.3233 21.4015 43.7471 20.9149 43.3332 20.2884C42.9193 19.6619 42.6844 18.9236 42.6284 18.0734L45.1959 17.9559C45.263 18.4258 45.3972 18.8285 45.5986 19.1641C45.8111 19.4885 46.0908 19.7346 46.4376 19.9024C46.7956 20.0702 47.2319 20.1541 47.7465 20.1541C48.1716 20.1541 48.5296 20.1038 48.8204 20.0031C49.1225 19.9024 49.3518 19.7514 49.5084 19.55C49.6651 19.3375 49.7434 19.0802 49.7434 18.7781C49.7434 18.4985 49.6762 18.258 49.542 18.0566C49.4078 17.844 49.1505 17.6539 48.7701 17.486C48.3897 17.3071 47.8304 17.1337 47.0921 16.9659C46.074 16.7309 45.2518 16.468 44.6253 16.1772C44.01 15.8863 43.5626 15.5227 43.2829 15.0864C43.0032 14.639 42.8634 14.0796 42.8634 13.4084C42.8634 12.6924 43.0368 12.066 43.3836 11.529C43.7416 10.992 44.2562 10.5725 44.9274 10.2704C45.5986 9.96839 46.3985 9.81737 47.327 9.81737C48.3114 9.81737 49.1449 9.99076 49.8273 10.3376C50.5097 10.6844 51.0411 11.1598 51.4214 11.7639C51.813 12.368 52.0479 13.0616 52.1262 13.8447L49.5756 13.9789C49.542 13.565 49.4301 13.207 49.24 12.905C49.0498 12.5917 48.7925 12.3512 48.4681 12.1834C48.1436 12.0156 47.7521 11.9317 47.2934 11.9317C46.7117 11.9317 46.253 12.0604 45.9174 12.3177C45.593 12.575 45.4308 12.9106 45.4308 13.3245C45.4308 13.6153 45.5035 13.8615 45.6489 14.0628C45.8056 14.253 46.0573 14.4208 46.4041 14.5662C46.762 14.7117 47.2655 14.8515 47.9143 14.9858C49.0218 15.2095 49.8944 15.4948 50.5321 15.8416C51.1809 16.1772 51.6396 16.5799 51.9081 17.0498C52.1765 17.5196 52.3108 18.0566 52.3108 18.6607C52.3108 19.399 52.1206 20.0423 51.7402 20.5904C51.3711 21.1274 50.8397 21.5413 50.1461 21.8322C49.4637 22.1231 48.6526 22.2685 47.7129 22.2685ZM54.0231 22V10.0859H56.5401V15.1032H56.2045C56.294 14.5774 56.4674 14.1467 56.7247 13.8111C56.9932 13.4755 57.3232 13.2238 57.7148 13.056C58.1175 12.8882 58.5538 12.8043 59.0236 12.8043C59.6949 12.8043 60.2542 12.9497 60.7017 13.2406C61.1492 13.5314 61.4848 13.9342 61.7085 14.4488C61.9434 14.9634 62.0609 15.5507 62.0609 16.2107V22H59.5438V16.8148C59.5438 16.1436 59.4376 15.6402 59.225 15.3046C59.0236 14.969 58.6768 14.8012 58.1846 14.8012C57.67 14.8012 57.2673 14.9746 56.9764 15.3214C56.6856 15.6682 56.5401 16.1884 56.5401 16.882V22H54.0231ZM66.7365 22.2014C65.808 22.2014 65.0473 21.9888 64.4544 21.5637C63.8726 21.1274 63.5818 20.5233 63.5818 19.7514C63.5818 18.9571 63.8279 18.3474 64.3201 17.9223C64.8235 17.486 65.5619 17.1672 66.5351 16.9659L69.4382 16.3953C69.4382 15.8136 69.3039 15.3773 69.0354 15.0864C68.7781 14.7844 68.4034 14.6334 67.9111 14.6334C67.4301 14.6334 67.0553 14.7452 66.7868 14.969C66.5184 15.1815 66.345 15.5004 66.2666 15.9255L63.7328 15.808C63.9006 14.8235 64.3425 14.0796 65.0584 13.5762C65.7856 13.0616 66.7365 12.8043 67.9111 12.8043C69.2536 12.8043 70.2604 13.1231 70.9316 13.7608C71.614 14.3984 71.9552 15.3326 71.9552 16.5631V19.634C71.9552 19.8913 71.9944 20.0647 72.0727 20.1541C72.1622 20.2325 72.2908 20.2716 72.4586 20.2716H72.7104V22C72.632 22.0224 72.5034 22.0447 72.3244 22.0671C72.1566 22.0895 71.9888 22.1007 71.821 22.1007C71.463 22.1007 71.1274 22.0392 70.8142 21.9161C70.5121 21.793 70.266 21.5861 70.0758 21.2952C69.8856 20.9932 69.7905 20.5681 69.7905 20.0199L70.0087 20.1877C69.8968 20.5904 69.6955 20.9428 69.4046 21.2449C69.1249 21.5469 68.7557 21.7819 68.2971 21.9497C67.8496 22.1175 67.3294 22.2014 66.7365 22.2014ZM67.3406 20.473C67.7545 20.473 68.1181 20.3947 68.4313 20.238C68.7446 20.0702 68.9907 19.8297 69.1697 19.5165C69.3487 19.2033 69.4382 18.8341 69.4382 18.409V17.9727L67.3909 18.409C66.9882 18.4873 66.6806 18.6215 66.468 18.8117C66.2666 18.9907 66.166 19.2256 66.166 19.5165C66.166 19.8185 66.2666 20.0535 66.468 20.2213C66.6694 20.3891 66.9602 20.473 67.3406 20.473ZM77.073 22.2014C76.3123 22.2014 75.6523 22.0112 75.0929 21.6308C74.5448 21.2393 74.1197 20.6967 73.8176 20.0031C73.5267 19.2983 73.3813 18.4649 73.3813 17.5028C73.3813 16.5407 73.5323 15.7129 73.8344 15.0193C74.1364 14.3145 74.5615 13.772 75.1097 13.3916C75.669 13.0001 76.3235 12.8043 77.073 12.8043C77.7107 12.8043 78.2588 12.9385 78.7175 13.207C79.1874 13.4643 79.5397 13.8223 79.7747 14.281V10.0859H82.2917V22H79.8921L79.8418 20.6743C79.5957 21.1554 79.2265 21.5301 78.7343 21.7986C78.2532 22.0671 77.6995 22.2014 77.073 22.2014ZM77.8953 20.2716C78.298 20.2716 78.6392 20.1653 78.9189 19.9528C79.1985 19.7402 79.4111 19.4326 79.5565 19.0299C79.702 18.6159 79.7747 18.1069 79.7747 17.5028C79.7747 16.8875 79.702 16.3785 79.5565 15.9758C79.4111 15.5619 79.1985 15.2542 78.9189 15.0529C78.6392 14.8403 78.298 14.734 77.8953 14.734C77.3024 14.734 76.8325 14.9858 76.4857 15.4892C76.1389 15.9814 75.9655 16.6526 75.9655 17.5028C75.9655 18.3419 76.1389 19.0131 76.4857 19.5165C76.8437 20.0199 77.3135 20.2716 77.8953 20.2716ZM88.417 22.2014C87.4997 22.2014 86.6998 22.0112 86.0174 21.6308C85.335 21.2393 84.8036 20.6911 84.4233 19.9863C84.0429 19.2816 83.8527 18.4537 83.8527 17.5028C83.8527 16.5519 84.0429 15.7297 84.4233 15.0361C84.8036 14.3313 85.335 13.7832 86.0174 13.3916C86.6998 13.0001 87.4997 12.8043 88.417 12.8043C89.2113 12.8043 89.9217 12.9441 90.5481 13.2238C91.1858 13.5035 91.7004 13.9062 92.0919 14.432C92.4835 14.9578 92.724 15.5899 92.8135 16.3282L90.2125 16.4457C90.1342 15.8863 89.9329 15.4668 89.6084 15.1871C89.2952 14.8963 88.8981 14.7508 88.417 14.7508C87.7905 14.7508 87.3039 14.9913 86.9571 15.4724C86.6103 15.9534 86.4369 16.6302 86.4369 17.5028C86.4369 18.3754 86.6103 19.0578 86.9571 19.55C87.3039 20.0311 87.7905 20.2716 88.417 20.2716C88.8981 20.2716 89.3008 20.1262 89.6252 19.8353C89.9496 19.5333 90.1454 19.0802 90.2125 18.4761L92.8135 18.5768C92.7352 19.3151 92.5003 19.9584 92.1087 20.5065C91.7284 21.0435 91.2194 21.463 90.5817 21.7651C89.9552 22.0559 89.2337 22.2014 88.417 22.2014ZM94.2045 22V13.0057H96.4698L96.5705 15.6402L96.2517 15.5563C96.3412 14.8851 96.5202 14.3481 96.7886 13.9454C97.0683 13.5426 97.4151 13.2518 97.829 13.0728C98.243 12.8938 98.696 12.8043 99.1883 12.8043C99.8371 12.8043 100.385 12.9441 100.833 13.2238C101.291 13.5035 101.638 13.9006 101.873 14.4152C102.119 14.9186 102.242 15.5171 102.242 16.2107V22H99.7252V17.0498C99.7252 16.5687 99.6861 16.1604 99.6078 15.8248C99.5295 15.4892 99.3896 15.2375 99.1883 15.0697C98.9869 14.8907 98.7072 14.8012 98.3492 14.8012C97.8234 14.8012 97.4207 14.9969 97.141 15.3885C96.8614 15.7688 96.7215 16.3226 96.7215 17.0498V22H94.2045ZM103.892 23.8459L108.859 9.41463H111.343L106.376 23.8459H103.892ZM117.277 22.2685C116.247 22.2685 115.364 22.0951 114.625 21.7483C113.887 21.4015 113.311 20.9149 112.897 20.2884C112.483 19.6619 112.248 18.9236 112.192 18.0734L114.76 17.9559C114.827 18.4258 114.961 18.8285 115.162 19.1641C115.375 19.4885 115.654 19.7346 116.001 19.9024C116.359 20.0702 116.796 20.1541 117.31 20.1541C117.735 20.1541 118.093 20.1038 118.384 20.0031C118.686 19.9024 118.915 19.7514 119.072 19.55C119.229 19.3375 119.307 19.0802 119.307 18.7781C119.307 18.4985 119.24 18.258 119.106 18.0566C118.971 17.844 118.714 17.6539 118.334 17.486C117.953 17.3071 117.394 17.1337 116.656 16.9659C115.638 16.7309 114.815 16.468 114.189 16.1772C113.574 15.8863 113.126 15.5227 112.847 15.0864C112.567 14.639 112.427 14.0796 112.427 13.4084C112.427 12.6924 112.6 12.066 112.947 11.529C113.305 10.992 113.82 10.5725 114.491 10.2704C115.162 9.96839 115.962 9.81737 116.891 9.81737C117.875 9.81737 118.709 9.99076 119.391 10.3376C120.073 10.6844 120.605 11.1598 120.985 11.7639C121.377 12.368 121.612 13.0616 121.69 13.8447L119.139 13.9789C119.106 13.565 118.994 13.207 118.804 12.905C118.613 12.5917 118.356 12.3512 118.032 12.1834C117.707 12.0156 117.316 11.9317 116.857 11.9317C116.275 11.9317 115.817 12.0604 115.481 12.3177C115.157 12.575 114.994 12.9106 114.994 13.3245C114.994 13.6153 115.067 13.8615 115.213 14.0628C115.369 14.253 115.621 14.4208 115.968 14.5662C116.326 14.7117 116.829 14.8515 117.478 14.9858C118.585 15.2095 119.458 15.4948 120.096 15.8416C120.745 16.1772 121.203 16.5799 121.472 17.0498C121.74 17.5196 121.874 18.0566 121.874 18.6607C121.874 19.399 121.684 20.0423 121.304 20.5904C120.935 21.1274 120.403 21.5413 119.71 21.8322C119.027 22.1231 118.216 22.2685 117.277 22.2685ZM127.197 22C126.269 22 125.586 21.7874 125.15 21.3623C124.714 20.926 124.496 20.238 124.496 19.2983V10.8913H127.013V18.9963C127.013 19.4326 127.102 19.729 127.281 19.8857C127.471 20.0423 127.751 20.1206 128.12 20.1206H129.379V22H127.197ZM123.052 14.8851V13.0057H129.379V14.8851H123.052ZM133.882 22.2014C132.953 22.2014 132.226 21.9049 131.7 21.312C131.185 20.7079 130.928 19.8689 130.928 18.7949V13.0057H133.445V18.2076C133.445 18.9012 133.552 19.4102 133.764 19.7346C133.977 20.0479 134.312 20.2045 134.771 20.2045C135.285 20.2045 135.683 20.0311 135.962 19.6843C136.253 19.3263 136.399 18.7949 136.399 18.0901V13.0057H138.916V22H136.617L136.55 19.4158L136.868 19.4829C136.734 20.3779 136.415 21.0547 135.912 21.5134C135.409 21.972 134.732 22.2014 133.882 22.2014ZM144.162 22.2014C143.401 22.2014 142.741 22.0112 142.182 21.6308C141.634 21.2393 141.209 20.6967 140.907 20.0031C140.616 19.2983 140.47 18.4649 140.47 17.5028C140.47 16.5407 140.622 15.7129 140.924 15.0193C141.226 14.3145 141.651 13.772 142.199 13.3916C142.758 13.0001 143.413 12.8043 144.162 12.8043C144.8 12.8043 145.348 12.9385 145.807 13.207C146.277 13.4643 146.629 13.8223 146.864 14.281V10.0859H149.381V22H146.981L146.931 20.6743C146.685 21.1554 146.316 21.5301 145.823 21.7986C145.342 22.0671 144.789 22.2014 144.162 22.2014ZM144.984 20.2716C145.387 20.2716 145.728 20.1653 146.008 19.9528C146.288 19.7402 146.5 19.4326 146.646 19.0299C146.791 18.6159 146.864 18.1069 146.864 17.5028C146.864 16.8875 146.791 16.3785 146.646 15.9758C146.5 15.5619 146.288 15.2542 146.008 15.0529C145.728 14.8403 145.387 14.734 144.984 14.734C144.392 14.734 143.922 14.9858 143.575 15.4892C143.228 15.9814 143.055 16.6526 143.055 17.5028C143.055 18.3419 143.228 19.0131 143.575 19.5165C143.933 20.0199 144.403 20.2716 144.984 20.2716ZM151.363 22V13.0057H153.88V22H151.363ZM151.313 11.8981V9.88449H153.914V11.8981H151.313ZM159.996 22.2014C159.079 22.2014 158.279 22.0112 157.597 21.6308C156.914 21.2393 156.383 20.6911 156.003 19.9863C155.622 19.2816 155.432 18.4537 155.432 17.5028C155.432 16.5519 155.622 15.7297 156.003 15.0361C156.383 14.3313 156.914 13.7832 157.597 13.3916C158.279 13.0001 159.079 12.8043 159.996 12.8043C160.914 12.8043 161.713 13.0001 162.396 13.3916C163.078 13.7832 163.61 14.3313 163.99 15.0361C164.37 15.7297 164.561 16.5519 164.561 17.5028C164.561 18.4537 164.37 19.2816 163.99 19.9863C163.61 20.6911 163.078 21.2393 162.396 21.6308C161.713 22.0112 160.914 22.2014 159.996 22.2014ZM159.996 20.2716C160.623 20.2716 161.109 20.0311 161.456 19.55C161.803 19.0578 161.976 18.3754 161.976 17.5028C161.976 16.6302 161.803 15.9534 161.456 15.4724C161.109 14.9802 160.623 14.734 159.996 14.734C159.37 14.734 158.883 14.9802 158.536 15.4724C158.19 15.9534 158.016 16.6302 158.016 17.5028C158.016 18.3754 158.19 19.0578 158.536 19.55C158.883 20.0311 159.37 20.2716 159.996 20.2716Z" fill="black"/>
</svg>
