<svg width="178" height="32" viewBox="0 0 178 32" fill="none" xmlns="http://www.w3.org/2000/svg">
<circle cx="16.5557" cy="16" r="16" fill="#171717"/>
<path d="M16.655 7.00488V12.9044C16.655 14.8441 15.0825 16.4166 13.1428 16.4166H7.40723" stroke="#FAFAFA" stroke-width="1.95122"/>
<path d="M16.8119 25.8281L16.8119 19.9286C16.8119 17.9889 18.3844 16.4164 20.3241 16.4164L26.0596 16.4164" stroke="#FAFAFA" stroke-width="1.95122"/>
<line x1="23.7884" y1="9.59237" x2="19.7517" y2="13.5815" stroke="#FAFAFA" stroke-width="1.95122"/>
<line x1="13.7936" y1="19.5572" x2="9.75692" y2="23.5464" stroke="#FAFAFA" stroke-width="1.95122"/>
<line x1="13.5985" y1="13.3686" x2="9.58558" y2="9.35562" stroke="#FAFAFA" stroke-width="1.95122"/>
<line x1="23.7439" y1="23.5414" x2="19.731" y2="19.5285" stroke="#FAFAFA" stroke-width="1.95122"/>
<path d="M47.8323 14.974L45.4886 15.2297C45.4223 14.993 45.3063 14.7704 45.1406 14.5621C44.9796 14.3538 44.7618 14.1857 44.4872 14.0578C44.2126 13.93 43.8764 13.8661 43.4786 13.8661C42.9436 13.8661 42.4938 13.9821 42.1292 14.2141C41.7694 14.4461 41.5918 14.7468 41.5965 15.1161C41.5918 15.4333 41.7078 15.6914 41.9446 15.8902C42.186 16.0891 42.5838 16.2524 43.1377 16.3803L44.9985 16.778C46.0307 17.0005 46.7978 17.3533 47.2997 17.8362C47.8063 18.3192 48.062 18.9513 48.0667 19.7326C48.062 20.4191 47.8608 21.0252 47.463 21.5507C47.07 22.0716 46.5232 22.4788 45.8224 22.7723C45.1216 23.0659 44.3167 23.2127 43.4076 23.2127C42.0724 23.2127 40.9976 22.9333 40.1832 22.3746C39.3688 21.8112 38.8835 21.0275 38.7272 20.0237L41.2343 19.7823C41.348 20.2747 41.5894 20.6464 41.9588 20.8973C42.3281 21.1483 42.8087 21.2737 43.4005 21.2737C44.0113 21.2737 44.5014 21.1483 44.8707 20.8973C45.2447 20.6464 45.4318 20.3362 45.4318 19.9669C45.4318 19.6544 45.311 19.3964 45.0696 19.1928C44.8328 18.9892 44.4635 18.8329 43.9616 18.724L42.1008 18.3334C41.0544 18.1156 40.2803 17.7487 39.7784 17.2326C39.2765 16.7117 39.0279 16.0536 39.0326 15.2581C39.0279 14.5858 39.2102 14.0034 39.5795 13.511C39.9536 13.0138 40.472 12.6303 41.1349 12.3604C41.8025 12.0858 42.5719 11.9485 43.4431 11.9485C44.7215 11.9485 45.7277 12.2207 46.4616 12.7652C47.2002 13.3097 47.6572 14.046 47.8323 14.974ZM52.7578 16.6076V22.9996H50.1867V8.45411H52.701V13.9442H52.8288C53.0845 13.3287 53.4798 12.8433 54.0149 12.4882C54.5546 12.1284 55.2412 11.9485 56.0745 11.9485C56.8321 11.9485 57.4926 12.1071 58.0561 12.4243C58.6195 12.7416 59.0551 13.2056 59.3629 13.8164C59.6754 14.4272 59.8316 15.1729 59.8316 16.0536V22.9996H57.2606V16.4513C57.2606 15.7174 57.0712 15.1469 56.6924 14.7397C56.3184 14.3277 55.7928 14.1218 55.1157 14.1218C54.6612 14.1218 54.254 14.2212 53.8941 14.4201C53.539 14.6142 53.2597 14.8959 53.0561 15.2652C52.8572 15.6345 52.7578 16.082 52.7578 16.6076ZM65.5916 23.2198C64.9003 23.2198 64.2777 23.0967 63.7237 22.8505C63.1744 22.5995 62.7388 22.2302 62.4169 21.7425C62.0996 21.2548 61.941 20.6535 61.941 19.9385C61.941 19.323 62.0546 18.814 62.2819 18.4115C62.5092 18.0091 62.8193 17.6871 63.2123 17.4456C63.6053 17.2041 64.048 17.0219 64.5404 16.8987C65.0376 16.7709 65.5513 16.6786 66.0816 16.6218C66.7208 16.5555 67.2393 16.4963 67.637 16.4442C68.0348 16.3874 68.3236 16.3022 68.5035 16.1885C68.6882 16.0701 68.7805 15.8879 68.7805 15.6416V15.599C68.7805 15.064 68.6219 14.6497 68.3046 14.3561C67.9874 14.0626 67.5305 13.9158 66.9339 13.9158C66.3042 13.9158 65.8046 14.0531 65.4353 14.3277C65.0707 14.6023 64.8245 14.9267 64.6967 15.3007L62.2961 14.9598C62.4855 14.2969 62.798 13.743 63.2336 13.2979C63.6692 12.8481 64.2019 12.5119 64.8316 12.2894C65.4614 12.0621 66.1574 11.9485 66.9197 11.9485C67.4453 11.9485 67.9685 12.01 68.4893 12.1331C69.0101 12.2562 69.486 12.4598 69.9169 12.7439C70.3477 13.0233 70.6934 13.4044 70.9538 13.8874C71.2189 14.3703 71.3515 14.974 71.3515 15.6985V22.9996H68.8799V21.501H68.7947C68.6385 21.8041 68.4183 22.0881 68.1342 22.3533C67.8548 22.6137 67.5021 22.8244 67.076 22.9854C66.6545 23.1416 66.1598 23.2198 65.5916 23.2198ZM66.2592 21.3306C66.7753 21.3306 67.2227 21.2288 67.6015 21.0252C67.9803 20.8168 68.2715 20.5422 68.4751 20.2013C68.6834 19.8604 68.7876 19.4887 68.7876 19.0862V17.8007C68.7071 17.867 68.5698 17.9286 68.3757 17.9854C68.1863 18.0422 67.9732 18.0919 67.7365 18.1345C67.4997 18.1772 67.2653 18.215 67.0333 18.2482C66.8013 18.2813 66.6001 18.3097 66.4296 18.3334C66.0461 18.3855 65.7028 18.4707 65.3998 18.5891C65.0968 18.7075 64.8577 18.8732 64.6825 19.0862C64.5073 19.2946 64.4197 19.5645 64.4197 19.8959C64.4197 20.3694 64.5925 20.7269 64.9382 20.9684C65.2838 21.2098 65.7242 21.3306 66.2592 21.3306ZM77.985 23.1914C77.128 23.1914 76.361 22.9712 75.6839 22.5308C75.0068 22.0905 74.4718 21.4513 74.0788 20.6132C73.6858 19.7752 73.4893 18.7572 73.4893 17.5593C73.4893 16.3471 73.6882 15.3244 74.0859 14.4911C74.4884 13.653 75.0305 13.0209 75.7123 12.5948C76.3941 12.1639 77.1541 11.9485 77.9921 11.9485C78.6313 11.9485 79.1569 12.0574 79.5688 12.2752C79.9808 12.4882 80.3075 12.7463 80.549 13.0493C80.7904 13.3476 80.9775 13.6293 81.11 13.8945H81.2166V8.45411H83.7947V22.9996H81.2663V21.2808H81.11C80.9775 21.546 80.7857 21.8277 80.5348 22.126C80.2838 22.4196 79.9524 22.6705 79.5404 22.8789C79.1285 23.0872 78.61 23.1914 77.985 23.1914ZM78.7024 21.082C79.2469 21.082 79.7109 20.9352 80.0944 20.6416C80.4779 20.3433 80.7691 19.9291 80.968 19.3987C81.1669 18.8684 81.2663 18.2505 81.2663 17.5451C81.2663 16.8396 81.1669 16.2264 80.968 15.7056C80.7739 15.1847 80.485 14.7799 80.1015 14.4911C79.7227 14.2023 79.2563 14.0578 78.7024 14.0578C78.1295 14.0578 77.6512 14.207 77.2677 14.5053C76.8842 14.8036 76.5954 15.2155 76.4012 15.7411C76.2071 16.2666 76.11 16.868 76.11 17.5451C76.11 18.2269 76.2071 18.8353 76.4012 19.3703C76.6001 19.9006 76.8913 20.3197 77.2748 20.6274C77.6631 20.9305 78.1389 21.082 78.7024 21.082ZM91.2929 23.2127C90.2039 23.2127 89.2688 22.9736 88.4875 22.4953C87.711 22.0171 87.1121 21.3566 86.6907 20.5138C86.274 19.6663 86.0657 18.6909 86.0657 17.5877C86.0657 16.4797 86.2787 15.502 86.7049 14.6544C87.131 13.8022 87.7323 13.1393 88.5088 12.6658C89.2901 12.1876 90.2134 11.9485 91.2787 11.9485C92.1641 11.9485 92.9478 12.1118 93.6296 12.4385C94.3161 12.7605 94.863 13.2174 95.2702 13.8093C95.6774 14.3964 95.9094 15.0829 95.9662 15.8689H93.5088C93.4094 15.3433 93.1727 14.9054 92.7986 14.555C92.4293 14.1999 91.9345 14.0223 91.3142 14.0223C90.7887 14.0223 90.327 14.1644 89.9293 14.4485C89.5316 14.7278 89.2214 15.1303 88.9989 15.6558C88.7811 16.1814 88.6722 16.8112 88.6722 17.5451C88.6722 18.2884 88.7811 18.9276 88.9989 19.4627C89.2167 19.993 89.5221 20.4025 89.9151 20.6914C90.3128 20.9755 90.7792 21.1175 91.3142 21.1175C91.693 21.1175 92.0316 21.0465 92.3299 20.9044C92.6329 20.7576 92.8862 20.5469 93.0898 20.2723C93.2934 19.9977 93.4331 19.6639 93.5088 19.2709H95.9662C95.9047 20.0427 95.6774 20.7269 95.2844 21.3235C94.8914 21.9153 94.3564 22.3793 93.6793 22.7155C93.0022 23.0469 92.2068 23.2127 91.2929 23.2127ZM100.648 16.6076V22.9996H98.0774V12.0905H100.535V13.9442H100.663C100.914 13.3334 101.314 12.8481 101.863 12.4882C102.417 12.1284 103.101 11.9485 103.915 11.9485C104.668 11.9485 105.324 12.1094 105.883 12.4314C106.446 12.7534 106.882 13.2198 107.19 13.8306C107.502 14.4414 107.656 15.1824 107.651 16.0536V22.9996H105.08V16.4513C105.08 15.7221 104.891 15.1516 104.512 14.7397C104.138 14.3277 103.62 14.1218 102.957 14.1218C102.507 14.1218 102.107 14.2212 101.756 14.4201C101.411 14.6142 101.138 14.8959 100.94 15.2652C100.745 15.6345 100.648 16.082 100.648 16.6076ZM116.202 7.77229L111.515 25.1871H109.263L113.951 7.77229H116.202ZM126.465 14.974L124.121 15.2297C124.055 14.993 123.939 14.7704 123.773 14.5621C123.612 14.3538 123.395 14.1857 123.12 14.0578C122.845 13.93 122.509 13.8661 122.111 13.8661C121.576 13.8661 121.127 13.9821 120.762 14.2141C120.402 14.4461 120.225 14.7468 120.229 15.1161C120.225 15.4333 120.341 15.6914 120.577 15.8902C120.819 16.0891 121.217 16.2524 121.771 16.3803L123.631 16.778C124.664 17.0005 125.431 17.3533 125.932 17.8362C126.439 18.3192 126.695 18.9513 126.7 19.7326C126.695 20.4191 126.494 21.0252 126.096 21.5507C125.703 22.0716 125.156 22.4788 124.455 22.7723C123.754 23.0659 122.95 23.2127 122.04 23.2127C120.705 23.2127 119.63 22.9333 118.816 22.3746C118.002 21.8112 117.516 21.0275 117.36 20.0237L119.867 19.7823C119.981 20.2747 120.222 20.6464 120.592 20.8973C120.961 21.1483 121.441 21.2737 122.033 21.2737C122.644 21.2737 123.134 21.1483 123.504 20.8973C123.878 20.6464 124.065 20.3362 124.065 19.9669C124.065 19.6544 123.944 19.3964 123.702 19.1928C123.466 18.9892 123.096 18.8329 122.594 18.724L120.734 18.3334C119.687 18.1156 118.913 17.7487 118.411 17.2326C117.909 16.7117 117.661 16.0536 117.665 15.2581C117.661 14.5858 117.843 14.0034 118.212 13.511C118.586 13.0138 119.105 12.6303 119.768 12.3604C120.435 12.0858 121.205 11.9485 122.076 11.9485C123.354 11.9485 124.361 12.2207 125.094 12.7652C125.833 13.3097 126.29 14.046 126.465 14.974ZM134.267 12.0905V14.0791H127.996V12.0905H134.267ZM129.544 9.47683H132.115V19.7184C132.115 20.064 132.167 20.3291 132.271 20.5138C132.38 20.6937 132.522 20.8168 132.697 20.8831C132.873 20.9494 133.067 20.9826 133.28 20.9826C133.441 20.9826 133.588 20.9707 133.72 20.947C133.857 20.9234 133.962 20.9021 134.033 20.8831L134.466 22.8931C134.329 22.9404 134.132 22.9925 133.876 23.0493C133.625 23.1061 133.318 23.1393 132.953 23.1487C132.309 23.1677 131.729 23.0706 131.213 22.8576C130.697 22.6398 130.287 22.3036 129.984 21.849C129.686 21.3945 129.539 20.8263 129.544 20.1445V9.47683ZM143.37 18.4115V12.0905H145.941V22.9996H143.448V21.0607H143.335C143.089 21.6715 142.684 22.171 142.12 22.5593C141.562 22.9475 140.873 23.1416 140.054 23.1416C139.339 23.1416 138.707 22.983 138.157 22.6658C137.613 22.3438 137.187 21.8774 136.879 21.2666C136.571 20.6511 136.417 19.9077 136.417 19.0365V12.0905H138.988V18.6388C138.988 19.3301 139.178 19.8793 139.556 20.2865C139.935 20.6937 140.432 20.8973 141.048 20.8973C141.427 20.8973 141.794 20.805 142.149 20.6203C142.504 20.4357 142.795 20.1611 143.022 19.7965C143.254 19.4272 143.37 18.9655 143.37 18.4115ZM152.633 23.1914C151.776 23.1914 151.009 22.9712 150.332 22.5308C149.655 22.0905 149.12 21.4513 148.727 20.6132C148.334 19.7752 148.138 18.7572 148.138 17.5593C148.138 16.3471 148.337 15.3244 148.734 14.4911C149.137 13.653 149.679 13.0209 150.361 12.5948C151.043 12.1639 151.803 11.9485 152.641 11.9485C153.28 11.9485 153.805 12.0574 154.217 12.2752C154.629 12.4882 154.956 12.7463 155.197 13.0493C155.439 13.3476 155.626 13.6293 155.758 13.8945H155.865V8.45411H158.443V22.9996H155.915V21.2808H155.758C155.626 21.546 155.434 21.8277 155.183 22.126C154.932 22.4196 154.601 22.6705 154.189 22.8789C153.777 23.0872 153.258 23.1914 152.633 23.1914ZM153.351 21.082C153.895 21.082 154.359 20.9352 154.743 20.6416C155.126 20.3433 155.418 19.9291 155.616 19.3987C155.815 18.8684 155.915 18.2505 155.915 17.5451C155.915 16.8396 155.815 16.2264 155.616 15.7056C155.422 15.1847 155.133 14.7799 154.75 14.4911C154.371 14.2023 153.905 14.0578 153.351 14.0578C152.778 14.0578 152.3 14.207 151.916 14.5053C151.533 14.8036 151.244 15.2155 151.05 15.7411C150.856 16.2666 150.758 16.868 150.758 17.5451C150.758 18.2269 150.856 18.8353 151.05 19.3703C151.249 19.9006 151.54 20.3197 151.923 20.6274C152.312 20.9305 152.787 21.082 153.351 21.082ZM161.183 22.9996V12.0905H163.754V22.9996H161.183ZM162.475 10.5422C162.068 10.5422 161.718 10.4073 161.424 10.1374C161.131 9.86272 160.984 9.53365 160.984 9.15013C160.984 8.76187 161.131 8.4328 161.424 8.16291C161.718 7.88829 162.068 7.75098 162.475 7.75098C162.887 7.75098 163.238 7.88829 163.527 8.16291C163.82 8.4328 163.967 8.76187 163.967 9.15013C163.967 9.53365 163.82 9.86272 163.527 10.1374C163.238 10.4073 162.887 10.5422 162.475 10.5422ZM171.156 23.2127C170.091 23.2127 169.168 22.9783 168.386 22.5095C167.605 22.0408 166.999 21.385 166.568 20.5422C166.142 19.6994 165.929 18.7146 165.929 17.5877C165.929 16.4608 166.142 15.4736 166.568 14.626C166.999 13.7785 167.605 13.1203 168.386 12.6516C169.168 12.1828 170.091 11.9485 171.156 11.9485C172.222 11.9485 173.145 12.1828 173.926 12.6516C174.707 13.1203 175.311 13.7785 175.737 14.626C176.168 15.4736 176.383 16.4608 176.383 17.5877C176.383 18.7146 176.168 19.6994 175.737 20.5422C175.311 21.385 174.707 22.0408 173.926 22.5095C173.145 22.9783 172.222 23.2127 171.156 23.2127ZM171.17 21.153C171.748 21.153 172.231 20.9944 172.619 20.6772C173.008 20.3552 173.296 19.9243 173.486 19.3845C173.68 18.8448 173.777 18.2434 173.777 17.5806C173.777 16.913 173.68 16.3093 173.486 15.7695C173.296 15.225 173.008 14.7917 172.619 14.4698C172.231 14.1478 171.748 13.9868 171.17 13.9868C170.579 13.9868 170.086 14.1478 169.693 14.4698C169.305 14.7917 169.014 15.225 168.82 15.7695C168.63 16.3093 168.535 16.913 168.535 17.5806C168.535 18.2434 168.63 18.8448 168.82 19.3845C169.014 19.9243 169.305 20.3552 169.693 20.6772C170.086 20.9944 170.579 21.153 171.17 21.153Z" fill="#0A0A0A"/>
</svg>
