<svg width="178" height="32" viewBox="0 0 178 32" fill="none" xmlns="http://www.w3.org/2000/svg">
<rect width="32" height="32" rx="16" transform="matrix(1 0 0 -1 0.555664 32)" fill="#171717"/>
<path d="M16.6564 24.9951V19.0956C16.6564 17.1559 15.084 15.5834 13.1442 15.5834H7.40869" stroke="#FAFAFA" stroke-width="1.95122"/>
<path d="M16.8118 6.17188L16.8118 12.0714C16.8118 14.0111 18.3843 15.5836 20.324 15.5836L26.0596 15.5836" stroke="#FAFAFA" stroke-width="1.95122"/>
<line y1="-0.97561" x2="5.67518" y2="-0.97561" transform="matrix(-0.711279 -0.70291 -0.70291 0.711279 23.1035 23.1021)" stroke="#FAFAFA" stroke-width="1.95122"/>
<line y1="-0.97561" x2="5.67518" y2="-0.97561" transform="matrix(-0.711279 -0.70291 -0.70291 0.711279 13.1074 13.1372)" stroke="#FAFAFA" stroke-width="1.95122"/>
<line y1="-0.97561" x2="5.67518" y2="-0.97561" transform="matrix(-0.707107 0.707107 0.707107 0.707107 14.2876 19.3218)" stroke="#FAFAFA" stroke-width="1.95122"/>
<line y1="-0.97561" x2="5.67518" y2="-0.97561" transform="matrix(-0.707107 0.707107 0.707107 0.707107 24.4346 9.14795)" stroke="#FAFAFA" stroke-width="1.95122"/>
<path d="M47.8323 14.9744L45.4886 15.2301C45.4223 14.9934 45.3063 14.7708 45.1406 14.5625C44.9796 14.3542 44.7618 14.1861 44.4872 14.0582C44.2126 13.9304 43.8764 13.8665 43.4786 13.8665C42.9436 13.8665 42.4938 13.9825 42.1292 14.2145C41.7694 14.4465 41.5918 14.7472 41.5965 15.1165C41.5918 15.4337 41.7078 15.6918 41.9446 15.8906C42.186 16.0895 42.5838 16.2528 43.1377 16.3807L44.9985 16.7784C46.0307 17.0009 46.7978 17.3537 47.2997 17.8366C47.8063 18.3196 48.062 18.9517 48.0667 19.733C48.062 20.4195 47.8608 21.0256 47.463 21.5511C47.07 22.072 46.5232 22.4792 45.8224 22.7727C45.1216 23.0663 44.3167 23.2131 43.4076 23.2131C42.0724 23.2131 40.9976 22.9337 40.1832 22.375C39.3688 21.8116 38.8835 21.0279 38.7272 20.0241L41.2343 19.7827C41.348 20.2751 41.5894 20.6468 41.9588 20.8977C42.3281 21.1487 42.8087 21.2741 43.4005 21.2741C44.0113 21.2741 44.5014 21.1487 44.8707 20.8977C45.2447 20.6468 45.4318 20.3366 45.4318 19.9673C45.4318 19.6548 45.311 19.3968 45.0696 19.1932C44.8328 18.9896 44.4635 18.8333 43.9616 18.7244L42.1008 18.3338C41.0544 18.116 40.2803 17.7491 39.7784 17.233C39.2765 16.7121 39.0279 16.054 39.0326 15.2585C39.0279 14.5862 39.2102 14.0038 39.5795 13.5114C39.9536 13.0142 40.472 12.6307 41.1349 12.3608C41.8025 12.0862 42.5719 11.9489 43.4431 11.9489C44.7215 11.9489 45.7277 12.2211 46.4616 12.7656C47.2002 13.3101 47.6572 14.0464 47.8323 14.9744ZM52.7578 16.608V23H50.1867V8.45455H52.701V13.9446H52.8288C53.0845 13.3291 53.4798 12.8437 54.0149 12.4886C54.5546 12.1288 55.2412 11.9489 56.0745 11.9489C56.8321 11.9489 57.4926 12.1075 58.0561 12.4247C58.6195 12.742 59.0551 13.206 59.3629 13.8168C59.6754 14.4276 59.8316 15.1733 59.8316 16.054V23H57.2606V16.4517C57.2606 15.7178 57.0712 15.1473 56.6924 14.7401C56.3184 14.3281 55.7928 14.1222 55.1157 14.1222C54.6612 14.1222 54.254 14.2216 53.8941 14.4205C53.539 14.6146 53.2597 14.8963 53.0561 15.2656C52.8572 15.6349 52.7578 16.0824 52.7578 16.608ZM65.5916 23.2202C64.9003 23.2202 64.2777 23.0971 63.7237 22.8509C63.1744 22.5999 62.7388 22.2306 62.4169 21.7429C62.0996 21.2552 61.941 20.6539 61.941 19.9389C61.941 19.3234 62.0546 18.8144 62.2819 18.4119C62.5092 18.0095 62.8193 17.6875 63.2123 17.446C63.6053 17.2045 64.048 17.0223 64.5404 16.8991C65.0376 16.7713 65.5513 16.679 66.0816 16.6222C66.7208 16.5559 67.2393 16.4967 67.637 16.4446C68.0348 16.3878 68.3236 16.3026 68.5035 16.1889C68.6882 16.0705 68.7805 15.8883 68.7805 15.642V15.5994C68.7805 15.0644 68.6219 14.6501 68.3046 14.3565C67.9874 14.063 67.5305 13.9162 66.9339 13.9162C66.3042 13.9162 65.8046 14.0535 65.4353 14.3281C65.0707 14.6027 64.8245 14.9271 64.6967 15.3011L62.2961 14.9602C62.4855 14.2973 62.798 13.7434 63.2336 13.2983C63.6692 12.8485 64.2019 12.5123 64.8316 12.2898C65.4614 12.0625 66.1574 11.9489 66.9197 11.9489C67.4453 11.9489 67.9685 12.0104 68.4893 12.1335C69.0101 12.2566 69.486 12.4602 69.9169 12.7443C70.3477 13.0237 70.6934 13.4048 70.9538 13.8878C71.2189 14.3707 71.3515 14.9744 71.3515 15.6989V23H68.8799V21.5014H68.7947C68.6385 21.8045 68.4183 22.0885 68.1342 22.3537C67.8548 22.6141 67.5021 22.8248 67.076 22.9858C66.6545 23.142 66.1598 23.2202 65.5916 23.2202ZM66.2592 21.331C66.7753 21.331 67.2227 21.2292 67.6015 21.0256C67.9803 20.8172 68.2715 20.5426 68.4751 20.2017C68.6834 19.8608 68.7876 19.4891 68.7876 19.0866V17.8011C68.7071 17.8674 68.5698 17.929 68.3757 17.9858C68.1863 18.0426 67.9732 18.0923 67.7365 18.1349C67.4997 18.1776 67.2653 18.2154 67.0333 18.2486C66.8013 18.2817 66.6001 18.3101 66.4296 18.3338C66.0461 18.3859 65.7028 18.4711 65.3998 18.5895C65.0968 18.7079 64.8577 18.8736 64.6825 19.0866C64.5073 19.295 64.4197 19.5649 64.4197 19.8963C64.4197 20.3698 64.5925 20.7273 64.9382 20.9688C65.2838 21.2102 65.7242 21.331 66.2592 21.331ZM77.985 23.1918C77.128 23.1918 76.361 22.9716 75.6839 22.5312C75.0068 22.0909 74.4718 21.4517 74.0788 20.6136C73.6858 19.7756 73.4893 18.7576 73.4893 17.5597C73.4893 16.3475 73.6882 15.3248 74.0859 14.4915C74.4884 13.6534 75.0305 13.0213 75.7123 12.5952C76.3941 12.1643 77.1541 11.9489 77.9921 11.9489C78.6313 11.9489 79.1569 12.0578 79.5688 12.2756C79.9808 12.4886 80.3075 12.7467 80.549 13.0497C80.7904 13.348 80.9775 13.6297 81.11 13.8949H81.2166V8.45455H83.7947V23H81.2663V21.2812H81.11C80.9775 21.5464 80.7857 21.8281 80.5348 22.1264C80.2838 22.42 79.9524 22.6709 79.5404 22.8793C79.1285 23.0876 78.61 23.1918 77.985 23.1918ZM78.7024 21.0824C79.2469 21.0824 79.7109 20.9356 80.0944 20.642C80.4779 20.3437 80.7691 19.9295 80.968 19.3991C81.1669 18.8688 81.2663 18.2509 81.2663 17.5455C81.2663 16.84 81.1669 16.2268 80.968 15.706C80.7739 15.1851 80.485 14.7803 80.1015 14.4915C79.7227 14.2027 79.2563 14.0582 78.7024 14.0582C78.1295 14.0582 77.6512 14.2074 77.2677 14.5057C76.8842 14.804 76.5954 15.2159 76.4012 15.7415C76.2071 16.267 76.11 16.8684 76.11 17.5455C76.11 18.2273 76.2071 18.8357 76.4012 19.3707C76.6001 19.901 76.8913 20.3201 77.2748 20.6278C77.6631 20.9309 78.1389 21.0824 78.7024 21.0824ZM91.2929 23.2131C90.2039 23.2131 89.2688 22.974 88.4875 22.4957C87.711 22.0175 87.1121 21.357 86.6907 20.5142C86.274 19.6667 86.0657 18.6913 86.0657 17.5881C86.0657 16.4801 86.2787 15.5024 86.7049 14.6548C87.131 13.8026 87.7323 13.1397 88.5088 12.6662C89.2901 12.188 90.2134 11.9489 91.2787 11.9489C92.1641 11.9489 92.9478 12.1122 93.6296 12.4389C94.3161 12.7609 94.863 13.2178 95.2702 13.8097C95.6774 14.3968 95.9094 15.0833 95.9662 15.8693H93.5088C93.4094 15.3437 93.1727 14.9058 92.7986 14.5554C92.4293 14.2003 91.9345 14.0227 91.3142 14.0227C90.7887 14.0227 90.327 14.1648 89.9293 14.4489C89.5316 14.7282 89.2214 15.1307 88.9989 15.6562C88.7811 16.1818 88.6722 16.8116 88.6722 17.5455C88.6722 18.2888 88.7811 18.928 88.9989 19.4631C89.2167 19.9934 89.5221 20.4029 89.9151 20.6918C90.3128 20.9759 90.7792 21.1179 91.3142 21.1179C91.693 21.1179 92.0316 21.0469 92.3299 20.9048C92.6329 20.758 92.8862 20.5473 93.0898 20.2727C93.2934 19.9981 93.4331 19.6643 93.5088 19.2713H95.9662C95.9047 20.0431 95.6774 20.7273 95.2844 21.3239C94.8914 21.9157 94.3564 22.3797 93.6793 22.7159C93.0022 23.0473 92.2068 23.2131 91.2929 23.2131ZM100.648 16.608V23H98.0774V12.0909H100.535V13.9446H100.663C100.914 13.3338 101.314 12.8485 101.863 12.4886C102.417 12.1288 103.101 11.9489 103.915 11.9489C104.668 11.9489 105.324 12.1098 105.883 12.4318C106.446 12.7538 106.882 13.2202 107.19 13.831C107.502 14.4418 107.656 15.1828 107.651 16.054V23H105.08V16.4517C105.08 15.7225 104.891 15.152 104.512 14.7401C104.138 14.3281 103.62 14.1222 102.957 14.1222C102.507 14.1222 102.107 14.2216 101.756 14.4205C101.411 14.6146 101.138 14.8963 100.94 15.2656C100.745 15.6349 100.648 16.0824 100.648 16.608ZM116.202 7.77273L111.515 25.1875H109.263L113.951 7.77273H116.202ZM126.465 14.9744L124.121 15.2301C124.055 14.9934 123.939 14.7708 123.773 14.5625C123.612 14.3542 123.395 14.1861 123.12 14.0582C122.845 13.9304 122.509 13.8665 122.111 13.8665C121.576 13.8665 121.127 13.9825 120.762 14.2145C120.402 14.4465 120.225 14.7472 120.229 15.1165C120.225 15.4337 120.341 15.6918 120.577 15.8906C120.819 16.0895 121.217 16.2528 121.771 16.3807L123.631 16.7784C124.664 17.0009 125.431 17.3537 125.932 17.8366C126.439 18.3196 126.695 18.9517 126.7 19.733C126.695 20.4195 126.494 21.0256 126.096 21.5511C125.703 22.072 125.156 22.4792 124.455 22.7727C123.754 23.0663 122.95 23.2131 122.04 23.2131C120.705 23.2131 119.63 22.9337 118.816 22.375C118.002 21.8116 117.516 21.0279 117.36 20.0241L119.867 19.7827C119.981 20.2751 120.222 20.6468 120.592 20.8977C120.961 21.1487 121.441 21.2741 122.033 21.2741C122.644 21.2741 123.134 21.1487 123.504 20.8977C123.878 20.6468 124.065 20.3366 124.065 19.9673C124.065 19.6548 123.944 19.3968 123.702 19.1932C123.466 18.9896 123.096 18.8333 122.594 18.7244L120.734 18.3338C119.687 18.116 118.913 17.7491 118.411 17.233C117.909 16.7121 117.661 16.054 117.665 15.2585C117.661 14.5862 117.843 14.0038 118.212 13.5114C118.586 13.0142 119.105 12.6307 119.768 12.3608C120.435 12.0862 121.205 11.9489 122.076 11.9489C123.354 11.9489 124.361 12.2211 125.094 12.7656C125.833 13.3101 126.29 14.0464 126.465 14.9744ZM134.267 12.0909V14.0795H127.996V12.0909H134.267ZM129.544 9.47727H132.115V19.7188C132.115 20.0644 132.167 20.3295 132.271 20.5142C132.38 20.6941 132.522 20.8172 132.697 20.8835C132.873 20.9498 133.067 20.983 133.28 20.983C133.441 20.983 133.588 20.9711 133.72 20.9474C133.857 20.9238 133.962 20.9025 134.033 20.8835L134.466 22.8935C134.329 22.9408 134.132 22.9929 133.876 23.0497C133.625 23.1065 133.318 23.1397 132.953 23.1491C132.309 23.1681 131.729 23.071 131.213 22.858C130.697 22.6402 130.287 22.304 129.984 21.8494C129.686 21.3949 129.539 20.8267 129.544 20.1449V9.47727ZM143.37 18.4119V12.0909H145.941V23H143.448V21.0611H143.335C143.089 21.6719 142.684 22.1714 142.12 22.5597C141.562 22.9479 140.873 23.142 140.054 23.142C139.339 23.142 138.707 22.9834 138.157 22.6662C137.613 22.3442 137.187 21.8778 136.879 21.267C136.571 20.6515 136.417 19.9081 136.417 19.0369V12.0909H138.988V18.6392C138.988 19.3305 139.178 19.8797 139.556 20.2869C139.935 20.6941 140.432 20.8977 141.048 20.8977C141.427 20.8977 141.794 20.8054 142.149 20.6207C142.504 20.4361 142.795 20.1615 143.022 19.7969C143.254 19.4276 143.37 18.9659 143.37 18.4119ZM152.633 23.1918C151.776 23.1918 151.009 22.9716 150.332 22.5312C149.655 22.0909 149.12 21.4517 148.727 20.6136C148.334 19.7756 148.138 18.7576 148.138 17.5597C148.138 16.3475 148.337 15.3248 148.734 14.4915C149.137 13.6534 149.679 13.0213 150.361 12.5952C151.043 12.1643 151.803 11.9489 152.641 11.9489C153.28 11.9489 153.805 12.0578 154.217 12.2756C154.629 12.4886 154.956 12.7467 155.197 13.0497C155.439 13.348 155.626 13.6297 155.758 13.8949H155.865V8.45455H158.443V23H155.915V21.2812H155.758C155.626 21.5464 155.434 21.8281 155.183 22.1264C154.932 22.42 154.601 22.6709 154.189 22.8793C153.777 23.0876 153.258 23.1918 152.633 23.1918ZM153.351 21.0824C153.895 21.0824 154.359 20.9356 154.743 20.642C155.126 20.3437 155.418 19.9295 155.616 19.3991C155.815 18.8688 155.915 18.2509 155.915 17.5455C155.915 16.84 155.815 16.2268 155.616 15.706C155.422 15.1851 155.133 14.7803 154.75 14.4915C154.371 14.2027 153.905 14.0582 153.351 14.0582C152.778 14.0582 152.3 14.2074 151.916 14.5057C151.533 14.804 151.244 15.2159 151.05 15.7415C150.856 16.267 150.758 16.8684 150.758 17.5455C150.758 18.2273 150.856 18.8357 151.05 19.3707C151.249 19.901 151.54 20.3201 151.923 20.6278C152.312 20.9309 152.787 21.0824 153.351 21.0824ZM161.183 23V12.0909H163.754V23H161.183ZM162.475 10.5426C162.068 10.5426 161.718 10.4077 161.424 10.1378C161.131 9.86316 160.984 9.53409 160.984 9.15057C160.984 8.76231 161.131 8.43324 161.424 8.16335C161.718 7.88873 162.068 7.75142 162.475 7.75142C162.887 7.75142 163.238 7.88873 163.527 8.16335C163.82 8.43324 163.967 8.76231 163.967 9.15057C163.967 9.53409 163.82 9.86316 163.527 10.1378C163.238 10.4077 162.887 10.5426 162.475 10.5426ZM171.156 23.2131C170.091 23.2131 169.168 22.9787 168.386 22.5099C167.605 22.0412 166.999 21.3854 166.568 20.5426C166.142 19.6998 165.929 18.715 165.929 17.5881C165.929 16.4612 166.142 15.474 166.568 14.6264C166.999 13.7789 167.605 13.1207 168.386 12.652C169.168 12.1832 170.091 11.9489 171.156 11.9489C172.222 11.9489 173.145 12.1832 173.926 12.652C174.707 13.1207 175.311 13.7789 175.737 14.6264C176.168 15.474 176.383 16.4612 176.383 17.5881C176.383 18.715 176.168 19.6998 175.737 20.5426C175.311 21.3854 174.707 22.0412 173.926 22.5099C173.145 22.9787 172.222 23.2131 171.156 23.2131ZM171.17 21.1534C171.748 21.1534 172.231 20.9948 172.619 20.6776C173.008 20.3556 173.296 19.9247 173.486 19.3849C173.68 18.8452 173.777 18.2438 173.777 17.581C173.777 16.9134 173.68 16.3097 173.486 15.7699C173.296 15.2254 173.008 14.7921 172.619 14.4702C172.231 14.1482 171.748 13.9872 171.17 13.9872C170.579 13.9872 170.086 14.1482 169.693 14.4702C169.305 14.7921 169.014 15.2254 168.82 15.7699C168.63 16.3097 168.535 16.9134 168.535 17.581C168.535 18.2438 168.63 18.8452 168.82 19.3849C169.014 19.9247 169.305 20.3556 169.693 20.6776C170.086 20.9948 170.579 21.1534 171.17 21.1534Z" fill="#0A0A0A"/>
</svg>
