<svg width="278" height="191" viewBox="0 0 278 191" fill="none" xmlns="http://www.w3.org/2000/svg">
<path d="M21 191L21 4.41074e-06" stroke="url(#paint0_linear_16511_23622)" stroke-opacity="0.4"/>
<path d="M254 191L254 4.41074e-06" stroke="url(#paint1_linear_16511_23622)" stroke-opacity="0.4"/>
<path d="M276 23L-1.37091e-06 23" stroke="url(#paint2_linear_16511_23622)" stroke-opacity="0.4"/>
<path d="M277 167L0.999999 167" stroke="url(#paint3_linear_16511_23622)" stroke-opacity="0.4"/>
<rect x="165.688" y="23" width="88.5502" height="144" rx="8" fill="#F5F5F5"/>
<rect x="175.209" y="36.5" width="47.4371" height="8" rx="4" fill="#474857" fill-opacity="0.2"/>
<rect x="175.209" y="54.5" width="65.5084" height="8" rx="4" fill="#171717"/>
<rect x="175.209" y="132.5" width="65.5084" height="22" rx="6" fill="#171717"/>
<rect x="31.3798" y="36.5" width="57.8087" height="44" rx="6" fill="#F5F5F5"/>
<rect x="31.3798" y="87.9012" width="57.8087" height="66.5988" rx="6" fill="#F5F5F5"/>
<rect x="96.2207" y="36.5" width="57.8087" height="44" rx="6" fill="#F5F5F5"/>
<rect x="96.2207" y="87.9012" width="57.8087" height="66.5988" rx="6" fill="#F5F5F5"/>
<rect x="175.209" y="72.5" width="24.095" height="8" rx="4" fill="#474857" fill-opacity="0.2"/>
<rect x="175.209" y="90.5" width="43.6722" height="8" rx="4" fill="#474857" fill-opacity="0.2"/>
<defs>
<linearGradient id="paint0_linear_16511_23622" x1="21.5" y1="1.02489e-05" x2="21.457" y2="191" gradientUnits="userSpaceOnUse">
<stop stop-color="#76717F" stop-opacity="0"/>
<stop offset="0.245" stop-color="#737373"/>
<stop offset="0.75" stop-color="#737373"/>
<stop offset="1" stop-color="#76717F" stop-opacity="0"/>
</linearGradient>
<linearGradient id="paint1_linear_16511_23622" x1="254.5" y1="1.02489e-05" x2="254.457" y2="191" gradientUnits="userSpaceOnUse">
<stop stop-color="#76717F" stop-opacity="0"/>
<stop offset="0.245" stop-color="#737373"/>
<stop offset="0.75" stop-color="#737373"/>
<stop offset="1" stop-color="#76717F" stop-opacity="0"/>
</linearGradient>
<linearGradient id="paint2_linear_16511_23622" x1="1.47542e-05" y1="22.5" x2="276" y2="22.5899" gradientUnits="userSpaceOnUse">
<stop stop-color="#76717F" stop-opacity="0"/>
<stop offset="0.245" stop-color="#737373"/>
<stop offset="0.75" stop-color="#737373"/>
<stop offset="1" stop-color="#76717F" stop-opacity="0"/>
</linearGradient>
<linearGradient id="paint3_linear_16511_23622" x1="1.00001" y1="166.5" x2="277" y2="166.59" gradientUnits="userSpaceOnUse">
<stop stop-color="#76717F" stop-opacity="0"/>
<stop offset="0.245" stop-color="#737373"/>
<stop offset="0.75" stop-color="#737373"/>
<stop offset="1" stop-color="#76717F" stop-opacity="0"/>
</linearGradient>
</defs>
</svg>
