<svg width="320" height="214" viewBox="0 0 320 214" fill="none" xmlns="http://www.w3.org/2000/svg">
<g clip-path="url(#clip0_8940_13774)">
<path d="M32.5664 205.386L32.5664 -1.3113e-06" stroke="url(#paint0_linear_8940_13774)" stroke-opacity="0.4"/>
<path d="M287.434 214L287.434 5.78165e-06" stroke="url(#paint1_linear_8940_13774)" stroke-opacity="0.4"/>
<path d="M116.704 189L116.704 49" stroke="#E4E4E7"/>
<path d="M203.845 189L203.845 49" stroke="#E4E4E7"/>
<path d="M320 21L1.5974e-05 21" stroke="url(#paint2_linear_8940_13774)" stroke-opacity="0.4"/>
<path d="M320 189L1.5974e-05 189" stroke="url(#paint3_linear_8940_13774)" stroke-opacity="0.4"/>
<rect x="32.5664" y="21" width="254.867" height="168" rx="8" fill="#F4F4F5"/>
<mask id="path-8-inside-1_8940_13774" fill="white">
<path d="M33 49H287V77H33V49Z"/>
</mask>
<path d="M33 50H287V48H33V50Z" fill="#E4E4E7" mask="url(#path-8-inside-1_8940_13774)"/>
<mask id="path-10-inside-2_8940_13774" fill="white">
<path d="M33 77H287V105H33V77Z"/>
</mask>
<path d="M33 78H287V76H33V78Z" fill="#E4E4E7" mask="url(#path-10-inside-2_8940_13774)"/>
<mask id="path-12-inside-3_8940_13774" fill="white">
<path d="M33 105H287V133H33V105Z"/>
</mask>
<path d="M33 106H287V104H33V106Z" fill="#E4E4E7" mask="url(#path-12-inside-3_8940_13774)"/>
<mask id="path-14-inside-4_8940_13774" fill="white">
<path d="M33 133H287V161H33V133Z"/>
</mask>
<path d="M33 134H287V132H33V134Z" fill="#E4E4E7" mask="url(#path-14-inside-4_8940_13774)"/>
<mask id="path-16-inside-5_8940_13774" fill="white">
<path d="M33 161H287V189H33V161Z"/>
</mask>
<path d="M33 162H287V160H33V162Z" fill="#E4E4E7" mask="url(#path-16-inside-5_8940_13774)"/>
<rect x="54" y="61" width="40" height="6" rx="3" fill="#18181B"/>
<rect x="140" y="61" width="40" height="6" rx="3" fill="#18181B"/>
<rect x="226" y="61" width="40" height="6" rx="3" fill="#18181B"/>
<rect x="54" y="88" width="40" height="6" rx="3" fill="#474857" fill-opacity="0.2"/>
<rect x="140" y="88" width="40" height="6" rx="3" fill="#474857" fill-opacity="0.2"/>
<rect x="226" y="88" width="40" height="6" rx="3" fill="#474857" fill-opacity="0.2"/>
<rect x="54" y="117" width="40" height="6" rx="3" fill="#474857" fill-opacity="0.2"/>
<rect x="140" y="117" width="40" height="6" rx="3" fill="#474857" fill-opacity="0.2"/>
<rect x="226" y="117" width="40" height="6" rx="3" fill="#474857" fill-opacity="0.2"/>
<rect x="54" y="144" width="40" height="6" rx="3" fill="#474857" fill-opacity="0.2"/>
<rect x="140" y="144" width="40" height="6" rx="3" fill="#474857" fill-opacity="0.2"/>
<rect x="226" y="144" width="40" height="6" rx="3" fill="#474857" fill-opacity="0.2"/>
<rect x="54" y="172" width="40" height="6" rx="3" fill="#474857" fill-opacity="0.2"/>
<rect x="140" y="172" width="40" height="6" rx="3" fill="#474857" fill-opacity="0.2"/>
<rect x="226" y="172" width="40" height="6" rx="3" fill="#474857" fill-opacity="0.2"/>
</g>
<defs>
<linearGradient id="paint0_linear_8940_13774" x1="33.0664" y1="1.10012e-05" x2="33.0166" y2="205.386" gradientUnits="userSpaceOnUse">
<stop stop-color="#76717F" stop-opacity="0"/>
<stop offset="0.245" stop-color="#71717A"/>
<stop offset="0.75" stop-color="#71717A"/>
<stop offset="1" stop-color="#76717F" stop-opacity="0"/>
</linearGradient>
<linearGradient id="paint1_linear_8940_13774" x1="287.934" y1="1.14617e-05" x2="287.88" y2="214" gradientUnits="userSpaceOnUse">
<stop stop-color="#76717F" stop-opacity="0"/>
<stop offset="0.245" stop-color="#71717A"/>
<stop offset="0.75" stop-color="#71717A"/>
<stop offset="1" stop-color="#76717F" stop-opacity="0"/>
</linearGradient>
<linearGradient id="paint2_linear_8940_13774" x1="1.71063e-05" y1="20.5" x2="320" y2="20.6208" gradientUnits="userSpaceOnUse">
<stop stop-color="#76717F" stop-opacity="0"/>
<stop offset="0.245" stop-color="#71717A"/>
<stop offset="0.75" stop-color="#71717A"/>
<stop offset="1" stop-color="#76717F" stop-opacity="0"/>
</linearGradient>
<linearGradient id="paint3_linear_8940_13774" x1="1.71063e-05" y1="188.5" x2="320" y2="188.621" gradientUnits="userSpaceOnUse">
<stop stop-color="#76717F" stop-opacity="0"/>
<stop offset="0.245" stop-color="#71717A"/>
<stop offset="0.75" stop-color="#71717A"/>
<stop offset="1" stop-color="#76717F" stop-opacity="0"/>
</linearGradient>
<clipPath id="clip0_8940_13774">
<rect width="320" height="214" fill="white"/>
</clipPath>
</defs>
</svg>
