<svg width="320" height="182" viewBox="0 0 320 182" fill="none" xmlns="http://www.w3.org/2000/svg">
<g clip-path="url(#clip0_5593_285)">
<path d="M32.5664 182L32.5664 7.7486e-06" stroke="url(#paint0_linear_5593_285)" stroke-opacity="0.4"/>
<path d="M287.434 182L287.434 7.7486e-06" stroke="url(#paint1_linear_5593_285)" stroke-opacity="0.4"/>
<path d="M320 21L1.5974e-05 21" stroke="url(#paint2_linear_5593_285)" stroke-opacity="0.4"/>
<path d="M320 161L1.5974e-05 161" stroke="url(#paint3_linear_5593_285)" stroke-opacity="0.4"/>
<rect x="32.5664" y="21" width="254.867" height="140" rx="8" fill="#F4F4F5"/>
<rect x="46" y="33" width="57" height="6" rx="3" fill="#474857" fill-opacity="0.2"/>
<rect x="132" y="33" width="30" height="6" rx="3" fill="#474857" fill-opacity="0.2"/>
<rect x="218" y="33" width="57" height="6" rx="3" fill="#474857" fill-opacity="0.2"/>
<mask id="path-9-inside-1_5593_285" fill="white">
<path d="M33 49H287V77H33V49Z"/>
</mask>
<path d="M33 50H287V48H33V50Z" fill="#E4E4E7" mask="url(#path-9-inside-1_5593_285)"/>
<mask id="path-11-inside-2_5593_285" fill="white">
<path d="M33 77H287V105H33V77Z"/>
</mask>
<path d="M33 78H287V76H33V78Z" fill="#E4E4E7" mask="url(#path-11-inside-2_5593_285)"/>
<mask id="path-13-inside-3_5593_285" fill="white">
<path d="M33 105H287V133H33V105Z"/>
</mask>
<path d="M33 106H287V104H33V106Z" fill="#E4E4E7" mask="url(#path-13-inside-3_5593_285)"/>
<mask id="path-15-inside-4_5593_285" fill="white">
<path d="M33 133H287V161H33V133Z"/>
</mask>
<path d="M33 134H287V132H33V134Z" fill="#E4E4E7" mask="url(#path-15-inside-4_5593_285)"/>
<rect x="46" y="61" width="40" height="6" rx="3" fill="#18181B"/>
<rect x="132" y="61" width="62" height="6" rx="3" fill="#18181B"/>
<rect x="218" y="61" width="28" height="6" rx="3" fill="#18181B"/>
<rect x="46" y="88" width="48" height="6" rx="3" fill="#474857" fill-opacity="0.2"/>
<rect x="132" y="88" width="30" height="6" rx="3" fill="#474857" fill-opacity="0.2"/>
<rect x="218" y="88" width="48" height="6" rx="3" fill="#474857" fill-opacity="0.2"/>
<rect x="46" y="117" width="23" height="6" rx="3" fill="#474857" fill-opacity="0.2"/>
<rect x="132" y="117" width="43" height="6" rx="3" fill="#474857" fill-opacity="0.2"/>
<rect x="218" y="117" width="34" height="6" rx="3" fill="#474857" fill-opacity="0.2"/>
<rect x="46" y="144" width="43" height="6" rx="3" fill="#474857" fill-opacity="0.2"/>
<rect x="132" y="144" width="33" height="6" rx="3" fill="#474857" fill-opacity="0.2"/>
<rect x="218" y="144" width="14" height="6" rx="3" fill="#474857" fill-opacity="0.2"/>
</g>
<defs>
<linearGradient id="paint0_linear_5593_285" x1="33.0664" y1="9.75319e-06" x2="33.0273" y2="182" gradientUnits="userSpaceOnUse">
<stop stop-color="#76717F" stop-opacity="0"/>
<stop offset="0.245" stop-color="#71717A"/>
<stop offset="0.75" stop-color="#71717A"/>
<stop offset="1" stop-color="#76717F" stop-opacity="0"/>
</linearGradient>
<linearGradient id="paint1_linear_5593_285" x1="287.934" y1="9.75319e-06" x2="287.895" y2="182" gradientUnits="userSpaceOnUse">
<stop stop-color="#76717F" stop-opacity="0"/>
<stop offset="0.245" stop-color="#71717A"/>
<stop offset="0.75" stop-color="#71717A"/>
<stop offset="1" stop-color="#76717F" stop-opacity="0"/>
</linearGradient>
<linearGradient id="paint2_linear_5593_285" x1="1.71063e-05" y1="20.5" x2="320" y2="20.6208" gradientUnits="userSpaceOnUse">
<stop stop-color="#76717F" stop-opacity="0"/>
<stop offset="0.245" stop-color="#71717A"/>
<stop offset="0.75" stop-color="#71717A"/>
<stop offset="1" stop-color="#76717F" stop-opacity="0"/>
</linearGradient>
<linearGradient id="paint3_linear_5593_285" x1="1.71063e-05" y1="160.5" x2="320" y2="160.621" gradientUnits="userSpaceOnUse">
<stop stop-color="#76717F" stop-opacity="0"/>
<stop offset="0.245" stop-color="#71717A"/>
<stop offset="0.75" stop-color="#71717A"/>
<stop offset="1" stop-color="#76717F" stop-opacity="0"/>
</linearGradient>
<clipPath id="clip0_5593_285">
<rect width="320" height="182" fill="white"/>
</clipPath>
</defs>
</svg>
