<svg width="200" height="50" viewBox="0 0 200 50" fill="none" xmlns="http://www.w3.org/2000/svg">
<path d="M200 15L1.07288e-06 15" stroke="url(#paint0_linear_5515_5736)" stroke-opacity="0.4"/>
<path d="M200 29L1.07288e-06 29" stroke="url(#paint1_linear_5515_5736)" stroke-opacity="0.4"/>
<path d="M19 43L19 -2.08616e-06" stroke="url(#paint2_linear_5515_5736)" stroke-opacity="0.4"/>
<path d="M180 43L180 -2.08616e-06" stroke="url(#paint3_linear_5515_5736)" stroke-opacity="0.4"/>
<rect x="19" y="15" width="36" height="14" rx="7" fill="#F4F4F5"/>
<path d="M61.25 18.5L64.75 22L61.25 25.5" stroke="#18181B" stroke-width="1.5" stroke-linecap="round" stroke-linejoin="round"/>
<path d="M137.25 18.5L140.75 22L137.25 25.5" stroke="#18181B" stroke-width="1.5" stroke-linecap="round" stroke-linejoin="round"/>
<rect x="71" y="15" width="58" height="14" rx="7" fill="#F4F4F5"/>
<rect x="147" y="15" width="33" height="14" rx="7" fill="#18181B"/>
<defs>
<linearGradient id="paint0_linear_5515_5736" x1="1.06915e-05" y1="14.5" x2="200" y2="14.5472" gradientUnits="userSpaceOnUse">
<stop stop-color="#76717F" stop-opacity="0"/>
<stop offset="0.245" stop-color="#71717A"/>
<stop offset="0.75" stop-color="#71717A"/>
<stop offset="1" stop-color="#76717F" stop-opacity="0"/>
</linearGradient>
<linearGradient id="paint1_linear_5515_5736" x1="1.06915e-05" y1="28.5" x2="200" y2="28.5472" gradientUnits="userSpaceOnUse">
<stop stop-color="#76717F" stop-opacity="0"/>
<stop offset="0.245" stop-color="#71717A"/>
<stop offset="0.75" stop-color="#71717A"/>
<stop offset="1" stop-color="#76717F" stop-opacity="0"/>
</linearGradient>
<linearGradient id="paint2_linear_5515_5736" x1="19.5" y1="2.31746e-06" x2="19.4978" y2="43" gradientUnits="userSpaceOnUse">
<stop stop-color="#76717F" stop-opacity="0"/>
<stop offset="0.245" stop-color="#71717A"/>
<stop offset="0.75" stop-color="#71717A"/>
<stop offset="1" stop-color="#76717F" stop-opacity="0"/>
</linearGradient>
<linearGradient id="paint3_linear_5515_5736" x1="180.5" y1="2.31746e-06" x2="180.498" y2="43" gradientUnits="userSpaceOnUse">
<stop stop-color="#76717F" stop-opacity="0"/>
<stop offset="0.245" stop-color="#71717A"/>
<stop offset="0.75" stop-color="#71717A"/>
<stop offset="1" stop-color="#76717F" stop-opacity="0"/>
</linearGradient>
</defs>
</svg>
