<svg width="212" height="72" viewBox="0 0 212 72" fill="none" xmlns="http://www.w3.org/2000/svg">
<g clip-path="url(#clip0_5515_5849)">
<path d="M212 19L2.563e-06 19" stroke="url(#paint0_linear_5515_5849)" stroke-opacity="0.4"/>
<path d="M212 53L2.563e-06 53" stroke="url(#paint1_linear_5515_5849)" stroke-opacity="0.4"/>
<path d="M17 72L17 2.98023e-08" stroke="url(#paint2_linear_5515_5849)" stroke-opacity="0.4"/>
<path d="M197 72L197 2.98023e-08" stroke="url(#paint3_linear_5515_5849)" stroke-opacity="0.4"/>
<rect x="17" y="19" width="180" height="34" rx="6" fill="#F4F4F5"/>
<rect x="130" y="34" width="25" height="6" rx="3" fill="#F4F4F5"/>
<rect x="160" y="34" width="25" height="6" rx="3" fill="#F4F4F5"/>
<rect x="100" y="34" width="25" height="6" rx="3" fill="#F4F4F5"/>
<rect x="28" y="34" width="32" height="6" rx="3" fill="#18181B"/>
</g>
<defs>
<linearGradient id="paint0_linear_5515_5849" x1="1.13329e-05" y1="18.5" x2="212" y2="18.553" gradientUnits="userSpaceOnUse">
<stop stop-color="#76717F" stop-opacity="0"/>
<stop offset="0.245" stop-color="#71717A"/>
<stop offset="0.75" stop-color="#71717A"/>
<stop offset="1" stop-color="#76717F" stop-opacity="0"/>
</linearGradient>
<linearGradient id="paint1_linear_5515_5849" x1="1.13329e-05" y1="52.5" x2="212" y2="52.553" gradientUnits="userSpaceOnUse">
<stop stop-color="#76717F" stop-opacity="0"/>
<stop offset="0.245" stop-color="#71717A"/>
<stop offset="0.75" stop-color="#71717A"/>
<stop offset="1" stop-color="#76717F" stop-opacity="0"/>
</linearGradient>
<linearGradient id="paint2_linear_5515_5849" x1="17.5" y1="3.82707e-06" x2="17.4939" y2="72" gradientUnits="userSpaceOnUse">
<stop stop-color="#76717F" stop-opacity="0"/>
<stop offset="0.245" stop-color="#71717A"/>
<stop offset="0.75" stop-color="#71717A"/>
<stop offset="1" stop-color="#76717F" stop-opacity="0"/>
</linearGradient>
<linearGradient id="paint3_linear_5515_5849" x1="197.5" y1="3.82707e-06" x2="197.494" y2="72" gradientUnits="userSpaceOnUse">
<stop stop-color="#76717F" stop-opacity="0"/>
<stop offset="0.245" stop-color="#71717A"/>
<stop offset="0.75" stop-color="#71717A"/>
<stop offset="1" stop-color="#76717F" stop-opacity="0"/>
</linearGradient>
<clipPath id="clip0_5515_5849">
<rect width="212" height="72" fill="white"/>
</clipPath>
</defs>
</svg>
