<svg width="230" height="150" viewBox="0 0 230 150" fill="none" xmlns="http://www.w3.org/2000/svg">
<g clip-path="url(#clip0_5593_131)">
<path d="M25 150L25 -8.10623e-06" stroke="url(#paint0_linear_5593_131)" stroke-opacity="0.4"/>
<path d="M205 150L205 -8.10623e-06" stroke="url(#paint1_linear_5593_131)" stroke-opacity="0.4"/>
<path d="M230 20L-4.11272e-06 20" stroke="url(#paint2_linear_5593_131)" stroke-opacity="0.4"/>
<path d="M230 130L-4.11272e-06 130" stroke="url(#paint3_linear_5593_131)" stroke-opacity="0.4"/>
<rect x="25" y="20" width="180" height="110" rx="8" fill="#F4F4F5"/>
<path d="M83.424 80.224C82.2387 80.224 81.324 79.9533 80.68 79.412C80.036 78.8613 79.6907 78.124 79.644 77.2L81.506 77.116C81.562 77.648 81.758 78.0353 82.094 78.278C82.4393 78.5207 82.8827 78.642 83.424 78.642C83.788 78.642 84.1193 78.5907 84.418 78.488C84.7167 78.376 84.9547 78.208 85.132 77.984C85.3093 77.76 85.398 77.4707 85.398 77.116C85.398 76.5747 85.216 76.1733 84.852 75.912C84.488 75.6507 84.0027 75.52 83.396 75.52H82.528V74.078H83.396C83.872 74.078 84.2687 73.98 84.586 73.784C84.9127 73.5787 85.076 73.238 85.076 72.762C85.076 72.3327 84.9407 72.0013 84.67 71.768C84.4087 71.5347 83.998 71.418 83.438 71.418C82.8873 71.418 82.472 71.53 82.192 71.754C81.912 71.978 81.744 72.272 81.688 72.636L79.826 72.538C79.9287 71.7167 80.288 71.0633 80.904 70.578C81.5293 70.0833 82.374 69.836 83.438 69.836C84.1847 69.836 84.8193 69.948 85.342 70.172C85.8647 70.396 86.2613 70.7133 86.532 71.124C86.812 71.5347 86.952 72.0247 86.952 72.594C86.952 73.1913 86.756 73.6813 86.364 74.064C85.972 74.4467 85.412 74.7033 84.684 74.834V74.596C85.496 74.708 86.1307 74.9973 86.588 75.464C87.0453 75.9213 87.274 76.5047 87.274 77.214C87.274 77.8487 87.1153 78.39 86.798 78.838C86.4807 79.286 86.0327 79.6313 85.454 79.874C84.8753 80.1073 84.1987 80.224 83.424 80.224ZM88.7401 80C88.7401 79.1973 88.8521 78.4973 89.0761 77.9C89.3001 77.2933 89.6781 76.7427 90.2101 76.248C90.7421 75.744 91.4607 75.254 92.3661 74.778C92.8141 74.5353 93.1734 74.3207 93.4441 74.134C93.7147 73.9473 93.9107 73.756 94.0321 73.56C94.1534 73.3547 94.2141 73.112 94.2141 72.832C94.2141 72.552 94.1534 72.3093 94.0321 72.104C93.9107 71.8893 93.7287 71.7213 93.4861 71.6C93.2527 71.4787 92.9587 71.418 92.6041 71.418C92.0347 71.418 91.5821 71.5813 91.2461 71.908C90.9194 72.2253 90.7187 72.6827 90.6441 73.28L88.7681 73.168C88.8614 72.132 89.2394 71.32 89.9021 70.732C90.5741 70.1347 91.4747 69.836 92.6041 69.836C93.3321 69.836 93.9574 69.962 94.4801 70.214C95.0027 70.4567 95.3994 70.802 95.6701 71.25C95.9501 71.698 96.0901 72.216 96.0901 72.804C96.0901 73.308 96.0014 73.742 95.8241 74.106C95.6561 74.47 95.3761 74.806 94.9841 75.114C94.6014 75.4127 94.0834 75.7347 93.4301 76.08C92.6087 76.5187 91.9927 76.9433 91.5821 77.354C91.1714 77.7553 90.9521 78.11 90.9241 78.418H96.0901V80H88.7401ZM101.534 80.224C100.694 80.224 99.9618 80.014 99.3364 79.594C98.7204 79.174 98.2444 78.5767 97.9084 77.802C97.5724 77.0273 97.4044 76.108 97.4044 75.044C97.4044 73.98 97.5724 73.0607 97.9084 72.286C98.2444 71.502 98.7204 70.9 99.3364 70.48C99.9618 70.0507 100.694 69.836 101.534 69.836C102.393 69.836 103.13 70.0507 103.746 70.48C104.362 70.9 104.838 71.4973 105.174 72.272C105.51 73.0467 105.678 73.9707 105.678 75.044C105.678 76.108 105.51 77.0273 105.174 77.802C104.838 78.5767 104.362 79.174 103.746 79.594C103.13 80.014 102.393 80.224 101.534 80.224ZM101.534 78.642C102.262 78.642 102.822 78.3387 103.214 77.732C103.606 77.116 103.802 76.22 103.802 75.044C103.802 74.26 103.714 73.5973 103.536 73.056C103.359 72.5147 103.102 72.1087 102.766 71.838C102.44 71.558 102.029 71.418 101.534 71.418C101.058 71.418 100.652 71.558 100.316 71.838C99.9804 72.1087 99.7238 72.5147 99.5464 73.056C99.3691 73.5973 99.2804 74.26 99.2804 75.044C99.2804 76.22 99.4764 77.116 99.8684 77.732C100.26 78.3387 100.816 78.642 101.534 78.642ZM110.212 78.026L115.42 72.818L116.484 73.868L111.262 79.076L110.212 78.026ZM110.212 73.868L111.262 72.818L116.484 78.026L115.42 79.076L110.212 73.868ZM124.921 80.224C124.147 80.224 123.489 80.1027 122.947 79.86C122.406 79.6173 121.986 79.2813 121.687 78.852C121.389 78.4133 121.211 77.9047 121.155 77.326L123.017 77.228C123.092 77.6947 123.297 78.0447 123.633 78.278C123.969 78.5113 124.399 78.628 124.921 78.628C125.528 78.628 125.999 78.4647 126.335 78.138C126.681 77.802 126.853 77.3307 126.853 76.724C126.853 76.3413 126.774 76.0053 126.615 75.716C126.466 75.4267 126.247 75.2027 125.957 75.044C125.668 74.8853 125.318 74.806 124.907 74.806C124.487 74.806 124.119 74.8993 123.801 75.086C123.493 75.2633 123.269 75.5013 123.129 75.8H121.281L121.967 70.06H128.057V71.642H123.549L123.157 74.806L122.919 74.596C123.069 74.3347 123.265 74.1153 123.507 73.938C123.75 73.7513 124.03 73.6113 124.347 73.518C124.674 73.4247 125.024 73.378 125.397 73.378C126.069 73.378 126.653 73.5227 127.147 73.812C127.651 74.1013 128.039 74.498 128.309 75.002C128.589 75.506 128.729 76.08 128.729 76.724C128.729 77.424 128.571 78.04 128.253 78.572C127.945 79.0947 127.502 79.5007 126.923 79.79C126.354 80.0793 125.687 80.224 124.921 80.224ZM134.109 80.224C133.288 80.224 132.597 80.0467 132.037 79.692C131.477 79.3373 131.052 78.8193 130.763 78.138C130.483 77.4567 130.343 76.64 130.343 75.688C130.343 74.8573 130.422 74.0873 130.581 73.378C130.74 72.6687 130.982 72.0527 131.309 71.53C131.645 70.998 132.07 70.5827 132.583 70.284C133.106 69.9853 133.731 69.836 134.459 69.836C135.392 69.836 136.13 70.0647 136.671 70.522C137.212 70.9793 137.576 71.5907 137.763 72.356L136.041 72.496C135.929 72.1507 135.752 71.8847 135.509 71.698C135.276 71.502 134.921 71.404 134.445 71.404C133.736 71.404 133.176 71.7073 132.765 72.314C132.364 72.9207 132.149 73.8587 132.121 75.128L131.841 75.072C131.934 74.7827 132.098 74.512 132.331 74.26C132.574 74.008 132.872 73.8073 133.227 73.658C133.582 73.4993 133.997 73.42 134.473 73.42C135.145 73.42 135.728 73.5553 136.223 73.826C136.727 74.0967 137.119 74.484 137.399 74.988C137.679 75.4827 137.819 76.0613 137.819 76.724C137.819 77.452 137.66 78.082 137.343 78.614C137.026 79.1367 136.587 79.538 136.027 79.818C135.476 80.0887 134.837 80.224 134.109 80.224ZM134.109 78.698C134.66 78.698 135.108 78.5253 135.453 78.18C135.808 77.8253 135.985 77.34 135.985 76.724C135.985 76.3413 135.906 76.0053 135.747 75.716C135.598 75.4267 135.388 75.2073 135.117 75.058C134.856 74.8993 134.543 74.82 134.179 74.82C133.796 74.82 133.456 74.8993 133.157 75.058C132.868 75.2073 132.634 75.4267 132.457 75.716C132.289 76.0053 132.205 76.3413 132.205 76.724C132.205 77.116 132.28 77.4613 132.429 77.76C132.588 78.0493 132.812 78.278 133.101 78.446C133.39 78.614 133.726 78.698 134.109 78.698ZM143.145 80.224C142.352 80.224 141.652 80.112 141.045 79.888C140.448 79.664 139.981 79.3373 139.645 78.908C139.309 78.4693 139.141 77.928 139.141 77.284C139.141 76.556 139.365 75.954 139.813 75.478C140.27 74.9927 140.882 74.6753 141.647 74.526L141.675 74.82C141.05 74.68 140.55 74.4233 140.177 74.05C139.813 73.6673 139.631 73.1727 139.631 72.566C139.631 72.034 139.766 71.5627 140.037 71.152C140.317 70.7413 140.718 70.4193 141.241 70.186C141.773 69.9527 142.408 69.836 143.145 69.836C143.892 69.836 144.526 69.9527 145.049 70.186C145.581 70.4193 145.982 70.7413 146.253 71.152C146.533 71.5627 146.673 72.034 146.673 72.566C146.673 73.1727 146.486 73.6627 146.113 74.036C145.749 74.4093 145.254 74.6707 144.629 74.82L144.657 74.526C145.422 74.6753 146.029 74.9927 146.477 75.478C146.925 75.954 147.149 76.556 147.149 77.284C147.149 77.928 146.981 78.4693 146.645 78.908C146.318 79.3373 145.856 79.664 145.259 79.888C144.662 80.112 143.957 80.224 143.145 80.224ZM143.145 78.628C143.789 78.628 144.302 78.4973 144.685 78.236C145.077 77.9653 145.273 77.5687 145.273 77.046C145.273 76.5513 145.091 76.1547 144.727 75.856C144.372 75.548 143.845 75.394 143.145 75.394C142.454 75.394 141.927 75.548 141.563 75.856C141.208 76.1547 141.031 76.5513 141.031 77.046C141.031 77.5687 141.222 77.9653 141.605 78.236C141.988 78.4973 142.501 78.628 143.145 78.628ZM143.145 74.036C143.668 74.036 144.074 73.9287 144.363 73.714C144.662 73.49 144.811 73.1587 144.811 72.72C144.811 72.3187 144.671 72.0013 144.391 71.768C144.111 71.5347 143.696 71.418 143.145 71.418C142.613 71.418 142.202 71.5347 141.913 71.768C141.633 72.0013 141.493 72.3187 141.493 72.72C141.493 73.1587 141.638 73.49 141.927 73.714C142.216 73.9287 142.622 74.036 143.145 74.036Z" fill="#18181B"/>
</g>
<defs>
<linearGradient id="paint0_linear_5593_131" x1="25.5" y1="8.04235e-06" x2="25.4735" y2="150" gradientUnits="userSpaceOnUse">
<stop stop-color="#76717F" stop-opacity="0"/>
<stop offset="0.245" stop-color="#71717A"/>
<stop offset="0.75" stop-color="#71717A"/>
<stop offset="1" stop-color="#76717F" stop-opacity="0"/>
</linearGradient>
<linearGradient id="paint1_linear_5593_131" x1="205.5" y1="8.04235e-06" x2="205.473" y2="150" gradientUnits="userSpaceOnUse">
<stop stop-color="#76717F" stop-opacity="0"/>
<stop offset="0.245" stop-color="#71717A"/>
<stop offset="0.75" stop-color="#71717A"/>
<stop offset="1" stop-color="#76717F" stop-opacity="0"/>
</linearGradient>
<linearGradient id="paint2_linear_5593_131" x1="1.22952e-05" y1="19.5" x2="230" y2="19.5624" gradientUnits="userSpaceOnUse">
<stop stop-color="#76717F" stop-opacity="0"/>
<stop offset="0.245" stop-color="#71717A"/>
<stop offset="0.75" stop-color="#71717A"/>
<stop offset="1" stop-color="#76717F" stop-opacity="0"/>
</linearGradient>
<linearGradient id="paint3_linear_5593_131" x1="1.22952e-05" y1="129.5" x2="230" y2="129.562" gradientUnits="userSpaceOnUse">
<stop stop-color="#76717F" stop-opacity="0"/>
<stop offset="0.245" stop-color="#71717A"/>
<stop offset="0.75" stop-color="#71717A"/>
<stop offset="1" stop-color="#76717F" stop-opacity="0"/>
</linearGradient>
<clipPath id="clip0_5593_131">
<rect width="230" height="150" fill="white"/>
</clipPath>
</defs>
</svg>
