<svg width="230" height="150" viewBox="0 0 230 150" fill="none" xmlns="http://www.w3.org/2000/svg">
<g clip-path="url(#clip0_5593_156)">
<path d="M25 150L25 -8.10623e-06" stroke="url(#paint0_linear_5593_156)" stroke-opacity="0.4"/>
<path d="M205 150L205 -8.10623e-06" stroke="url(#paint1_linear_5593_156)" stroke-opacity="0.4"/>
<path d="M230 20L-4.11272e-06 20" stroke="url(#paint2_linear_5593_156)" stroke-opacity="0.4"/>
<path d="M230 130L-4.11272e-06 130" stroke="url(#paint3_linear_5593_156)" stroke-opacity="0.4"/>
<rect x="25" y="20" width="180" height="110" rx="4" fill="#F4F4F5"/>
<path d="M25 24C25 21.7909 26.7909 20 29 20H201C203.209 20 205 21.7909 205 24V42H25V24Z" fill="#F4F4F5"/>
<path d="M61.9 79V70.48H63.172V74.056L63.016 74.032C63.088 73.672 63.22 73.38 63.412 73.156C63.604 72.924 63.84 72.752 64.12 72.64C64.4 72.528 64.708 72.472 65.044 72.472C65.508 72.472 65.9 72.576 66.22 72.784C66.54 72.984 66.78 73.268 66.94 73.636C67.108 74.004 67.192 74.424 67.192 74.896V79H65.92V75.232C65.92 74.656 65.82 74.232 65.62 73.96C65.428 73.68 65.124 73.54 64.708 73.54C64.244 73.54 63.872 73.688 63.592 73.984C63.312 74.272 63.172 74.696 63.172 75.256V79H61.9ZM70.9808 79C70.3728 79 69.9248 78.86 69.6368 78.58C69.3488 78.3 69.2048 77.864 69.2048 77.272V71.116H70.4768V77.176C70.4768 77.472 70.5408 77.676 70.6688 77.788C70.7968 77.9 70.9928 77.956 71.2568 77.956H72.1688V79H70.9808ZM68.2328 73.66V72.616H72.1688V73.66H68.2328ZM74.8568 79C74.2488 79 73.8008 78.86 73.5128 78.58C73.2248 78.3 73.0808 77.864 73.0808 77.272V71.116H74.3528V77.176C74.3528 77.472 74.4168 77.676 74.5448 77.788C74.6728 77.9 74.8688 77.956 75.1328 77.956H76.0448V79H74.8568ZM72.1088 73.66V72.616H76.0448V73.66H72.1088ZM77.3805 80.8V72.616H78.5805L78.6165 73.984L78.4725 73.912C78.6325 73.44 78.8965 73.084 79.2645 72.844C79.6325 72.596 80.0565 72.472 80.5365 72.472C81.1605 72.472 81.6725 72.628 82.0725 72.94C82.4805 73.244 82.7805 73.648 82.9725 74.152C83.1725 74.656 83.2725 75.208 83.2725 75.808C83.2725 76.408 83.1725 76.96 82.9725 77.464C82.7805 77.968 82.4805 78.376 82.0725 78.688C81.6725 78.992 81.1605 79.144 80.5365 79.144C80.2165 79.144 79.9165 79.088 79.6365 78.976C79.3565 78.864 79.1165 78.708 78.9165 78.508C78.7245 78.3 78.5885 78.056 78.5085 77.776L78.6525 77.632V80.8H77.3805ZM80.3085 78.04C80.8205 78.04 81.2205 77.844 81.5085 77.452C81.8045 77.06 81.9525 76.512 81.9525 75.808C81.9525 75.104 81.8045 74.556 81.5085 74.164C81.2205 73.772 80.8205 73.576 80.3085 73.576C79.9725 73.576 79.6805 73.66 79.4325 73.828C79.1845 73.988 78.9925 74.236 78.8565 74.572C78.7205 74.908 78.6525 75.32 78.6525 75.808C78.6525 76.296 78.7165 76.708 78.8445 77.044C78.9805 77.38 79.1725 77.632 79.4205 77.8C79.6765 77.96 79.9725 78.04 80.3085 78.04ZM87.0241 79.144C86.4241 79.144 85.9161 79.052 85.5001 78.868C85.0921 78.684 84.7761 78.432 84.5521 78.112C84.3281 77.784 84.2001 77.408 84.1681 76.984L85.4761 76.924C85.5401 77.276 85.6921 77.556 85.9321 77.764C86.1721 77.972 86.5361 78.076 87.0241 78.076C87.4241 78.076 87.7401 78.012 87.9721 77.884C88.2041 77.756 88.3201 77.552 88.3201 77.272C88.3201 77.12 88.2801 76.992 88.2001 76.888C88.1281 76.776 87.9841 76.684 87.7681 76.612C87.5521 76.532 87.2321 76.456 86.8081 76.384C86.1761 76.264 85.6801 76.124 85.3201 75.964C84.9601 75.804 84.7041 75.6 84.5521 75.352C84.4001 75.104 84.3241 74.804 84.3241 74.452C84.3241 73.868 84.5401 73.392 84.9721 73.024C85.4121 72.656 86.0441 72.472 86.8681 72.472C87.4201 72.472 87.8841 72.568 88.2601 72.76C88.6361 72.944 88.9281 73.196 89.1361 73.516C89.3521 73.828 89.4881 74.18 89.5441 74.572L88.2361 74.644C88.1961 74.42 88.1161 74.228 87.9961 74.068C87.8841 73.9 87.7321 73.772 87.5401 73.684C87.3481 73.588 87.1201 73.54 86.8561 73.54C86.4481 73.54 86.1441 73.62 85.9441 73.78C85.7441 73.94 85.6441 74.148 85.6441 74.404C85.6441 74.596 85.6881 74.752 85.7761 74.872C85.8721 74.992 86.0241 75.092 86.2321 75.172C86.4401 75.244 86.7161 75.308 87.0601 75.364C87.7241 75.476 88.2441 75.616 88.6201 75.784C88.9961 75.944 89.2601 76.144 89.4121 76.384C89.5641 76.624 89.6401 76.916 89.6401 77.26C89.6401 77.66 89.5281 78 89.3041 78.28C89.0801 78.56 88.7721 78.776 88.3801 78.928C87.9881 79.072 87.5361 79.144 87.0241 79.144ZM91.1765 79V77.488H92.7245V79H91.1765ZM91.1765 74.428V72.916H92.7245V74.428H91.1765ZM93.9753 80.32L97.5273 70H98.7513L95.2113 80.32H93.9753ZM98.5924 80.32L102.144 70H103.368L99.8284 80.32H98.5924ZM105.028 79V72.208C105.028 71.68 105.176 71.26 105.472 70.948C105.768 70.636 106.232 70.48 106.864 70.48H107.992V71.524H107.032C106.784 71.524 106.6 71.592 106.48 71.728C106.36 71.856 106.3 72.04 106.3 72.28V79H105.028ZM104.14 73.732V72.7H107.896V73.732H104.14ZM110.5 79C110.084 79 109.748 78.892 109.492 78.676C109.236 78.46 109.108 78.116 109.108 77.644V70.48H110.38V77.524C110.38 77.668 110.416 77.776 110.488 77.848C110.568 77.92 110.68 77.956 110.824 77.956H111.328V79H110.5ZM112.522 80.8V79.756H113.302C113.518 79.756 113.678 79.724 113.782 79.66C113.886 79.596 113.966 79.488 114.022 79.336L114.226 78.808H113.83L111.526 72.616H112.87L114.622 77.632L116.29 72.616H117.646L115.102 79.744C114.974 80.112 114.782 80.38 114.526 80.548C114.278 80.716 113.93 80.8 113.482 80.8H112.522ZM121.094 79.144C120.486 79.144 119.954 79.008 119.498 78.736C119.042 78.464 118.69 78.076 118.442 77.572C118.194 77.068 118.07 76.48 118.07 75.808C118.07 75.128 118.194 74.54 118.442 74.044C118.69 73.548 119.042 73.164 119.498 72.892C119.954 72.612 120.486 72.472 121.094 72.472C121.702 72.472 122.234 72.612 122.69 72.892C123.146 73.164 123.498 73.548 123.746 74.044C123.994 74.54 124.118 75.128 124.118 75.808C124.118 76.48 123.994 77.068 123.746 77.572C123.498 78.076 123.146 78.464 122.69 78.736C122.234 79.008 121.702 79.144 121.094 79.144ZM121.094 78.04C121.638 78.04 122.058 77.844 122.354 77.452C122.65 77.052 122.798 76.504 122.798 75.808C122.798 75.112 122.65 74.568 122.354 74.176C122.058 73.776 121.638 73.576 121.094 73.576C120.558 73.576 120.138 73.776 119.834 74.176C119.538 74.568 119.39 75.112 119.39 75.808C119.39 76.504 119.538 77.052 119.834 77.452C120.138 77.844 120.558 78.04 121.094 78.04ZM125.404 79V72.616H126.568L126.616 74.32L126.46 74.236C126.532 73.82 126.668 73.484 126.868 73.228C127.068 72.972 127.312 72.784 127.6 72.664C127.888 72.536 128.2 72.472 128.536 72.472C129.016 72.472 129.412 72.58 129.724 72.796C130.044 73.004 130.284 73.292 130.444 73.66C130.612 74.02 130.696 74.432 130.696 74.896V79H129.424V75.28C129.424 74.904 129.384 74.588 129.304 74.332C129.224 74.076 129.092 73.88 128.908 73.744C128.724 73.608 128.484 73.54 128.188 73.54C127.74 73.54 127.376 73.688 127.096 73.984C126.816 74.28 126.676 74.712 126.676 75.28V79H125.404ZM134.43 79.144C133.79 79.144 133.278 78.932 132.894 78.508C132.518 78.076 132.33 77.48 132.33 76.72V72.616H133.602V76.396C133.602 76.972 133.702 77.396 133.902 77.668C134.102 77.94 134.406 78.076 134.814 78.076C135.278 78.076 135.638 77.928 135.894 77.632C136.158 77.328 136.29 76.904 136.29 76.36V72.616H137.562V79H136.374L136.35 77.332L136.53 77.404C136.418 77.964 136.182 78.396 135.822 78.7C135.462 78.996 134.998 79.144 134.43 79.144ZM139.209 79V72.616H140.481V79H139.209ZM139.185 71.692V70.42H140.505V71.692H139.185ZM141.883 79V77.488H143.431V79H141.883ZM147.462 79.144C146.854 79.144 146.322 79.008 145.866 78.736C145.41 78.464 145.058 78.076 144.81 77.572C144.562 77.068 144.438 76.48 144.438 75.808C144.438 75.136 144.562 74.552 144.81 74.056C145.058 73.552 145.41 73.164 145.866 72.892C146.322 72.612 146.854 72.472 147.462 72.472C147.982 72.472 148.442 72.564 148.842 72.748C149.25 72.924 149.578 73.184 149.826 73.528C150.082 73.872 150.246 74.292 150.318 74.788L148.986 74.86C148.922 74.444 148.754 74.128 148.482 73.912C148.21 73.688 147.87 73.576 147.462 73.576C146.926 73.576 146.506 73.776 146.202 74.176C145.906 74.568 145.758 75.112 145.758 75.808C145.758 76.504 145.906 77.052 146.202 77.452C146.506 77.844 146.926 78.04 147.462 78.04C147.87 78.04 148.21 77.928 148.482 77.704C148.754 77.472 148.922 77.124 148.986 76.66L150.318 76.732C150.246 77.22 150.082 77.644 149.826 78.004C149.578 78.364 149.25 78.644 148.842 78.844C148.442 79.044 147.982 79.144 147.462 79.144ZM154.106 79.144C153.498 79.144 152.966 79.008 152.51 78.736C152.054 78.464 151.702 78.076 151.454 77.572C151.206 77.068 151.082 76.48 151.082 75.808C151.082 75.128 151.206 74.54 151.454 74.044C151.702 73.548 152.054 73.164 152.51 72.892C152.966 72.612 153.498 72.472 154.106 72.472C154.714 72.472 155.246 72.612 155.702 72.892C156.158 73.164 156.51 73.548 156.758 74.044C157.006 74.54 157.13 75.128 157.13 75.808C157.13 76.48 157.006 77.068 156.758 77.572C156.51 78.076 156.158 78.464 155.702 78.736C155.246 79.008 154.714 79.144 154.106 79.144ZM154.106 78.04C154.65 78.04 155.07 77.844 155.366 77.452C155.662 77.052 155.81 76.504 155.81 75.808C155.81 75.112 155.662 74.568 155.366 74.176C155.07 73.776 154.65 73.576 154.106 73.576C153.57 73.576 153.15 73.776 152.846 74.176C152.55 74.568 152.402 75.112 152.402 75.808C152.402 76.504 152.55 77.052 152.846 77.452C153.15 77.844 153.57 78.04 154.106 78.04ZM158.416 79V72.616H159.58L159.616 74.2L159.472 74.152C159.544 73.8 159.668 73.5 159.844 73.252C160.028 73.004 160.252 72.812 160.516 72.676C160.78 72.54 161.068 72.472 161.38 72.472C161.924 72.472 162.368 72.628 162.712 72.94C163.056 73.244 163.272 73.664 163.36 74.2H163.156C163.228 73.824 163.348 73.512 163.516 73.264C163.692 73.008 163.916 72.812 164.188 72.676C164.46 72.54 164.768 72.472 165.112 72.472C165.56 72.472 165.94 72.568 166.252 72.76C166.572 72.944 166.812 73.216 166.972 73.576C167.14 73.936 167.224 74.376 167.224 74.896V79H165.952V75.208C165.952 74.656 165.852 74.24 165.652 73.96C165.452 73.68 165.148 73.54 164.74 73.54C164.476 73.54 164.244 73.608 164.044 73.744C163.844 73.88 163.688 74.076 163.576 74.332C163.472 74.588 163.42 74.896 163.42 75.256V79H162.208V75.256C162.208 74.712 162.116 74.292 161.932 73.996C161.756 73.692 161.452 73.54 161.02 73.54C160.748 73.54 160.512 73.608 160.312 73.744C160.12 73.88 159.968 74.08 159.856 74.344C159.744 74.6 159.688 74.904 159.688 75.256V79H158.416Z" fill="#18181B"/>
<circle cx="38" cy="31" r="4" fill="#18181B"/>
<circle opacity="0.4" cx="50" cy="31" r="4" fill="#18181B"/>
<circle opacity="0.4" cx="62" cy="31" r="4" fill="#18181B"/>
</g>
<defs>
<linearGradient id="paint0_linear_5593_156" x1="25.5" y1="8.04235e-06" x2="25.4735" y2="150" gradientUnits="userSpaceOnUse">
<stop stop-color="#76717F" stop-opacity="0"/>
<stop offset="0.245" stop-color="#71717A"/>
<stop offset="0.75" stop-color="#71717A"/>
<stop offset="1" stop-color="#76717F" stop-opacity="0"/>
</linearGradient>
<linearGradient id="paint1_linear_5593_156" x1="205.5" y1="8.04235e-06" x2="205.473" y2="150" gradientUnits="userSpaceOnUse">
<stop stop-color="#76717F" stop-opacity="0"/>
<stop offset="0.245" stop-color="#71717A"/>
<stop offset="0.75" stop-color="#71717A"/>
<stop offset="1" stop-color="#76717F" stop-opacity="0"/>
</linearGradient>
<linearGradient id="paint2_linear_5593_156" x1="1.22952e-05" y1="19.5" x2="230" y2="19.5624" gradientUnits="userSpaceOnUse">
<stop stop-color="#76717F" stop-opacity="0"/>
<stop offset="0.245" stop-color="#71717A"/>
<stop offset="0.75" stop-color="#71717A"/>
<stop offset="1" stop-color="#76717F" stop-opacity="0"/>
</linearGradient>
<linearGradient id="paint3_linear_5593_156" x1="1.22952e-05" y1="129.5" x2="230" y2="129.562" gradientUnits="userSpaceOnUse">
<stop stop-color="#76717F" stop-opacity="0"/>
<stop offset="0.245" stop-color="#71717A"/>
<stop offset="0.75" stop-color="#71717A"/>
<stop offset="1" stop-color="#76717F" stop-opacity="0"/>
</linearGradient>
<clipPath id="clip0_5593_156">
<rect width="230" height="150" fill="white"/>
</clipPath>
</defs>
</svg>
