<svg width="230" height="150" viewBox="0 0 230 150" fill="none" xmlns="http://www.w3.org/2000/svg">
<g clip-path="url(#clip0_5593_183)">
<path d="M25 150L25 -8.10623e-06" stroke="url(#paint0_linear_5593_183)" stroke-opacity="0.4"/>
<path d="M205 150L205 -8.10623e-06" stroke="url(#paint1_linear_5593_183)" stroke-opacity="0.4"/>
<path d="M230 20L-4.11272e-06 20" stroke="url(#paint2_linear_5593_183)" stroke-opacity="0.4"/>
<path d="M230 130L-4.11272e-06 130" stroke="url(#paint3_linear_5593_183)" stroke-opacity="0.4"/>
<rect x="25" y="20" width="180" height="110" rx="4" fill="#F4F4F5"/>
<path d="M44.48 71.08V60.4H45.392V71.08H44.48ZM45.032 70.168C44.368 70.168 43.792 70.048 43.304 69.808C42.816 69.56 42.428 69.22 42.14 68.788C41.86 68.356 41.696 67.856 41.648 67.288L42.956 67.216C43.004 67.6 43.116 67.928 43.292 68.2C43.468 68.464 43.7 68.668 43.988 68.812C44.284 68.948 44.64 69.016 45.056 69.016C45.416 69.016 45.724 68.972 45.98 68.884C46.236 68.788 46.428 68.652 46.556 68.476C46.692 68.3 46.76 68.08 46.76 67.816C46.76 67.576 46.704 67.368 46.592 67.192C46.48 67.008 46.264 66.84 45.944 66.688C45.624 66.528 45.156 66.376 44.54 66.232C43.876 66.072 43.344 65.892 42.944 65.692C42.544 65.492 42.256 65.248 42.08 64.96C41.912 64.664 41.828 64.296 41.828 63.856C41.828 63.384 41.944 62.968 42.176 62.608C42.408 62.24 42.736 61.956 43.16 61.756C43.592 61.548 44.108 61.444 44.708 61.444C45.348 61.444 45.892 61.56 46.34 61.792C46.796 62.024 47.156 62.344 47.42 62.752C47.684 63.16 47.848 63.628 47.912 64.156L46.604 64.228C46.564 63.916 46.464 63.636 46.304 63.388C46.152 63.14 45.94 62.948 45.668 62.812C45.396 62.668 45.068 62.596 44.684 62.596C44.204 62.596 43.824 62.708 43.544 62.932C43.264 63.156 43.124 63.452 43.124 63.82C43.124 64.06 43.18 64.26 43.292 64.42C43.412 64.58 43.616 64.72 43.904 64.84C44.2 64.96 44.62 65.084 45.164 65.212C45.884 65.38 46.456 65.584 46.88 65.824C47.304 66.056 47.608 66.332 47.792 66.652C47.976 66.972 48.068 67.336 48.068 67.744C48.068 68.24 47.94 68.672 47.684 69.04C47.428 69.4 47.072 69.68 46.616 69.88C46.16 70.072 45.632 70.168 45.032 70.168ZM52.5289 70V63.616H53.6929L53.7409 65.32L53.5849 65.236C53.6569 64.82 53.7929 64.484 53.9929 64.228C54.1929 63.972 54.4369 63.784 54.7249 63.664C55.0129 63.536 55.3249 63.472 55.6609 63.472C56.1409 63.472 56.5369 63.58 56.8489 63.796C57.1689 64.004 57.4089 64.292 57.5689 64.66C57.7369 65.02 57.8209 65.432 57.8209 65.896V70H56.5489V66.28C56.5489 65.904 56.5089 65.588 56.4289 65.332C56.3489 65.076 56.2169 64.88 56.0329 64.744C55.8489 64.608 55.6089 64.54 55.3129 64.54C54.8649 64.54 54.5009 64.688 54.2209 64.984C53.9409 65.28 53.8009 65.712 53.8009 66.28V70H52.5289ZM59.3961 71.8V63.616H60.5961L60.6321 64.984L60.4881 64.912C60.6481 64.44 60.9121 64.084 61.2801 63.844C61.6481 63.596 62.0721 63.472 62.5521 63.472C63.1761 63.472 63.6881 63.628 64.0881 63.94C64.4961 64.244 64.7961 64.648 64.9881 65.152C65.1881 65.656 65.2881 66.208 65.2881 66.808C65.2881 67.408 65.1881 67.96 64.9881 68.464C64.7961 68.968 64.4961 69.376 64.0881 69.688C63.6881 69.992 63.1761 70.144 62.5521 70.144C62.2321 70.144 61.9321 70.088 61.6521 69.976C61.3721 69.864 61.1321 69.708 60.9321 69.508C60.7401 69.3 60.6041 69.056 60.5241 68.776L60.6681 68.632V71.8H59.3961ZM62.3241 69.04C62.8361 69.04 63.2361 68.844 63.5241 68.452C63.8201 68.06 63.9681 67.512 63.9681 66.808C63.9681 66.104 63.8201 65.556 63.5241 65.164C63.2361 64.772 62.8361 64.576 62.3241 64.576C61.9881 64.576 61.6961 64.66 61.4481 64.828C61.2001 64.988 61.0081 65.236 60.8721 65.572C60.7361 65.908 60.6681 66.32 60.6681 66.808C60.6681 67.296 60.7321 67.708 60.8601 68.044C60.9961 68.38 61.1881 68.632 61.4361 68.8C61.6921 68.96 61.9881 69.04 62.3241 69.04ZM66.5797 70V63.616H67.7437L67.7797 65.2L67.6357 65.152C67.7077 64.8 67.8317 64.5 68.0077 64.252C68.1917 64.004 68.4157 63.812 68.6797 63.676C68.9437 63.54 69.2317 63.472 69.5437 63.472C70.0877 63.472 70.5317 63.628 70.8757 63.94C71.2197 64.244 71.4357 64.664 71.5237 65.2H71.3197C71.3917 64.824 71.5117 64.512 71.6797 64.264C71.8557 64.008 72.0797 63.812 72.3517 63.676C72.6237 63.54 72.9317 63.472 73.2757 63.472C73.7237 63.472 74.1037 63.568 74.4157 63.76C74.7357 63.944 74.9757 64.216 75.1357 64.576C75.3037 64.936 75.3877 65.376 75.3877 65.896V70H74.1157V66.208C74.1157 65.656 74.0157 65.24 73.8157 64.96C73.6157 64.68 73.3117 64.54 72.9037 64.54C72.6397 64.54 72.4077 64.608 72.2077 64.744C72.0077 64.88 71.8517 65.076 71.7397 65.332C71.6357 65.588 71.5837 65.896 71.5837 66.256V70H70.3717V66.256C70.3717 65.712 70.2797 65.292 70.0957 64.996C69.9197 64.692 69.6157 64.54 69.1837 64.54C68.9117 64.54 68.6757 64.608 68.4757 64.744C68.2837 64.88 68.1317 65.08 68.0197 65.344C67.9077 65.6 67.8517 65.904 67.8517 66.256V70H66.5797ZM80.1148 70V63.616H81.3868V70H80.1148ZM80.0908 62.692V61.42H81.4108V62.692H80.0908ZM86.7511 70V63.208C86.7511 62.68 86.8991 62.26 87.1951 61.948C87.4911 61.636 87.9551 61.48 88.5871 61.48H89.7151V62.524H88.7551C88.5071 62.524 88.3231 62.592 88.2031 62.728C88.0831 62.856 88.0231 63.04 88.0231 63.28V70H86.7511ZM85.8631 64.732V63.7H89.6191V64.732H85.8631ZM92.2231 70C91.8071 70 91.4711 69.892 91.2151 69.676C90.9591 69.46 90.8311 69.116 90.8311 68.644V61.48H92.1031V68.524C92.1031 68.668 92.1391 68.776 92.2111 68.848C92.2911 68.92 92.4031 68.956 92.5471 68.956H93.0511V70H92.2231ZM94.2444 71.8V70.756H95.0244C95.2404 70.756 95.4004 70.724 95.5044 70.66C95.6084 70.596 95.6884 70.488 95.7444 70.336L95.9484 69.808H95.5524L93.2484 63.616H94.5924L96.3444 68.632L98.0124 63.616H99.3684L96.8244 70.744C96.6964 71.112 96.5044 71.38 96.2484 71.548C96.0004 71.716 95.6524 71.8 95.2044 71.8H94.2444ZM102.817 70.144C102.209 70.144 101.677 70.008 101.221 69.736C100.765 69.464 100.413 69.076 100.165 68.572C99.9171 68.068 99.7931 67.48 99.7931 66.808C99.7931 66.128 99.9171 65.54 100.165 65.044C100.413 64.548 100.765 64.164 101.221 63.892C101.677 63.612 102.209 63.472 102.817 63.472C103.425 63.472 103.957 63.612 104.413 63.892C104.869 64.164 105.221 64.548 105.469 65.044C105.717 65.54 105.841 66.128 105.841 66.808C105.841 67.48 105.717 68.068 105.469 68.572C105.221 69.076 104.869 69.464 104.413 69.736C103.957 70.008 103.425 70.144 102.817 70.144ZM102.817 69.04C103.361 69.04 103.781 68.844 104.077 68.452C104.373 68.052 104.521 67.504 104.521 66.808C104.521 66.112 104.373 65.568 104.077 65.176C103.781 64.776 103.361 64.576 102.817 64.576C102.281 64.576 101.861 64.776 101.557 65.176C101.261 65.568 101.113 66.112 101.113 66.808C101.113 67.504 101.261 68.052 101.557 68.452C101.861 68.844 102.281 69.04 102.817 69.04ZM107.127 70V63.616H108.291L108.339 65.32L108.183 65.236C108.255 64.82 108.391 64.484 108.591 64.228C108.791 63.972 109.035 63.784 109.323 63.664C109.611 63.536 109.923 63.472 110.259 63.472C110.739 63.472 111.135 63.58 111.447 63.796C111.767 64.004 112.007 64.292 112.167 64.66C112.335 65.02 112.419 65.432 112.419 65.896V70H111.147V66.28C111.147 65.904 111.107 65.588 111.027 65.332C110.947 65.076 110.815 64.88 110.631 64.744C110.447 64.608 110.207 64.54 109.911 64.54C109.463 64.54 109.099 64.688 108.819 64.984C108.539 65.28 108.399 65.712 108.399 66.28V70H107.127ZM117.48 70.192C116.808 70.192 116.22 70.064 115.716 69.808C115.22 69.544 114.836 69.172 114.564 68.692C114.3 68.212 114.168 67.644 114.168 66.988V61.468H115.464V66.988C115.464 67.636 115.64 68.136 115.992 68.488C116.344 68.832 116.84 69.004 117.48 69.004C118.12 69.004 118.616 68.832 118.968 68.488C119.32 68.136 119.496 67.636 119.496 66.988V61.468H120.792V66.988C120.792 67.644 120.656 68.212 120.384 68.692C120.12 69.172 119.74 69.544 119.244 69.808C118.748 70.064 118.16 70.192 117.48 70.192ZM122.856 70V61.48H124.152V70H122.856Z" fill="#18181B"/>
<circle cx="45" cy="38" r="4" fill="#18181B"/>
<circle opacity="0.4" cx="57" cy="38" r="4" fill="#18181B"/>
<circle opacity="0.4" cx="69" cy="38" r="4" fill="#18181B"/>
</g>
<defs>
<linearGradient id="paint0_linear_5593_183" x1="25.5" y1="8.04235e-06" x2="25.4735" y2="150" gradientUnits="userSpaceOnUse">
<stop stop-color="#76717F" stop-opacity="0"/>
<stop offset="0.245" stop-color="#71717A"/>
<stop offset="0.75" stop-color="#71717A"/>
<stop offset="1" stop-color="#76717F" stop-opacity="0"/>
</linearGradient>
<linearGradient id="paint1_linear_5593_183" x1="205.5" y1="8.04235e-06" x2="205.473" y2="150" gradientUnits="userSpaceOnUse">
<stop stop-color="#76717F" stop-opacity="0"/>
<stop offset="0.245" stop-color="#71717A"/>
<stop offset="0.75" stop-color="#71717A"/>
<stop offset="1" stop-color="#76717F" stop-opacity="0"/>
</linearGradient>
<linearGradient id="paint2_linear_5593_183" x1="1.22952e-05" y1="19.5" x2="230" y2="19.5624" gradientUnits="userSpaceOnUse">
<stop stop-color="#76717F" stop-opacity="0"/>
<stop offset="0.245" stop-color="#71717A"/>
<stop offset="0.75" stop-color="#71717A"/>
<stop offset="1" stop-color="#76717F" stop-opacity="0"/>
</linearGradient>
<linearGradient id="paint3_linear_5593_183" x1="1.22952e-05" y1="129.5" x2="230" y2="129.562" gradientUnits="userSpaceOnUse">
<stop stop-color="#76717F" stop-opacity="0"/>
<stop offset="0.245" stop-color="#71717A"/>
<stop offset="0.75" stop-color="#71717A"/>
<stop offset="1" stop-color="#76717F" stop-opacity="0"/>
</linearGradient>
<clipPath id="clip0_5593_183">
<rect width="230" height="150" fill="white"/>
</clipPath>
</defs>
</svg>
