<svg width="230" height="150" viewBox="0 0 230 150" fill="none" xmlns="http://www.w3.org/2000/svg">
<g clip-path="url(#clip0_5593_238)">
<path d="M25 150L25 -8.10623e-06" stroke="url(#paint0_linear_5593_238)" stroke-opacity="0.4"/>
<path d="M205 150L205 -8.10623e-06" stroke="url(#paint1_linear_5593_238)" stroke-opacity="0.4"/>
<path d="M230 20L-4.11272e-06 20" stroke="url(#paint2_linear_5593_238)" stroke-opacity="0.4"/>
<path d="M230 130L-4.11272e-06 130" stroke="url(#paint3_linear_5593_238)" stroke-opacity="0.4"/>
<rect x="25" y="20" width="180" height="110" rx="4" fill="#F4F4F5"/>
<path d="M60.9 79V70.48H62.172V74.056L62.016 74.032C62.088 73.672 62.22 73.38 62.412 73.156C62.604 72.924 62.84 72.752 63.12 72.64C63.4 72.528 63.708 72.472 64.044 72.472C64.508 72.472 64.9 72.576 65.22 72.784C65.54 72.984 65.78 73.268 65.94 73.636C66.108 74.004 66.192 74.424 66.192 74.896V79H64.92V75.232C64.92 74.656 64.82 74.232 64.62 73.96C64.428 73.68 64.124 73.54 63.708 73.54C63.244 73.54 62.872 73.688 62.592 73.984C62.312 74.272 62.172 74.696 62.172 75.256V79H60.9ZM69.9808 79C69.3728 79 68.9248 78.86 68.6368 78.58C68.3488 78.3 68.2048 77.864 68.2048 77.272V71.116H69.4768V77.176C69.4768 77.472 69.5408 77.676 69.6688 77.788C69.7968 77.9 69.9928 77.956 70.2568 77.956H71.1688V79H69.9808ZM67.2328 73.66V72.616H71.1688V73.66H67.2328ZM73.8568 79C73.2488 79 72.8008 78.86 72.5128 78.58C72.2248 78.3 72.0808 77.864 72.0808 77.272V71.116H73.3528V77.176C73.3528 77.472 73.4168 77.676 73.5448 77.788C73.6728 77.9 73.8688 77.956 74.1328 77.956H75.0448V79H73.8568ZM71.1088 73.66V72.616H75.0448V73.66H71.1088ZM76.3805 80.8V72.616H77.5805L77.6165 73.984L77.4725 73.912C77.6325 73.44 77.8965 73.084 78.2645 72.844C78.6325 72.596 79.0565 72.472 79.5365 72.472C80.1605 72.472 80.6725 72.628 81.0725 72.94C81.4805 73.244 81.7805 73.648 81.9725 74.152C82.1725 74.656 82.2725 75.208 82.2725 75.808C82.2725 76.408 82.1725 76.96 81.9725 77.464C81.7805 77.968 81.4805 78.376 81.0725 78.688C80.6725 78.992 80.1605 79.144 79.5365 79.144C79.2165 79.144 78.9165 79.088 78.6365 78.976C78.3565 78.864 78.1165 78.708 77.9165 78.508C77.7245 78.3 77.5885 78.056 77.5085 77.776L77.6525 77.632V80.8H76.3805ZM79.3085 78.04C79.8205 78.04 80.2205 77.844 80.5085 77.452C80.8045 77.06 80.9525 76.512 80.9525 75.808C80.9525 75.104 80.8045 74.556 80.5085 74.164C80.2205 73.772 79.8205 73.576 79.3085 73.576C78.9725 73.576 78.6805 73.66 78.4325 73.828C78.1845 73.988 77.9925 74.236 77.8565 74.572C77.7205 74.908 77.6525 75.32 77.6525 75.808C77.6525 76.296 77.7165 76.708 77.8445 77.044C77.9805 77.38 78.1725 77.632 78.4205 77.8C78.6765 77.96 78.9725 78.04 79.3085 78.04ZM86.0241 79.144C85.4241 79.144 84.9161 79.052 84.5001 78.868C84.0921 78.684 83.7761 78.432 83.5521 78.112C83.3281 77.784 83.2001 77.408 83.1681 76.984L84.4761 76.924C84.5401 77.276 84.6921 77.556 84.9321 77.764C85.1721 77.972 85.5361 78.076 86.0241 78.076C86.4241 78.076 86.7401 78.012 86.9721 77.884C87.2041 77.756 87.3201 77.552 87.3201 77.272C87.3201 77.12 87.2801 76.992 87.2001 76.888C87.1281 76.776 86.9841 76.684 86.7681 76.612C86.5521 76.532 86.2321 76.456 85.8081 76.384C85.1761 76.264 84.6801 76.124 84.3201 75.964C83.9601 75.804 83.7041 75.6 83.5521 75.352C83.4001 75.104 83.3241 74.804 83.3241 74.452C83.3241 73.868 83.5401 73.392 83.9721 73.024C84.4121 72.656 85.0441 72.472 85.8681 72.472C86.4201 72.472 86.8841 72.568 87.2601 72.76C87.6361 72.944 87.9281 73.196 88.1361 73.516C88.3521 73.828 88.4881 74.18 88.5441 74.572L87.2361 74.644C87.1961 74.42 87.1161 74.228 86.9961 74.068C86.8841 73.9 86.7321 73.772 86.5401 73.684C86.3481 73.588 86.1201 73.54 85.8561 73.54C85.4481 73.54 85.1441 73.62 84.9441 73.78C84.7441 73.94 84.6441 74.148 84.6441 74.404C84.6441 74.596 84.6881 74.752 84.7761 74.872C84.8721 74.992 85.0241 75.092 85.2321 75.172C85.4401 75.244 85.7161 75.308 86.0601 75.364C86.7241 75.476 87.2441 75.616 87.6201 75.784C87.9961 75.944 88.2601 76.144 88.4121 76.384C88.5641 76.624 88.6401 76.916 88.6401 77.26C88.6401 77.66 88.5281 78 88.3041 78.28C88.0801 78.56 87.7721 78.776 87.3801 78.928C86.9881 79.072 86.5361 79.144 86.0241 79.144ZM90.1765 79V77.488H91.7245V79H90.1765ZM90.1765 74.428V72.916H91.7245V74.428H90.1765ZM92.9753 80.32L96.5273 70H97.7513L94.2113 80.32H92.9753ZM97.5924 80.32L101.144 70H102.368L98.8284 80.32H97.5924ZM104.028 79V72.208C104.028 71.68 104.176 71.26 104.472 70.948C104.768 70.636 105.232 70.48 105.864 70.48H106.992V71.524H106.032C105.784 71.524 105.6 71.592 105.48 71.728C105.36 71.856 105.3 72.04 105.3 72.28V79H104.028ZM103.14 73.732V72.7H106.896V73.732H103.14ZM109.5 79C109.084 79 108.748 78.892 108.492 78.676C108.236 78.46 108.108 78.116 108.108 77.644V70.48H109.38V77.524C109.38 77.668 109.416 77.776 109.488 77.848C109.568 77.92 109.68 77.956 109.824 77.956H110.328V79H109.5ZM111.522 80.8V79.756H112.302C112.518 79.756 112.678 79.724 112.782 79.66C112.886 79.596 112.966 79.488 113.022 79.336L113.226 78.808H112.83L110.526 72.616H111.87L113.622 77.632L115.29 72.616H116.646L114.102 79.744C113.974 80.112 113.782 80.38 113.526 80.548C113.278 80.716 112.93 80.8 112.482 80.8H111.522ZM120.094 79.144C119.486 79.144 118.954 79.008 118.498 78.736C118.042 78.464 117.69 78.076 117.442 77.572C117.194 77.068 117.07 76.48 117.07 75.808C117.07 75.128 117.194 74.54 117.442 74.044C117.69 73.548 118.042 73.164 118.498 72.892C118.954 72.612 119.486 72.472 120.094 72.472C120.702 72.472 121.234 72.612 121.69 72.892C122.146 73.164 122.498 73.548 122.746 74.044C122.994 74.54 123.118 75.128 123.118 75.808C123.118 76.48 122.994 77.068 122.746 77.572C122.498 78.076 122.146 78.464 121.69 78.736C121.234 79.008 120.702 79.144 120.094 79.144ZM120.094 78.04C120.638 78.04 121.058 77.844 121.354 77.452C121.65 77.052 121.798 76.504 121.798 75.808C121.798 75.112 121.65 74.568 121.354 74.176C121.058 73.776 120.638 73.576 120.094 73.576C119.558 73.576 119.138 73.776 118.834 74.176C118.538 74.568 118.39 75.112 118.39 75.808C118.39 76.504 118.538 77.052 118.834 77.452C119.138 77.844 119.558 78.04 120.094 78.04ZM124.404 79V72.616H125.568L125.616 74.32L125.46 74.236C125.532 73.82 125.668 73.484 125.868 73.228C126.068 72.972 126.312 72.784 126.6 72.664C126.888 72.536 127.2 72.472 127.536 72.472C128.016 72.472 128.412 72.58 128.724 72.796C129.044 73.004 129.284 73.292 129.444 73.66C129.612 74.02 129.696 74.432 129.696 74.896V79H128.424V75.28C128.424 74.904 128.384 74.588 128.304 74.332C128.224 74.076 128.092 73.88 127.908 73.744C127.724 73.608 127.484 73.54 127.188 73.54C126.74 73.54 126.376 73.688 126.096 73.984C125.816 74.28 125.676 74.712 125.676 75.28V79H124.404ZM133.43 79.144C132.79 79.144 132.278 78.932 131.894 78.508C131.518 78.076 131.33 77.48 131.33 76.72V72.616H132.602V76.396C132.602 76.972 132.702 77.396 132.902 77.668C133.102 77.94 133.406 78.076 133.814 78.076C134.278 78.076 134.638 77.928 134.894 77.632C135.158 77.328 135.29 76.904 135.29 76.36V72.616H136.562V79H135.374L135.35 77.332L135.53 77.404C135.418 77.964 135.182 78.396 134.822 78.7C134.462 78.996 133.998 79.144 133.43 79.144ZM138.209 79V72.616H139.481V79H138.209ZM138.185 71.692V70.42H139.505V71.692H138.185ZM140.883 79V77.488H142.431V79H140.883ZM146.462 79.144C145.854 79.144 145.322 79.008 144.866 78.736C144.41 78.464 144.058 78.076 143.81 77.572C143.562 77.068 143.438 76.48 143.438 75.808C143.438 75.136 143.562 74.552 143.81 74.056C144.058 73.552 144.41 73.164 144.866 72.892C145.322 72.612 145.854 72.472 146.462 72.472C146.982 72.472 147.442 72.564 147.842 72.748C148.25 72.924 148.578 73.184 148.826 73.528C149.082 73.872 149.246 74.292 149.318 74.788L147.986 74.86C147.922 74.444 147.754 74.128 147.482 73.912C147.21 73.688 146.87 73.576 146.462 73.576C145.926 73.576 145.506 73.776 145.202 74.176C144.906 74.568 144.758 75.112 144.758 75.808C144.758 76.504 144.906 77.052 145.202 77.452C145.506 77.844 145.926 78.04 146.462 78.04C146.87 78.04 147.21 77.928 147.482 77.704C147.754 77.472 147.922 77.124 147.986 76.66L149.318 76.732C149.246 77.22 149.082 77.644 148.826 78.004C148.578 78.364 148.25 78.644 147.842 78.844C147.442 79.044 146.982 79.144 146.462 79.144ZM153.106 79.144C152.498 79.144 151.966 79.008 151.51 78.736C151.054 78.464 150.702 78.076 150.454 77.572C150.206 77.068 150.082 76.48 150.082 75.808C150.082 75.128 150.206 74.54 150.454 74.044C150.702 73.548 151.054 73.164 151.51 72.892C151.966 72.612 152.498 72.472 153.106 72.472C153.714 72.472 154.246 72.612 154.702 72.892C155.158 73.164 155.51 73.548 155.758 74.044C156.006 74.54 156.13 75.128 156.13 75.808C156.13 76.48 156.006 77.068 155.758 77.572C155.51 78.076 155.158 78.464 154.702 78.736C154.246 79.008 153.714 79.144 153.106 79.144ZM153.106 78.04C153.65 78.04 154.07 77.844 154.366 77.452C154.662 77.052 154.81 76.504 154.81 75.808C154.81 75.112 154.662 74.568 154.366 74.176C154.07 73.776 153.65 73.576 153.106 73.576C152.57 73.576 152.15 73.776 151.846 74.176C151.55 74.568 151.402 75.112 151.402 75.808C151.402 76.504 151.55 77.052 151.846 77.452C152.15 77.844 152.57 78.04 153.106 78.04ZM157.416 79V72.616H158.58L158.616 74.2L158.472 74.152C158.544 73.8 158.668 73.5 158.844 73.252C159.028 73.004 159.252 72.812 159.516 72.676C159.78 72.54 160.068 72.472 160.38 72.472C160.924 72.472 161.368 72.628 161.712 72.94C162.056 73.244 162.272 73.664 162.36 74.2H162.156C162.228 73.824 162.348 73.512 162.516 73.264C162.692 73.008 162.916 72.812 163.188 72.676C163.46 72.54 163.768 72.472 164.112 72.472C164.56 72.472 164.94 72.568 165.252 72.76C165.572 72.944 165.812 73.216 165.972 73.576C166.14 73.936 166.224 74.376 166.224 74.896V79H164.952V75.208C164.952 74.656 164.852 74.24 164.652 73.96C164.452 73.68 164.148 73.54 163.74 73.54C163.476 73.54 163.244 73.608 163.044 73.744C162.844 73.88 162.688 74.076 162.576 74.332C162.472 74.588 162.42 74.896 162.42 75.256V79H161.208V75.256C161.208 74.712 161.116 74.292 160.932 73.996C160.756 73.692 160.452 73.54 160.02 73.54C159.748 73.54 159.512 73.608 159.312 73.744C159.12 73.88 158.968 74.08 158.856 74.344C158.744 74.6 158.688 74.904 158.688 75.256V79H157.416Z" fill="#18181B"/>
<circle cx="38" cy="31" r="4" fill="#18181B"/>
<circle opacity="0.4" cx="50" cy="31" r="4" fill="#18181B"/>
<circle opacity="0.4" cx="62" cy="31" r="4" fill="#18181B"/>
</g>
<defs>
<linearGradient id="paint0_linear_5593_238" x1="25.5" y1="8.04235e-06" x2="25.4735" y2="150" gradientUnits="userSpaceOnUse">
<stop stop-color="#76717F" stop-opacity="0"/>
<stop offset="0.245" stop-color="#71717A"/>
<stop offset="0.75" stop-color="#71717A"/>
<stop offset="1" stop-color="#76717F" stop-opacity="0"/>
</linearGradient>
<linearGradient id="paint1_linear_5593_238" x1="205.5" y1="8.04235e-06" x2="205.473" y2="150" gradientUnits="userSpaceOnUse">
<stop stop-color="#76717F" stop-opacity="0"/>
<stop offset="0.245" stop-color="#71717A"/>
<stop offset="0.75" stop-color="#71717A"/>
<stop offset="1" stop-color="#76717F" stop-opacity="0"/>
</linearGradient>
<linearGradient id="paint2_linear_5593_238" x1="1.22952e-05" y1="19.5" x2="230" y2="19.5624" gradientUnits="userSpaceOnUse">
<stop stop-color="#76717F" stop-opacity="0"/>
<stop offset="0.245" stop-color="#71717A"/>
<stop offset="0.75" stop-color="#71717A"/>
<stop offset="1" stop-color="#76717F" stop-opacity="0"/>
</linearGradient>
<linearGradient id="paint3_linear_5593_238" x1="1.22952e-05" y1="129.5" x2="230" y2="129.562" gradientUnits="userSpaceOnUse">
<stop stop-color="#76717F" stop-opacity="0"/>
<stop offset="0.245" stop-color="#71717A"/>
<stop offset="0.75" stop-color="#71717A"/>
<stop offset="1" stop-color="#76717F" stop-opacity="0"/>
</linearGradient>
<clipPath id="clip0_5593_238">
<rect width="230" height="150" fill="white"/>
</clipPath>
</defs>
</svg>
