<svg width="230" height="114" viewBox="0 0 230 114" fill="none" xmlns="http://www.w3.org/2000/svg">
<g clip-path="url(#clip0_5657_36871)">
<path d="M25 114L25 -3.66569e-06" stroke="url(#paint0_linear_5657_36871)" stroke-opacity="0.4"/>
<path d="M205 114L205 -3.66569e-06" stroke="url(#paint1_linear_5657_36871)" stroke-opacity="0.4"/>
<path d="M230 20L-4.11272e-06 20" stroke="url(#paint2_linear_5657_36871)" stroke-opacity="0.4"/>
<path d="M230 94L-4.11272e-06 94" stroke="url(#paint3_linear_5657_36871)" stroke-opacity="0.4"/>
<rect x="25" y="20" width="180" height="74" rx="8" fill="#F4F4F5"/>
<rect x="44" y="30" width="143" height="6" rx="3" fill="#474857" fill-opacity="0.2"/>
<rect x="44" y="46" width="143" height="6" rx="3" fill="#18181B"/>
<rect x="44" y="62" width="143" height="6" rx="3" fill="#474857" fill-opacity="0.2"/>
<rect x="44" y="78" width="143" height="6" rx="3" fill="#474857" fill-opacity="0.2"/>
</g>
<defs>
<linearGradient id="paint0_linear_5657_36871" x1="25.5" y1="6.11218e-06" x2="25.4847" y2="114" gradientUnits="userSpaceOnUse">
<stop stop-color="#76717F" stop-opacity="0"/>
<stop offset="0.245" stop-color="#71717A"/>
<stop offset="0.75" stop-color="#71717A"/>
<stop offset="1" stop-color="#76717F" stop-opacity="0"/>
</linearGradient>
<linearGradient id="paint1_linear_5657_36871" x1="205.5" y1="6.11218e-06" x2="205.485" y2="114" gradientUnits="userSpaceOnUse">
<stop stop-color="#76717F" stop-opacity="0"/>
<stop offset="0.245" stop-color="#71717A"/>
<stop offset="0.75" stop-color="#71717A"/>
<stop offset="1" stop-color="#76717F" stop-opacity="0"/>
</linearGradient>
<linearGradient id="paint2_linear_5657_36871" x1="1.22952e-05" y1="19.5" x2="230" y2="19.5624" gradientUnits="userSpaceOnUse">
<stop stop-color="#76717F" stop-opacity="0"/>
<stop offset="0.245" stop-color="#71717A"/>
<stop offset="0.75" stop-color="#71717A"/>
<stop offset="1" stop-color="#76717F" stop-opacity="0"/>
</linearGradient>
<linearGradient id="paint3_linear_5657_36871" x1="1.22952e-05" y1="93.5" x2="230" y2="93.5624" gradientUnits="userSpaceOnUse">
<stop stop-color="#76717F" stop-opacity="0"/>
<stop offset="0.245" stop-color="#71717A"/>
<stop offset="0.75" stop-color="#71717A"/>
<stop offset="1" stop-color="#76717F" stop-opacity="0"/>
</linearGradient>
<clipPath id="clip0_5657_36871">
<rect width="230" height="114" fill="white"/>
</clipPath>
</defs>
</svg>
