<svg width="230" height="114" viewBox="0 0 230 114" fill="none" xmlns="http://www.w3.org/2000/svg">
<g clip-path="url(#clip0_5657_36904)">
<path d="M25 114L25 -3.66569e-06" stroke="url(#paint0_linear_5657_36904)" stroke-opacity="0.4"/>
<path d="M205 114L205 -3.66569e-06" stroke="url(#paint1_linear_5657_36904)" stroke-opacity="0.4"/>
<path d="M230 20L-4.11272e-06 20" stroke="url(#paint2_linear_5657_36904)" stroke-opacity="0.4"/>
<path d="M230 94L-4.11272e-06 94" stroke="url(#paint3_linear_5657_36904)" stroke-opacity="0.4"/>
<rect x="25" y="20" width="180" height="74" rx="8" fill="#F4F4F5"/>
<rect x="41" y="43" width="28" height="28" rx="8" fill="#F4F4F5"/>
<rect x="81" y="43" width="28" height="28" rx="8" fill="#18181B" fill-opacity="0.1"/>
<rect x="121" y="43" width="28" height="28" rx="8" fill="#F4F4F5"/>
<rect x="161" y="43" width="28" height="28" rx="8" fill="#F4F4F5"/>
<path d="M58.4834 63L57.5518 59.9414H52.8672L51.9355 63H49L53.5352 50.0977H56.8662L61.4189 63H58.4834ZM56.9014 57.6562C56.04 54.8848 55.5537 53.3174 55.4424 52.9541C55.3369 52.5908 55.2607 52.3037 55.2139 52.0928C55.0205 52.8428 54.4668 54.6973 53.5527 57.6562H56.9014Z" fill="#474857" fill-opacity="0.3"/>
<path d="M90.6172 50.1504H94.6162C96.4385 50.1504 97.7598 50.4111 98.5801 50.9326C99.4062 51.4482 99.8193 52.2715 99.8193 53.4023C99.8193 54.1699 99.6377 54.7998 99.2744 55.292C98.917 55.7842 98.4395 56.0801 97.8418 56.1797V56.2676C98.6562 56.4492 99.2422 56.7891 99.5996 57.2871C99.9629 57.7852 100.145 58.4473 100.145 59.2734C100.145 60.4453 99.7197 61.3594 98.8701 62.0156C98.0264 62.6719 96.8779 63 95.4248 63H90.6172V50.1504ZM93.3418 55.2393H94.9238C95.6621 55.2393 96.1953 55.125 96.5234 54.8965C96.8574 54.668 97.0244 54.29 97.0244 53.7627C97.0244 53.2705 96.8428 52.9189 96.4795 52.708C96.1221 52.4912 95.5537 52.3828 94.7744 52.3828H93.3418V55.2393ZM93.3418 57.4014V60.75H95.1172C95.8672 60.75 96.4209 60.6064 96.7783 60.3193C97.1357 60.0322 97.3145 59.5928 97.3145 59.001C97.3145 57.9346 96.5527 57.4014 95.0293 57.4014H93.3418Z" fill="#18181B"/>
<path d="M136.075 52.2334C135.05 52.2334 134.256 52.6201 133.693 53.3936C133.131 54.1611 132.85 55.2334 132.85 56.6104C132.85 59.4756 133.925 60.9082 136.075 60.9082C136.978 60.9082 138.07 60.6826 139.354 60.2314V62.5166C138.299 62.9561 137.121 63.1758 135.82 63.1758C133.951 63.1758 132.521 62.6104 131.531 61.4795C130.541 60.3428 130.046 58.7139 130.046 56.5928C130.046 55.2568 130.289 54.0879 130.775 53.0859C131.262 52.0781 131.959 51.3076 132.867 50.7744C133.781 50.2354 134.851 49.9658 136.075 49.9658C137.323 49.9658 138.577 50.2676 139.837 50.8711L138.958 53.0859C138.478 52.8574 137.994 52.6582 137.508 52.4883C137.021 52.3184 136.544 52.2334 136.075 52.2334Z" fill="#474857" fill-opacity="0.3"/>
<path d="M181.278 56.4521C181.278 58.5674 180.675 60.1875 179.468 61.3125C178.267 62.4375 176.529 63 174.256 63H170.617V50.1504H174.651C176.749 50.1504 178.378 50.7041 179.538 51.8115C180.698 52.9189 181.278 54.4658 181.278 56.4521ZM178.448 56.5225C178.448 53.7627 177.229 52.3828 174.792 52.3828H173.342V60.75H174.511C177.136 60.75 178.448 59.3408 178.448 56.5225Z" fill="#474857" fill-opacity="0.3"/>
</g>
<defs>
<linearGradient id="paint0_linear_5657_36904" x1="25.5" y1="6.11218e-06" x2="25.4847" y2="114" gradientUnits="userSpaceOnUse">
<stop stop-color="#76717F" stop-opacity="0"/>
<stop offset="0.245" stop-color="#71717A"/>
<stop offset="0.75" stop-color="#71717A"/>
<stop offset="1" stop-color="#76717F" stop-opacity="0"/>
</linearGradient>
<linearGradient id="paint1_linear_5657_36904" x1="205.5" y1="6.11218e-06" x2="205.485" y2="114" gradientUnits="userSpaceOnUse">
<stop stop-color="#76717F" stop-opacity="0"/>
<stop offset="0.245" stop-color="#71717A"/>
<stop offset="0.75" stop-color="#71717A"/>
<stop offset="1" stop-color="#76717F" stop-opacity="0"/>
</linearGradient>
<linearGradient id="paint2_linear_5657_36904" x1="1.22952e-05" y1="19.5" x2="230" y2="19.5624" gradientUnits="userSpaceOnUse">
<stop stop-color="#76717F" stop-opacity="0"/>
<stop offset="0.245" stop-color="#71717A"/>
<stop offset="0.75" stop-color="#71717A"/>
<stop offset="1" stop-color="#76717F" stop-opacity="0"/>
</linearGradient>
<linearGradient id="paint3_linear_5657_36904" x1="1.22952e-05" y1="93.5" x2="230" y2="93.5624" gradientUnits="userSpaceOnUse">
<stop stop-color="#76717F" stop-opacity="0"/>
<stop offset="0.245" stop-color="#71717A"/>
<stop offset="0.75" stop-color="#71717A"/>
<stop offset="1" stop-color="#76717F" stop-opacity="0"/>
</linearGradient>
<clipPath id="clip0_5657_36904">
<rect width="230" height="114" fill="white"/>
</clipPath>
</defs>
</svg>
