<svg width="250" height="85" viewBox="0 0 250 85" fill="none" xmlns="http://www.w3.org/2000/svg">
<g clip-path="url(#clip0_5357_51729)">
<path d="M35 85L35 3.12924e-06" stroke="url(#paint0_linear_5357_51729)" stroke-opacity="0.4"/>
<path d="M215 85L215 3.12924e-06" stroke="url(#paint1_linear_5357_51729)" stroke-opacity="0.4"/>
<path d="M250 18L-7.56979e-06 18" stroke="url(#paint2_linear_5357_51729)" stroke-opacity="0.4"/>
<path d="M250 66L-7.56979e-06 66" stroke="url(#paint3_linear_5357_51729)" stroke-opacity="0.4"/>
<rect x="36" y="18" width="180" height="48" rx="8" fill="#F4F4F5"/>
<path d="M63 37.6667V41.7633" stroke="#18181B" stroke-width="1.5" stroke-linecap="round" stroke-linejoin="round"/>
<path d="M63 45.8337L63 45.8852" stroke="#18181B" stroke-width="1.5" stroke-linecap="round" stroke-linejoin="round"/>
<path d="M55.4167 49.5833H70.5834C71.3011 49.5783 71.9698 49.2181 72.3689 48.6216C72.7681 48.025 72.8459 47.2695 72.5767 46.6041L64.885 33.3333C64.5035 32.6436 63.7774 32.2156 62.9892 32.2156C62.201 32.2156 61.475 32.6436 61.0934 33.3333L53.4017 46.6041C53.1378 47.2539 53.2047 47.9911 53.5812 48.5827C53.9577 49.1744 54.5972 49.5472 55.2975 49.5833" stroke="#18181B" stroke-width="1.5" stroke-linecap="round" stroke-linejoin="round"/>
<rect x="84.5" y="31" width="60" height="8" rx="4" fill="#18181B"/>
<rect x="84.5" y="47" width="90" height="6" rx="3" fill="#474857" fill-opacity="0.2"/>
<path d="M204 28L196 36" stroke="#474857" stroke-opacity="0.5" stroke-width="1.5" stroke-linecap="round" stroke-linejoin="round"/>
<path d="M196 28L204 36" stroke="#474857" stroke-opacity="0.5" stroke-width="1.5" stroke-linecap="round" stroke-linejoin="round"/>
</g>
<defs>
<linearGradient id="paint0_linear_5357_51729" x1="35.5" y1="4.53022e-06" x2="35.4915" y2="85" gradientUnits="userSpaceOnUse">
<stop stop-color="#76717F" stop-opacity="0"/>
<stop offset="0.245" stop-color="#71717A"/>
<stop offset="0.75" stop-color="#71717A"/>
<stop offset="1" stop-color="#76717F" stop-opacity="0"/>
</linearGradient>
<linearGradient id="paint1_linear_5357_51729" x1="215.5" y1="4.53022e-06" x2="215.491" y2="85" gradientUnits="userSpaceOnUse">
<stop stop-color="#76717F" stop-opacity="0"/>
<stop offset="0.245" stop-color="#71717A"/>
<stop offset="0.75" stop-color="#71717A"/>
<stop offset="1" stop-color="#76717F" stop-opacity="0"/>
</linearGradient>
<linearGradient id="paint2_linear_5357_51729" x1="1.33643e-05" y1="17.5" x2="250" y2="17.5737" gradientUnits="userSpaceOnUse">
<stop stop-color="#76717F" stop-opacity="0"/>
<stop offset="0.245" stop-color="#71717A"/>
<stop offset="0.75" stop-color="#71717A"/>
<stop offset="1" stop-color="#76717F" stop-opacity="0"/>
</linearGradient>
<linearGradient id="paint3_linear_5357_51729" x1="1.33643e-05" y1="65.5" x2="250" y2="65.5737" gradientUnits="userSpaceOnUse">
<stop stop-color="#76717F" stop-opacity="0"/>
<stop offset="0.245" stop-color="#71717A"/>
<stop offset="0.75" stop-color="#71717A"/>
<stop offset="1" stop-color="#76717F" stop-opacity="0"/>
</linearGradient>
<clipPath id="clip0_5357_51729">
<rect width="250" height="85" fill="white"/>
</clipPath>
</defs>
</svg>
