<svg width="178" height="85" viewBox="0 0 178 85" fill="none" xmlns="http://www.w3.org/2000/svg">
<g clip-path="url(#clip0_5357_51817)">
<path d="M178 18L1.3113e-06 18" stroke="url(#paint0_linear_5357_51817)" stroke-opacity="0.4"/>
<path d="M178 66L1.3113e-06 66" stroke="url(#paint1_linear_5357_51817)" stroke-opacity="0.4"/>
<path d="M20 85L20 3.12924e-06" stroke="url(#paint2_linear_5357_51817)" stroke-opacity="0.4"/>
<path d="M158 85L158 3.12924e-06" stroke="url(#paint3_linear_5357_51817)" stroke-opacity="0.4"/>
<path d="M64 42C64 28.193 75.193 17 89 17C102.807 17 114 28.193 114 42C114 55.807 102.807 67 89 67C75.193 67 64 55.807 64 42Z" fill="#18181B" fill-opacity="0.1"/>
<path d="M86.4834 49L85.5518 45.9414H80.8672L79.9355 49H77L81.5352 36.0977H84.8662L89.4189 49H86.4834ZM84.9014 43.6562C84.04 40.8848 83.5537 39.3174 83.4424 38.9541C83.3369 38.5908 83.2607 38.3037 83.2139 38.0928C83.0205 38.8428 82.4668 40.6973 81.5527 43.6562H84.9014ZM101.381 49H98.2871L94.9209 43.5859L93.7695 44.4121V49H91.0449V36.1504H93.7695V42.0303L94.8418 40.5186L98.3223 36.1504H101.346L96.8633 41.8369L101.381 49Z" fill="#18181B"/>
<path d="M20 42C20 28.193 31.193 17 45 17C58.807 17 70 28.193 70 42C70 55.807 58.807 67 45 67C31.193 67 20 55.807 20 42Z" fill="#F4F4F5"/>
<circle cx="45" cy="36.5833" r="4.33333" stroke="#474857" stroke-opacity="0.5" stroke-width="1.5" stroke-linecap="round" stroke-linejoin="round"/>
<path d="M38.5 51.75V49.5833C38.5 47.1901 40.4401 45.25 42.8333 45.25H47.1667C49.5599 45.25 51.5 47.1901 51.5 49.5833V51.75" stroke="#474857" stroke-opacity="0.5" stroke-width="1.5" stroke-linecap="round" stroke-linejoin="round"/>
<path d="M108 42C108 28.193 119.193 17 133 17C146.807 17 158 28.193 158 42C158 55.807 146.807 67 133 67C119.193 67 108 55.807 108 42Z" fill="#F4F4F5"/>
<path d="M133.28 42.5576C133.28 44.6846 132.753 46.3193 131.698 47.4619C130.644 48.6045 129.132 49.1758 127.163 49.1758C125.194 49.1758 123.683 48.6045 122.628 47.4619C121.573 46.3193 121.046 44.6787 121.046 42.54C121.046 40.4014 121.573 38.7695 122.628 37.6445C123.688 36.5137 125.206 35.9482 127.181 35.9482C129.155 35.9482 130.664 36.5166 131.707 37.6533C132.756 38.79 133.28 40.4248 133.28 42.5576ZM123.902 42.5576C123.902 43.9932 124.175 45.0742 124.72 45.8008C125.265 46.5273 126.079 46.8906 127.163 46.8906C129.337 46.8906 130.424 45.4463 130.424 42.5576C130.424 39.6631 129.343 38.2158 127.181 38.2158C126.097 38.2158 125.279 38.582 124.729 39.3145C124.178 40.041 123.902 41.1221 123.902 42.5576ZM138.668 42.1973H139.564C140.402 42.1973 141.029 42.0332 141.445 41.7051C141.861 41.3711 142.069 40.8877 142.069 40.2549C142.069 39.6162 141.894 39.1445 141.542 38.8398C141.196 38.5352 140.651 38.3828 139.907 38.3828H138.668V42.1973ZM144.82 40.1582C144.82 41.541 144.387 42.5986 143.52 43.3311C142.658 44.0635 141.431 44.4297 139.837 44.4297H138.668V49H135.943V36.1504H140.048C141.606 36.1504 142.79 36.4873 143.599 37.1611C144.413 37.8291 144.82 38.8281 144.82 40.1582Z" fill="#474857" fill-opacity="0.3"/>
<path d="M155 61C155 57.6863 152.314 55 149 55C145.686 55 143 57.6863 143 61C143 64.3137 145.686 67 149 67C152.314 67 155 64.3137 155 61Z" fill="white"/>
<path d="M149 65.4C151.43 65.4 153.4 63.4301 153.4 61C153.4 58.57 151.43 56.6 149 56.6C146.57 56.6 144.6 58.57 144.6 61C144.6 63.4301 146.57 65.4 149 65.4Z" fill="#18181B"/>
</g>
<defs>
<linearGradient id="paint0_linear_5357_51817" x1="9.51539e-06" y1="17.5" x2="178" y2="17.5374" gradientUnits="userSpaceOnUse">
<stop stop-color="#76717F" stop-opacity="0"/>
<stop offset="0.245" stop-color="#71717A"/>
<stop offset="0.75" stop-color="#71717A"/>
<stop offset="1" stop-color="#76717F" stop-opacity="0"/>
</linearGradient>
<linearGradient id="paint1_linear_5357_51817" x1="9.51539e-06" y1="65.5" x2="178" y2="65.5374" gradientUnits="userSpaceOnUse">
<stop stop-color="#76717F" stop-opacity="0"/>
<stop offset="0.245" stop-color="#71717A"/>
<stop offset="0.75" stop-color="#71717A"/>
<stop offset="1" stop-color="#76717F" stop-opacity="0"/>
</linearGradient>
<linearGradient id="paint2_linear_5357_51817" x1="20.5" y1="4.53022e-06" x2="20.4915" y2="85" gradientUnits="userSpaceOnUse">
<stop stop-color="#76717F" stop-opacity="0"/>
<stop offset="0.245" stop-color="#71717A"/>
<stop offset="0.75" stop-color="#71717A"/>
<stop offset="1" stop-color="#76717F" stop-opacity="0"/>
</linearGradient>
<linearGradient id="paint3_linear_5357_51817" x1="158.5" y1="4.53022e-06" x2="158.491" y2="85" gradientUnits="userSpaceOnUse">
<stop stop-color="#76717F" stop-opacity="0"/>
<stop offset="0.245" stop-color="#71717A"/>
<stop offset="0.75" stop-color="#71717A"/>
<stop offset="1" stop-color="#76717F" stop-opacity="0"/>
</linearGradient>
<clipPath id="clip0_5357_51817">
<rect width="178" height="85" fill="white"/>
</clipPath>
</defs>
</svg>
