<svg width="126" height="105" viewBox="0 0 126 105" fill="none" xmlns="http://www.w3.org/2000/svg">
<g clip-path="url(#clip0_5515_5168)">
<path d="M126 17L-2.17557e-06 17" stroke="url(#paint0_linear_5515_5168)" stroke-opacity="0.4"/>
<path d="M126 87L-2.17557e-06 87" stroke="url(#paint1_linear_5515_5168)" stroke-opacity="0.4"/>
<path d="M28 105L28 -3.27826e-07" stroke="url(#paint2_linear_5515_5168)" stroke-opacity="0.4"/>
<path d="M98 105L98 -3.27826e-07" stroke="url(#paint3_linear_5515_5168)" stroke-opacity="0.4"/>
<path d="M33 51.9138C33 58.3174 35.0373 64.554 38.8156 69.7163C42.5939 74.8785 47.916 78.6972 54.0077 80.6166C60.0993 82.5361 66.6428 82.4562 72.6861 80.3887C78.7294 78.3211 83.9573 74.3738 87.6092 69.1208C91.2611 63.8679 93.1465 57.5834 92.9911 51.1817C92.8357 44.78 90.6477 38.5949 86.7453 33.5264C82.8429 28.4579 77.4297 24.7702 71.2933 23" stroke="#18181B" stroke-width="5" stroke-linecap="round"/>
<path d="M50.704 58C50.704 56.8267 50.8533 55.68 51.152 54.56C51.4613 53.44 51.8933 52.368 52.448 51.344C53.0133 50.3093 53.68 49.344 54.448 48.448H48.32V46.64H56.608V48.336C55.7547 49.296 55.0453 50.2667 54.48 51.248C53.9147 52.2187 53.4933 53.2587 53.216 54.368C52.9493 55.4667 52.816 56.6773 52.816 58H50.704ZM57.5534 58C57.5534 57.0827 57.6814 56.2827 57.9374 55.6C58.1934 54.9067 58.6254 54.2773 59.2334 53.712C59.8414 53.136 60.6627 52.576 61.6974 52.032C62.2094 51.7547 62.62 51.5093 62.9294 51.296C63.2387 51.0827 63.4627 50.864 63.6014 50.64C63.74 50.4053 63.8094 50.128 63.8094 49.808C63.8094 49.488 63.74 49.2107 63.6014 48.976C63.4627 48.7307 63.2547 48.5387 62.9774 48.4C62.7107 48.2613 62.3747 48.192 61.9694 48.192C61.3187 48.192 60.8014 48.3787 60.4174 48.752C60.044 49.1147 59.8147 49.6373 59.7294 50.32L57.5854 50.192C57.692 49.008 58.124 48.08 58.8814 47.408C59.6494 46.7253 60.6787 46.384 61.9694 46.384C62.8014 46.384 63.516 46.528 64.1134 46.816C64.7107 47.0933 65.164 47.488 65.4734 48C65.7934 48.512 65.9534 49.104 65.9534 49.776C65.9534 50.352 65.852 50.848 65.6494 51.264C65.4574 51.68 65.1374 52.064 64.6894 52.416C64.252 52.7573 63.66 53.1253 62.9134 53.52C61.9747 54.0213 61.2707 54.5067 60.8014 54.976C60.332 55.4347 60.0814 55.84 60.0494 56.192H65.9534V58H57.5534ZM70.091 52.144C69.3443 52.144 68.7257 51.9093 68.235 51.44C67.7443 50.9707 67.499 50.2667 67.499 49.328C67.499 48.3893 67.7443 47.6853 68.235 47.216C68.7257 46.7467 69.3443 46.512 70.091 46.512C70.8483 46.512 71.467 46.7467 71.947 47.216C72.4377 47.6853 72.683 48.3893 72.683 49.328C72.683 50.2667 72.4377 50.9707 71.947 51.44C71.467 51.9093 70.8483 52.144 70.091 52.144ZM70.091 50.992C70.4643 50.992 70.7417 50.8533 70.923 50.576C71.115 50.288 71.211 49.872 71.211 49.328C71.211 48.784 71.115 48.3733 70.923 48.096C70.7417 47.808 70.4643 47.664 70.091 47.664C69.7283 47.664 69.451 47.808 69.259 48.096C69.067 48.3733 68.971 48.784 68.971 49.328C68.971 49.872 69.067 50.288 69.259 50.576C69.451 50.8533 69.7283 50.992 70.091 50.992ZM76.747 58.128C76.0003 58.128 75.3817 57.8933 74.891 57.424C74.4003 56.9547 74.155 56.2507 74.155 55.312C74.155 54.3733 74.4003 53.6693 74.891 53.2C75.3817 52.7307 76.0003 52.496 76.747 52.496C77.5043 52.496 78.123 52.7307 78.603 53.2C79.083 53.6693 79.323 54.3733 79.323 55.312C79.323 56.2507 79.083 56.9547 78.603 57.424C78.123 57.8933 77.5043 58.128 76.747 58.128ZM76.747 56.976C77.1203 56.976 77.3977 56.8373 77.579 56.56C77.771 56.272 77.867 55.856 77.867 55.312C77.867 54.768 77.771 54.3573 77.579 54.08C77.3977 53.792 77.1203 53.648 76.747 53.648C76.3843 53.648 76.107 53.792 75.915 54.08C75.723 54.3573 75.627 54.768 75.627 55.312C75.627 55.856 75.723 56.272 75.915 56.56C76.107 56.8373 76.3843 56.976 76.747 56.976ZM68.891 58L76.539 46.64H77.947L70.299 58H68.891Z" fill="#09090B"/>
</g>
<defs>
<linearGradient id="paint0_linear_5515_5168" x1="6.73562e-06" y1="16.5" x2="126" y2="16.5187" gradientUnits="userSpaceOnUse">
<stop stop-color="#76717F" stop-opacity="0"/>
<stop offset="0.245" stop-color="#71717A"/>
<stop offset="0.75" stop-color="#71717A"/>
<stop offset="1" stop-color="#76717F" stop-opacity="0"/>
</linearGradient>
<linearGradient id="paint1_linear_5515_5168" x1="6.73562e-06" y1="86.5" x2="126" y2="86.5187" gradientUnits="userSpaceOnUse">
<stop stop-color="#76717F" stop-opacity="0"/>
<stop offset="0.245" stop-color="#71717A"/>
<stop offset="0.75" stop-color="#71717A"/>
<stop offset="1" stop-color="#76717F" stop-opacity="0"/>
</linearGradient>
<linearGradient id="paint2_linear_5515_5168" x1="28.5" y1="5.61762e-06" x2="28.487" y2="105" gradientUnits="userSpaceOnUse">
<stop stop-color="#76717F" stop-opacity="0"/>
<stop offset="0.245" stop-color="#71717A"/>
<stop offset="0.75" stop-color="#71717A"/>
<stop offset="1" stop-color="#76717F" stop-opacity="0"/>
</linearGradient>
<linearGradient id="paint3_linear_5515_5168" x1="98.5" y1="5.61762e-06" x2="98.487" y2="105" gradientUnits="userSpaceOnUse">
<stop stop-color="#76717F" stop-opacity="0"/>
<stop offset="0.245" stop-color="#71717A"/>
<stop offset="0.75" stop-color="#71717A"/>
<stop offset="1" stop-color="#76717F" stop-opacity="0"/>
</linearGradient>
<clipPath id="clip0_5515_5168">
<rect width="126" height="105" fill="white"/>
</clipPath>
</defs>
</svg>
