<svg width="230" height="114" viewBox="0 0 230 114" fill="none" xmlns="http://www.w3.org/2000/svg">
<g clip-path="url(#clip0_6613_131634)">
<path d="M25 114L25 -3.66569e-06" stroke="url(#paint0_linear_6613_131634)" stroke-opacity="0.4"/>
<path d="M205 114L205 -3.66569e-06" stroke="url(#paint1_linear_6613_131634)" stroke-opacity="0.4"/>
<path d="M230 20L-4.11272e-06 20" stroke="url(#paint2_linear_6613_131634)" stroke-opacity="0.4"/>
<path d="M230 94L-4.11272e-06 94" stroke="url(#paint3_linear_6613_131634)" stroke-opacity="0.4"/>
<rect x="25" y="20" width="180" height="74" rx="8" fill="#F4F4F5"/>
<path d="M156 57C156 47.059 164.059 39 174 39C183.941 39 192 47.059 192 57C192 66.941 183.941 75 174 75C164.059 75 156 66.941 156 57Z" fill="#F4F4F5"/>
<circle cx="174" cy="53.1" r="3.12" stroke="#474857" stroke-opacity="0.5" stroke-width="1.5" stroke-linecap="round" stroke-linejoin="round"/>
<path d="M169.32 64.02V62.46C169.32 60.7369 170.717 59.34 172.44 59.34H175.56C177.283 59.34 178.68 60.7369 178.68 62.46V64.02" stroke="#474857" stroke-opacity="0.5" stroke-width="1.5" stroke-linecap="round" stroke-linejoin="round"/>
<rect x="39" y="52" width="61" height="8" rx="4" fill="#18181B"/>
<rect x="39" y="35" width="91" height="8" rx="4" fill="#474857" fill-opacity="0.2"/>
<rect x="39" y="72" width="76" height="8" rx="4" fill="#474857" fill-opacity="0.2"/>
</g>
<defs>
<linearGradient id="paint0_linear_6613_131634" x1="25.5" y1="6.11218e-06" x2="25.4847" y2="114" gradientUnits="userSpaceOnUse">
<stop stop-color="#76717F" stop-opacity="0"/>
<stop offset="0.245" stop-color="#71717A"/>
<stop offset="0.75" stop-color="#71717A"/>
<stop offset="1" stop-color="#76717F" stop-opacity="0"/>
</linearGradient>
<linearGradient id="paint1_linear_6613_131634" x1="205.5" y1="6.11218e-06" x2="205.485" y2="114" gradientUnits="userSpaceOnUse">
<stop stop-color="#76717F" stop-opacity="0"/>
<stop offset="0.245" stop-color="#71717A"/>
<stop offset="0.75" stop-color="#71717A"/>
<stop offset="1" stop-color="#76717F" stop-opacity="0"/>
</linearGradient>
<linearGradient id="paint2_linear_6613_131634" x1="1.22952e-05" y1="19.5" x2="230" y2="19.5624" gradientUnits="userSpaceOnUse">
<stop stop-color="#76717F" stop-opacity="0"/>
<stop offset="0.245" stop-color="#71717A"/>
<stop offset="0.75" stop-color="#71717A"/>
<stop offset="1" stop-color="#76717F" stop-opacity="0"/>
</linearGradient>
<linearGradient id="paint3_linear_6613_131634" x1="1.22952e-05" y1="93.5" x2="230" y2="93.5624" gradientUnits="userSpaceOnUse">
<stop stop-color="#76717F" stop-opacity="0"/>
<stop offset="0.245" stop-color="#71717A"/>
<stop offset="0.75" stop-color="#71717A"/>
<stop offset="1" stop-color="#76717F" stop-opacity="0"/>
</linearGradient>
<clipPath id="clip0_6613_131634">
<rect width="230" height="114" fill="white"/>
</clipPath>
</defs>
</svg>
