<svg width="81" height="67" viewBox="0 0 81 67" fill="none" xmlns="http://www.w3.org/2000/svg">
<g clip-path="url(#clip0_5515_5634)">
<path d="M81 12L-3.30806e-06 12" stroke="url(#paint0_linear_5515_5634)" stroke-opacity="0.4"/>
<path d="M81 53L-3.30806e-06 53" stroke="url(#paint1_linear_5515_5634)" stroke-opacity="0.4"/>
<path d="M17 67L17 8.9407e-07" stroke="url(#paint2_linear_5515_5634)" stroke-opacity="0.4"/>
<path d="M65 66L65 -0.999999" stroke="url(#paint3_linear_5515_5634)" stroke-opacity="0.4"/>
<path d="M26.75 18.75L55.25 47.25" stroke="#18181B" stroke-width="2" stroke-linecap="round" stroke-linejoin="round"/>
<path d="M48.9167 41.9167C49.469 41.9167 49.9167 41.4689 49.9167 40.9167C49.9167 40.3644 49.469 39.9167 48.9167 39.9167V41.9167ZM28.3334 40.9167L27.8406 40.0465C27.4454 40.2703 27.2507 40.7323 27.3664 41.1714C27.4821 41.6106 27.8792 41.9167 28.3334 41.9167V40.9167ZM31.5 36.1667L32.4928 36.2868C32.4976 36.247 32.5 36.2068 32.5 36.1667H31.5ZM31.5 31.4167L30.5011 31.3697C30.5004 31.3854 30.5 31.401 30.5 31.4167H31.5ZM34.3413 26.1108C34.6604 25.66 34.5537 25.0359 34.1029 24.7168C33.6522 24.3977 33.028 24.5044 32.7089 24.9552L34.3413 26.1108ZM36.2866 21.6162C35.8146 21.903 35.6645 22.5182 35.9513 22.9901C36.2381 23.4621 36.8532 23.6122 37.3252 23.3254L36.2866 21.6162ZM37.8335 21.9167L38.2612 22.8206C38.6107 22.6552 38.8335 22.3033 38.8335 21.9167H37.8335ZM44.1668 21.9167H43.1668C43.1668 22.3034 43.3898 22.6554 43.7394 22.8207L44.1668 21.9167ZM50.5002 31.4167H51.5002C51.5002 31.401 51.4998 31.3854 51.4991 31.3698L50.5002 31.4167ZM49.5002 36.1667C49.5002 36.719 49.9479 37.1667 50.5002 37.1667C51.0524 37.1667 51.5002 36.719 51.5002 36.1667H49.5002ZM48.9167 39.9167H28.3334V41.9167H48.9167V39.9167ZM28.8261 41.7868C30.8522 40.6395 32.213 38.5983 32.4928 36.2868L30.5073 36.0465C30.3038 37.7276 29.3141 39.2121 27.8406 40.0465L28.8261 41.7868ZM32.5 36.1667V31.4167H30.5V36.1667H32.5ZM32.4989 31.4636C32.5893 29.54 33.2286 27.6825 34.3413 26.1108L32.7089 24.9552C31.3756 26.8387 30.6095 29.0646 30.5011 31.3697L32.4989 31.4636ZM37.3252 23.3254C37.6277 23.1416 37.9392 22.973 38.2612 22.8206L37.4058 21.0128C37.0185 21.196 36.646 21.3979 36.2866 21.6162L37.3252 23.3254ZM38.8335 21.9167C38.8335 20.72 39.8035 19.75 41.0002 19.75V17.75C38.699 17.75 36.8335 19.6155 36.8335 21.9167H38.8335ZM41.0002 19.75C42.1968 19.75 43.1668 20.72 43.1668 21.9167H45.1668C45.1668 19.6155 43.3013 17.75 41.0002 17.75V19.75ZM43.7394 22.8207C47.1103 24.4147 49.3264 27.7388 49.5013 31.4636L51.4991 31.3698C51.2896 26.9063 48.6339 22.9228 44.5943 21.0126L43.7394 22.8207ZM49.5002 31.4167V36.1667H51.5002V31.4167H49.5002Z" fill="#18181B"/>
<path d="M36.25 40.9167V42.5C36.25 45.1233 38.3766 47.25 41 47.25C43.6234 47.25 45.75 45.1233 45.75 42.5V40.9167" stroke="#18181B" stroke-width="2" stroke-linecap="round" stroke-linejoin="round"/>
</g>
<defs>
<linearGradient id="paint0_linear_5515_5634" x1="4.33004e-06" y1="11.5" x2="81" y2="11.5077" gradientUnits="userSpaceOnUse">
<stop stop-color="#76717F" stop-opacity="0"/>
<stop offset="0.245" stop-color="#71717A"/>
<stop offset="0.75" stop-color="#71717A"/>
<stop offset="1" stop-color="#76717F" stop-opacity="0"/>
</linearGradient>
<linearGradient id="paint1_linear_5515_5634" x1="4.33004e-06" y1="52.5" x2="81" y2="52.5077" gradientUnits="userSpaceOnUse">
<stop stop-color="#76717F" stop-opacity="0"/>
<stop offset="0.245" stop-color="#71717A"/>
<stop offset="0.75" stop-color="#71717A"/>
<stop offset="1" stop-color="#76717F" stop-opacity="0"/>
</linearGradient>
<linearGradient id="paint2_linear_5515_5634" x1="17.5" y1="3.58459e-06" x2="17.4947" y2="67" gradientUnits="userSpaceOnUse">
<stop stop-color="#76717F" stop-opacity="0"/>
<stop offset="0.245" stop-color="#71717A"/>
<stop offset="0.75" stop-color="#71717A"/>
<stop offset="1" stop-color="#76717F" stop-opacity="0"/>
</linearGradient>
<linearGradient id="paint3_linear_5515_5634" x1="65.5" y1="-0.999996" x2="65.4947" y2="66" gradientUnits="userSpaceOnUse">
<stop stop-color="#76717F" stop-opacity="0"/>
<stop offset="0.245" stop-color="#71717A"/>
<stop offset="0.75" stop-color="#71717A"/>
<stop offset="1" stop-color="#76717F" stop-opacity="0"/>
</linearGradient>
<clipPath id="clip0_5515_5634">
<rect width="81" height="67" fill="white"/>
</clipPath>
</defs>
</svg>
