<svg width="188" height="128" viewBox="0 0 188 128" fill="none" xmlns="http://www.w3.org/2000/svg">
<g clip-path="url(#clip0_5372_59922)">
<path d="M20 128L20 1.04308e-06" stroke="url(#paint0_linear_5372_59922)" stroke-opacity="0.4"/>
<path d="M168 128L168 1.04308e-06" stroke="url(#paint1_linear_5372_59922)" stroke-opacity="0.4"/>
<path d="M188 17L-4.17233e-07 17" stroke="url(#paint2_linear_5372_59922)" stroke-opacity="0.4"/>
<path d="M188 111L-4.17233e-07 111" stroke="url(#paint3_linear_5372_59922)" stroke-opacity="0.4"/>
<rect x="20" y="17" width="148" height="94" rx="8" fill="#F4F4F5"/>
<rect x="103" y="26" width="36" height="10" rx="5" fill="#474857" fill-opacity="0.2"/>
<rect x="91" y="26" width="10" height="10" rx="5" fill="#474857" fill-opacity="0.2"/>
<rect x="91" y="48" width="10" height="10" rx="5" fill="#18181B"/>
<rect x="91" y="70" width="10" height="10" rx="5" fill="#474857" fill-opacity="0.2"/>
<rect x="31" y="48" width="57" height="10" rx="5" fill="#18181B"/>
<rect x="91" y="92" width="10" height="10" rx="5" fill="#474857" fill-opacity="0.2"/>
<rect x="61" y="92" width="27" height="10" rx="5" fill="#474857" fill-opacity="0.2"/>
<rect x="103" y="70" width="54" height="10" rx="5" fill="#474857" fill-opacity="0.2"/>
<rect x="95" y="38" width="2" height="8" rx="1" fill="#474857" fill-opacity="0.2"/>
<rect x="95" y="60" width="2" height="8" rx="1" fill="#474857" fill-opacity="0.2"/>
<rect x="95" y="82" width="2" height="8" rx="1" fill="#474857" fill-opacity="0.2"/>
</g>
<defs>
<linearGradient id="paint0_linear_5372_59922" x1="20.5" y1="6.86751e-06" x2="20.4807" y2="128" gradientUnits="userSpaceOnUse">
<stop stop-color="#76717F" stop-opacity="0"/>
<stop offset="0.245" stop-color="#71717A"/>
<stop offset="0.75" stop-color="#71717A"/>
<stop offset="1" stop-color="#76717F" stop-opacity="0"/>
</linearGradient>
<linearGradient id="paint1_linear_5372_59922" x1="168.5" y1="6.86751e-06" x2="168.481" y2="128" gradientUnits="userSpaceOnUse">
<stop stop-color="#76717F" stop-opacity="0"/>
<stop offset="0.245" stop-color="#71717A"/>
<stop offset="0.75" stop-color="#71717A"/>
<stop offset="1" stop-color="#76717F" stop-opacity="0"/>
</linearGradient>
<linearGradient id="paint2_linear_5372_59922" x1="1.00156e-05" y1="16.5" x2="188" y2="16.5417" gradientUnits="userSpaceOnUse">
<stop stop-color="#76717F" stop-opacity="0"/>
<stop offset="0.245" stop-color="#71717A"/>
<stop offset="0.75" stop-color="#71717A"/>
<stop offset="1" stop-color="#76717F" stop-opacity="0"/>
</linearGradient>
<linearGradient id="paint3_linear_5372_59922" x1="1.00156e-05" y1="110.5" x2="188" y2="110.542" gradientUnits="userSpaceOnUse">
<stop stop-color="#76717F" stop-opacity="0"/>
<stop offset="0.245" stop-color="#71717A"/>
<stop offset="0.75" stop-color="#71717A"/>
<stop offset="1" stop-color="#76717F" stop-opacity="0"/>
</linearGradient>
<clipPath id="clip0_5372_59922">
<rect width="188" height="128" fill="white"/>
</clipPath>
</defs>
</svg>
