<svg width="192" height="136" viewBox="0 0 192 136" fill="none" xmlns="http://www.w3.org/2000/svg">
<g clip-path="url(#clip0_5515_5696)">
<path d="M22 136L22 -3.9041e-06" stroke="url(#paint0_linear_5515_5696)" stroke-opacity="0.4"/>
<path d="M170 136L170 -3.9041e-06" stroke="url(#paint1_linear_5515_5696)" stroke-opacity="0.4"/>
<path d="M192 15L6.02007e-06 15" stroke="url(#paint2_linear_5515_5696)" stroke-opacity="0.4"/>
<rect x="22" y="15" width="148" height="106" rx="8" fill="#F4F4F5"/>
<path d="M192 121L6.02007e-06 121" stroke="url(#paint3_linear_5515_5696)" stroke-opacity="0.4"/>
<rect x="44" y="25" width="42" height="6" rx="3" fill="#18181B"/>
<rect x="44" y="105" width="30" height="6" rx="3" fill="#474857" fill-opacity="0.2"/>
<rect x="44" y="39" width="54" height="6" rx="3" fill="#474857" fill-opacity="0.2"/>
<rect x="55" y="53" width="32" height="6" rx="3" fill="#474857" fill-opacity="0.2"/>
<rect x="55" y="90" width="45" height="6" rx="3" fill="#474857" fill-opacity="0.2"/>
<rect x="65" y="70" width="50" height="6" rx="3" fill="#18181B"/>
<rect x="37" y="25" width="2" height="86" rx="1" fill="#474857" fill-opacity="0.2"/>
<rect x="47" y="53" width="2" height="43" rx="1" fill="#474857" fill-opacity="0.2"/>
<rect x="57" y="64" width="2" height="21" rx="1" fill="#474857" fill-opacity="0.2"/>
</g>
<defs>
<linearGradient id="paint0_linear_5515_5696" x1="22.5" y1="7.29673e-06" x2="22.4782" y2="136" gradientUnits="userSpaceOnUse">
<stop stop-color="#76717F" stop-opacity="0"/>
<stop offset="0.245" stop-color="#71717A"/>
<stop offset="0.75" stop-color="#71717A"/>
<stop offset="1" stop-color="#76717F" stop-opacity="0"/>
</linearGradient>
<linearGradient id="paint1_linear_5515_5696" x1="170.5" y1="7.29673e-06" x2="170.478" y2="136" gradientUnits="userSpaceOnUse">
<stop stop-color="#76717F" stop-opacity="0"/>
<stop offset="0.245" stop-color="#71717A"/>
<stop offset="0.75" stop-color="#71717A"/>
<stop offset="1" stop-color="#76717F" stop-opacity="0"/>
</linearGradient>
<linearGradient id="paint2_linear_5515_5696" x1="1.02287e-05" y1="14.5" x2="192" y2="14.5435" gradientUnits="userSpaceOnUse">
<stop stop-color="#76717F" stop-opacity="0"/>
<stop offset="0.245" stop-color="#71717A"/>
<stop offset="0.75" stop-color="#71717A"/>
<stop offset="1" stop-color="#76717F" stop-opacity="0"/>
</linearGradient>
<linearGradient id="paint3_linear_5515_5696" x1="1.02287e-05" y1="120.5" x2="192" y2="120.543" gradientUnits="userSpaceOnUse">
<stop stop-color="#76717F" stop-opacity="0"/>
<stop offset="0.245" stop-color="#71717A"/>
<stop offset="0.75" stop-color="#71717A"/>
<stop offset="1" stop-color="#76717F" stop-opacity="0"/>
</linearGradient>
<clipPath id="clip0_5515_5696">
<rect width="192" height="136" fill="white"/>
</clipPath>
</defs>
</svg>
